<svg width="30" height="30" viewBox="0 0 30 30" fill="none" xmlns="http://www.w3.org/2000/svg">
<g clip-path="url(#clip0_694_460)">
<path d="M15 0C6.71779 0 0 6.71779 0 15C0 23.2822 6.71779 30 15 30C23.2822 30 30 23.2822 30 15C30 6.71779 23.2822 0 15 0ZM15 26.6564C8.55828 26.6564 3.34356 21.4417 3.34356 15C3.34356 8.55828 8.55828 3.34356 15 3.34356C21.4417 3.34356 26.6564 8.55828 26.6564 15C26.6564 21.4417 21.4417 26.6564 15 26.6564Z" fill="#626B77"/>
<path d="M18.0979 9.50913C15.0611 7.45391 10.9813 8.25146 8.92612 11.2883C6.8709 14.3251 7.66845 18.4048 10.7053 20.46C12.9445 21.9631 15.8586 21.9631 18.0979 20.46V21.2883H21.0427V8.6809H18.0979V9.50913ZM14.4169 18.7116C12.3617 18.7116 10.7053 17.0551 10.7053 14.9999C10.7053 12.9447 12.3617 11.3189 14.4169 11.3189C16.4415 11.3189 18.0979 12.9754 18.1286 14.9999C18.1286 17.0551 16.4721 18.7116 14.4169 18.7116Z" fill="#626B77"/>
</g>
<defs>
<clipPath id="clip0_694_460">
<rect width="30" height="30" fill="white"/>
</clipPath>
</defs>
</svg>
