<svg xmlns="http://www.w3.org/2000/svg" width="732" height="90" viewBox="0 0 732 90">
  <g fill="#283593" fill-rule="evenodd">
    <path d="M89.9936265,0 L89.9936265,45 C89.9936265,69.8528137 69.847867,90 44.9968133,90 C20.1457595,90 0,69.8528137 0,45 C0,20.1471863 20.1457595,0 44.9968133,0 L44.9968133,0 L89.9936265,0 Z M79.0818993,11.1375 L42.9069026,11.1375 C28.9964019,11.1375 16.8053786,20.4440237 13.1384287,33.8625 L13.1384287,33.8625 L56.8647228,33.8625 L56.8647228,45.1858288 C56.8647228,51.3990322 51.8279262,56.4358288 45.6147228,56.4358288 L45.6147228,56.4358288 L45.1539817,56.4358288 L44.8695124,56.4320522 C39.1984758,56.2813076 34.6475462,51.6368137 34.6475462,45.9293932 L34.6475462,45.9293932 L34.6475462,45.0686864 L11.2260642,45.0686864 L11.2260642,45.08124 C11.2260642,63.8191114 26.4161103,79.0091575 45.1539817,79.0091575 L45.1539817,79.0091575 L45.7150419,79.0046122 C64.1941351,78.7050018 79.0818993,63.6317327 79.0818993,45.08124 L79.0818993,45.08124 L79.0818993,11.1375 Z"/>
    <path stroke="#283593" stroke-width="2" d="M193.607865,26.6811024 C197.360542,26.6811024 200.468689,27.2296554 202.939197,28.2987872 C205.459144,29.3893138 207.472345,30.8346858 208.989591,32.6210026 C210.508861,34.4097019 211.588927,36.4706031 212.227081,38.8052274 C212.792562,40.8739873 213.101035,42.9793523 213.152448,45.1213827 L213.16016,45.7650919 L213.16016,49.1771654 C213.16016,50.2878126 213.078046,51.1971461 212.9235,51.9064571 C212.72911,52.7986387 212.356092,53.4598856 211.854427,53.9219171 C211.359535,54.3777119 210.701018,54.7000152 209.859316,54.8527072 C209.269819,54.9596471 208.539841,55.0223559 207.668879,55.0363622 L207.286976,55.0393701 L184.927402,55.0393701 C185.062453,56.7562315 185.309081,58.2176239 185.67359,59.4223398 C186.069777,60.7317509 186.717753,61.7883648 187.635354,62.5801778 C188.581107,63.3962838 189.866171,63.9666018 191.473233,64.3229221 C193.212156,64.7084789 195.434515,64.8963255 198.139071,64.8963255 C199.988434,64.8963255 201.809754,64.8125116 203.603077,64.6447662 C205.6027,64.4577239 207.949846,64.0964621 210.644835,63.5627022 L211.27293,63.4364655 L209.536094,72.8592333 C208.587736,73.2394301 207.438473,73.5770787 206.087196,73.8685885 C205.009586,74.1010604 203.830096,74.3047051 202.548607,74.4790599 C201.271906,74.6527634 199.966211,74.783085 198.631476,74.8699369 C197.298429,74.9566788 195.99438,75 194.719293,75 C190.601881,75 187.148318,74.5218149 184.355123,73.583069 C181.473924,72.6147462 179.144522,71.1548774 177.356143,69.2193113 C175.569269,67.2853742 174.29171,64.915897 173.534289,62.1046358 C172.847586,59.555856 172.478919,56.6092555 172.435518,53.263675 L172.431177,52.5892388 L172.431177,49.0065617 C172.431177,45.7183268 172.831583,42.7243644 173.625992,40.0235874 C174.439016,37.2595276 175.722342,34.8884374 177.46844,32.9059748 C179.220782,30.9164223 181.438747,29.3747293 184.128454,28.2892089 C186.769054,27.2235072 189.927424,26.6811024 193.607865,26.6811024 Z M193.351382,36.3582677 C190.469404,36.3582677 188.304744,37.0947717 186.92838,38.6969128 C185.63134,40.2067171 184.932354,42.6151288 184.735055,45.8740157 L184.735055,45.8740157 L201.328299,45.8740157 L201.328299,45.0826772 L201.324731,44.6928081 C201.274718,41.9928897 200.697514,39.9060467 199.506745,38.4704419 C198.290864,37.0045633 196.204848,36.3582677 193.351382,36.3582677 Z M523.188943,26.6811024 C526.941619,26.6811024 530.049766,27.2296554 532.520275,28.2987872 C535.040221,29.3893138 537.053422,30.8346858 538.570668,32.6210026 C540.089938,34.4097019 541.170005,36.4706031 541.808158,38.8052274 C542.373639,40.8739873 542.682112,42.9793523 542.733525,45.1213827 L542.741237,45.7650919 L542.741237,49.1771654 C542.741237,50.2878126 542.659124,51.1971461 542.504577,51.9064571 C542.310187,52.7986387 541.937169,53.4598856 541.435504,53.9219171 C540.940612,54.3777119 540.282095,54.7000152 539.440393,54.8527072 C538.850896,54.9596471 538.120918,55.0223559 537.249956,55.0363622 L536.868054,55.0393701 L514.508479,55.0393701 C514.64353,56.7562315 514.890159,58.2176239 515.254668,59.4223398 C515.650854,60.7317509 516.29883,61.7883648 517.216431,62.5801778 C518.162184,63.3962838 519.447248,63.9666018 521.05431,64.3229221 C522.793233,64.7084789 525.015592,64.8963255 527.720148,64.8963255 C529.569512,64.8963255 531.390831,64.8125116 533.184155,64.6447662 C535.183777,64.4577239 537.530923,64.0964621 540.225912,63.5627022 L540.854007,63.4364655 L539.117172,72.8592333 C538.168813,73.2394301 537.01955,73.5770787 535.668273,73.8685885 C534.590663,74.1010604 533.411173,74.3047051 532.129685,74.4790599 C530.852983,74.6527634 529.547289,74.783085 528.212554,74.8699369 C526.879507,74.9566788 525.575458,75 524.30037,75 C520.182958,75 516.729395,74.5218149 513.936201,73.583069 C511.055001,72.6147462 508.725599,71.1548774 506.93722,69.2193113 C505.150346,67.2853742 503.872788,64.915897 503.115366,62.1046358 C502.428663,59.555856 502.059996,56.6092555 502.016595,53.263675 L502.012254,52.5892388 L502.012254,49.0065617 C502.012254,45.7183268 502.412661,42.7243644 503.20707,40.0235874 C504.020093,37.2595276 505.303419,34.8884374 507.049517,32.9059748 C508.801859,30.9164223 511.019824,29.3747293 513.709531,28.2892089 C516.350132,27.2235072 519.508502,26.6811024 523.188943,26.6811024 Z M522.932459,36.3582677 C520.050481,36.3582677 517.885821,37.0947717 516.509457,38.6969128 C515.212417,40.2067171 514.513431,42.6151288 514.316132,45.8740157 L514.316132,45.8740157 L530.909376,45.8740157 L530.909376,45.0826772 L530.905808,44.6928081 C530.855795,41.9928897 530.278591,39.9060467 529.087822,38.4704419 C527.871942,37.0045633 525.785925,36.3582677 522.932459,36.3582677 Z M493.15446,8.59711286 L493.15446,73.976378 L482.227262,73.976378 L481.723881,70.523434 C481.535183,70.7003976 481.337934,70.8763788 481.132087,71.0513347 C480.311739,71.7485759 479.325557,72.4023249 478.170823,73.0087101 C477.01995,73.6130682 475.658245,74.0999984 474.083028,74.4626911 C472.536296,74.8188251 470.751896,75 468.728983,75 C465.485788,75 462.726812,74.4639053 460.445972,73.4158846 C458.116013,72.3452947 456.232295,70.7989055 454.791638,68.7804132 C453.380779,66.8036701 452.353547,64.4101959 451.722937,61.5938265 C451.153792,59.0519624 450.846767,56.208996 450.80581,53.0643711 L450.801083,52.3333333 L450.801083,49.4330709 C450.801083,45.4989176 451.279122,42.1243349 452.220525,39.3064894 C453.182925,36.4257932 454.543151,34.0601753 456.286742,32.200536 C458.046248,30.3239215 460.154089,28.9307215 462.611482,28.0226265 C465.025594,27.1305251 467.662771,26.6811024 470.524366,26.6811024 C472.980824,26.6811024 475.12132,26.9860771 476.948135,27.5836836 C478.015609,27.9328865 479.067627,28.354218 480.104112,28.8478824 L480.724138,29.1527626 L480.724138,8.59711286 L493.15446,8.59711286 Z M473.089199,36.7847769 C469.668069,36.7847769 467.162644,37.6561675 465.668112,39.5586883 C464.116653,41.5336773 463.402394,44.7014491 463.402394,49.0065617 L463.402394,49.0065617 L463.402394,52.1627297 L463.405782,52.7437308 C463.428378,54.6587328 463.564093,56.3570413 463.815742,57.8384305 C464.075866,59.3696995 464.522597,60.6584227 465.173479,61.6974878 C465.784784,62.6733723 466.630137,63.4151016 467.705516,63.9271944 C468.84479,64.4697138 470.271523,64.7257218 471.977771,64.7257218 C473.698231,64.7257218 475.135874,64.4917537 476.284283,63.9969671 C477.362569,63.5323925 478.224443,62.8642808 478.86222,61.9831954 C479.527984,61.0634447 479.995051,59.9495701 480.276496,58.6476312 C480.576234,57.2610678 480.724138,55.7248442 480.724138,54.0393701 L480.724138,54.0393701 L480.724138,38.7678965 L480.222545,38.5109511 C479.223194,38.014653 478.246812,37.6239933 477.292772,37.3404513 C476.038366,36.9676403 474.636817,36.7847769 473.089199,36.7847769 Z M163.573383,11.2414698 L163.573383,50.2007874 C163.573383,53.6891412 163.25132,56.9155865 162.610367,59.880584 C161.950867,62.931375 160.791638,65.5605542 159.143358,67.7732433 C157.476341,70.0110866 155.23739,71.7556724 152.417456,72.9960686 C149.660887,74.2085924 146.180572,74.8293963 141.969222,74.8293963 C139.689544,74.8293963 137.439135,74.639771 135.217915,74.2606813 C132.545438,73.804577 130.420926,73.2396592 128.841634,72.5753619 L128.841634,72.5753619 L131.038105,62.4526147 C132.73748,62.8979197 134.393149,63.2779787 136.005217,63.5926729 C137.259642,63.837551 138.677808,63.9580052 140.259333,63.9580052 C142.343735,63.9580052 144.083387,63.7150737 145.473961,63.2081238 C146.761322,62.7388016 147.792465,61.9895098 148.560558,60.9512125 C149.369553,59.8576231 149.94386,58.4205671 150.308749,56.652241 C150.696337,54.7739125 150.886577,52.4809977 150.886577,49.7742782 L150.886577,49.7742782 L150.886577,11.2414698 L163.573383,11.2414698 Z M679.703334,11.2414698 L679.703334,50.2007874 C679.703334,53.6891412 679.381271,56.9155865 678.740318,59.880584 C678.080819,62.931375 676.92159,65.5605542 675.27331,67.7732433 C673.606293,70.0110866 671.367342,71.7556724 668.547407,72.9960686 C665.790838,74.2085924 662.310523,74.8293963 658.099174,74.8293963 C655.819495,74.8293963 653.569087,74.639771 651.347867,74.2606813 C648.67539,73.804577 646.550878,73.2396592 644.971586,72.5753619 L644.971586,72.5753619 L647.168057,62.4526147 C648.867432,62.8979197 650.5231,63.2779787 652.135169,63.5926729 C653.389594,63.837551 654.80776,63.9580052 656.389285,63.9580052 C658.473687,63.9580052 660.213338,63.7150737 661.603913,63.2081238 C662.891274,62.7388016 663.922417,61.9895098 664.690509,60.9512125 C665.499505,59.8576231 666.073812,58.4205671 666.438701,56.652241 C666.826289,54.7739125 667.016529,52.4809977 667.016529,49.7742782 L667.016529,49.7742782 L667.016529,11.2414698 L679.703334,11.2414698 Z M604.237675,26.851706 C607.382239,26.851706 610.22083,27.0857465 612.753863,27.5505422 C615.795872,28.1087318 618.107313,28.755293 619.692145,29.4775598 L619.692145,29.4775598 L617.346265,38.9463316 C615.050383,38.1645706 612.81201,37.6105151 610.630706,37.2856808 C608.767329,37.0081913 606.778796,36.8700787 604.665147,36.8700787 C600.998577,36.8700787 598.487479,37.1958973 597.179887,37.9680349 C596.086613,38.6136167 595.576803,39.6638594 595.576803,41.0734908 C595.576803,42.20429 595.818608,43.067526 596.466786,43.5633433 C597.229785,44.146991 598.594831,44.5204203 600.515233,44.7728958 L600.515233,44.7728958 L607.610223,45.625798 C610.020004,45.926342 612.03513,46.4902617 613.660998,47.3013642 C615.339009,48.1384796 616.669517,49.1676324 617.663223,50.3759834 C618.662636,51.5912735 619.381326,52.9621843 619.818584,54.4891412 C620.243573,55.9732499 620.455685,57.4725151 620.455685,58.9868766 L620.455685,58.9868766 L620.455685,59.839895 C620.455685,62.5205853 619.955126,64.8163248 618.97894,66.7338614 C617.987129,68.6820904 616.577017,70.2593079 614.748345,71.465368 C612.972646,72.6364904 610.838026,73.4983585 608.339156,74.0390611 C605.909852,74.5647114 603.231947,74.8293963 600.30493,74.8293963 C597.869444,74.8293963 595.259979,74.6420054 592.476535,74.2659299 C589.390794,73.8490104 586.305025,73.1309627 583.219269,72.1110603 L583.219269,72.1110603 L585.462959,62.5169091 C588.497455,63.3935163 591.212358,64.0061302 593.608303,64.3521304 C595.72653,64.6580253 597.844723,64.8110236 599.962952,64.8110236 C601.816964,64.8110236 603.33084,64.6931641 604.503473,64.4482823 C605.57571,64.2243662 606.418355,63.9272101 607.018124,63.5282654 C607.511086,63.2003642 607.860803,62.7972406 608.046548,62.3030374 C608.263853,61.7248623 608.367341,61.0737487 608.367341,60.351706 C608.367341,59.2859706 608.118066,58.3855979 607.581701,57.6642989 C607.03492,56.9289935 605.826818,56.542774 604.110546,56.3108066 L604.110546,56.3108066 L597.784203,55.5430989 C593.061158,54.9389444 589.607318,53.4792665 587.372916,51.2498985 C585.085459,48.9675952 583.91593,45.952916 583.91593,42.1824147 L583.91593,42.1824147 L583.91593,41.3293963 C583.91593,36.4564467 585.750759,32.8223716 589.358628,30.3917774 C592.82302,28.0578422 597.772767,26.851706 604.237675,26.851706 Z M371.436307,26.6811024 C374.49763,26.6811024 377.263963,27.021994 379.73632,27.6974237 C382.275271,28.3910466 384.43317,29.4668175 386.215868,30.9138809 C388.020091,32.3784167 389.414374,34.2376811 390.393164,36.496035 C391.296935,38.5812962 391.784257,41.0364496 391.838461,43.8654441 L391.843545,44.4002625 L391.843545,73.976378 L381.110657,73.976378 L380.558746,70.794746 C379.381881,71.9415955 377.989594,72.8366172 376.380928,73.4786338 C374.14228,74.3720756 371.412734,74.8293963 368.187518,74.8293963 C365.870577,74.8293963 363.762096,74.5747392 361.86123,74.0709592 C359.893461,73.5494479 358.189247,72.7022289 356.744606,71.5368529 C355.278692,70.354316 354.151954,68.8320019 353.371902,66.9640951 C352.663198,65.2670366 352.276165,63.2004053 352.230554,60.7595634 L352.22599,60.2664042 L352.22599,59.328084 C352.22599,56.6091481 352.646728,54.3168127 353.463661,52.4451202 C354.305414,50.5165591 355.509343,48.9647523 357.067483,47.7832335 C358.595294,46.6247133 360.456418,45.7794401 362.65756,45.2608967 C364.778228,44.7613115 367.134293,44.5091864 369.726418,44.5091864 C372.399437,44.5091864 374.670242,44.7819485 376.540891,45.3152156 C377.602581,45.6178721 378.577203,46.0394156 379.465352,46.578867 L379.840695,46.8172764 L379.840695,46.0209974 C379.840695,42.6671316 379.067172,40.2310871 377.342993,38.8189051 C375.569027,37.365945 372.783892,36.6994751 369.042462,36.6994751 C367.041864,36.6994751 365.055188,36.8519391 363.082376,37.1568975 C360.932321,37.4892542 358.831182,37.9028582 356.778904,38.3978268 L355.756837,38.652092 L357.385001,28.688519 C359.382344,28.0862852 361.738986,27.5901387 364.455642,27.2029193 C366.898887,26.8546707 369.225777,26.6811024 371.436307,26.6811024 Z M372.46224,53.5892388 L371.008834,53.5892388 L370.643536,53.592245 C368.361111,53.6304346 366.671214,54.034617 365.632873,54.9260604 C364.600364,55.8124967 364.143346,57.1875069 364.143346,58.9868766 L364.143346,58.9868766 L364.143346,59.5839895 L364.147993,59.8765317 C364.200772,61.5116127 364.705078,62.7603943 365.759678,63.5663529 C366.971405,64.4923938 368.909495,64.8963255 371.521801,64.8963255 C374.465635,64.8963255 376.654115,64.3999843 378.031403,63.2850794 C379.306554,62.2528535 379.92619,60.8425834 379.92619,59.0721785 L379.92619,59.0721785 L379.92619,58.3897638 L379.920825,58.1256684 C379.863535,56.735917 379.3464,55.6468289 378.320671,54.8847087 C377.105008,53.9814674 375.134928,53.5892388 372.46224,53.5892388 L372.46224,53.5892388 Z M326.893702,10.3884514 C329.971875,10.3884514 332.846637,10.6065876 335.518217,11.04119 C338.479579,11.5229331 341.405282,12.2712815 344.295361,13.2865573 L344.295361,13.2865573 L342.177584,23.5346376 C340.023058,22.7556866 337.552352,22.1361279 334.766141,21.6728056 C332.421673,21.2829412 329.825977,21.0892388 326.979196,21.0892388 C322.679731,21.0892388 319.540032,21.6573522 317.599368,22.8944276 C315.801038,24.0407726 314.984041,26.0702384 314.984041,28.8753281 C314.984041,31.0653943 315.479352,32.7054599 316.614947,33.7153403 C317.824712,34.7911794 319.868564,35.5221177 322.697524,35.9925487 L322.697524,35.9925487 L329.374055,37.1028302 C331.718235,37.5121374 333.8716,38.0832677 335.834792,38.814152 C337.871736,39.5724935 339.617743,40.6219302 341.07672,41.956313 C342.554106,43.3075324 343.698283,45.0240821 344.498901,47.1132879 C345.277306,49.1445299 345.676546,51.622374 345.676546,54.5511811 L345.676546,54.5511811 L345.676546,55.4041995 C345.676546,61.9123567 343.579541,66.7618794 339.483975,70.0069134 C335.470232,73.1871166 329.464801,74.8293963 321.422058,74.8293963 C317.948354,74.8293963 314.576048,74.5691636 311.304992,74.0492843 C307.615779,73.462946 304.531883,72.6909903 302.051446,71.7399214 L302.051446,71.7399214 L304.250381,61.5013437 C306.910582,62.2362934 309.754976,62.8606661 312.783562,63.3750088 C315.408868,63.8208627 318.145877,64.0433071 320.994585,64.0433071 C325.422338,64.0433071 328.604469,63.4018595 330.480157,61.9848956 C332.25679,60.6427607 333.075235,58.4500817 333.075235,55.4895013 C333.075235,54.4933852 332.97174,53.5625545 332.761529,52.6973885 C332.570739,51.9121505 332.212825,51.2103192 331.688173,50.5916729 C331.145152,49.9513665 330.385907,49.4190651 329.424981,48.9765599 C328.388638,48.4993253 327.044582,48.1631022 325.389874,47.9500378 L325.389874,47.9500378 L318.546754,47.0112221 C313.425442,46.2898421 309.544854,44.3983644 306.868453,41.3979472 C304.179854,38.3838546 302.810202,34.4727022 302.810202,29.6430446 L302.810202,29.6430446 L302.810202,28.7900262 C302.810202,22.3699585 304.896795,17.7172258 308.948879,14.7604374 C312.897349,11.8792558 318.864972,10.3884514 326.893702,10.3884514 Z M723.587917,60.2900262 C726.242444,60.2900262 728.099046,61.0080226 729.24734,62.2846683 C730.390942,63.556097 731,65.2892431 731,67.5170604 C731,69.7448776 730.390942,71.4780237 729.24734,72.7494525 C728.099046,74.0260981 726.242444,74.7440945 723.587917,74.7440945 C720.933389,74.7440945 719.076788,74.0260981 717.928493,72.7494525 C716.784891,71.4780237 716.175834,69.7448776 716.175834,67.5170604 C716.175834,65.2892431 716.784891,63.556097 717.928493,62.2846683 C719.076788,61.0080226 720.933389,60.2900262 723.587917,60.2900262 Z M425.3833,26.6811024 C427.888512,26.6811024 430.169251,27.0119355 432.226777,27.6664804 C434.335137,28.3371966 436.151233,29.3613891 437.678675,30.7329903 C439.211295,32.1092411 440.410659,33.8347662 441.269203,35.9151034 C442.111762,37.9567092 442.54175,40.3572768 442.54175,43.1207349 L442.54175,43.1207349 L442.54175,73.976378 L430.111428,73.976378 L430.111428,45.9356955 C430.111428,42.6864964 429.588795,40.3349508 428.390569,38.9574969 C427.229893,37.6232083 425.254446,37.0406824 422.561983,37.0406824 C419.563934,37.0406824 417.323057,37.7647295 415.914045,39.3494912 C414.469964,40.9736969 413.815617,43.5892357 413.815617,47.1299213 L413.815617,47.1299213 L413.815617,73.976378 L401.385295,73.976378 L401.385295,27.7047244 L412.314724,27.7047244 L412.816067,31.2062193 C414.072785,29.99101 415.547573,29.0081532 417.241752,28.2592586 C419.610759,27.2120628 422.323454,26.6811024 425.3833,26.6811024 Z M241.741237,8 C243.460431,8 245.090571,8.14868828 246.631868,8.44442392 C248.640321,8.8297946 250.19436,9.26885926 251.296656,9.75258693 L251.296656,9.75258693 L249.037194,19.0921284 C247.343294,18.4323153 245.566666,18.1036745 243.707609,18.1036745 C242.187833,18.1036745 240.964619,18.310083 240.050283,18.7662211 C239.204915,19.1879526 238.547438,19.8088437 238.077792,20.6288725 C237.564295,21.5254675 237.225714,22.6164972 237.046155,23.8961727 C236.888526,25.0195584 236.795832,26.2891038 236.766676,27.7047244 L236.766676,27.7047244 L252.038932,27.7047244 C252.105766,25.0413178 252.441976,22.5873231 253.043787,20.3421438 C253.739898,17.7451569 254.849997,15.5441649 256.362726,13.7329795 C257.887108,11.907842 259.850524,10.4886313 262.259923,9.48444069 C264.61849,8.50143598 267.438273,8 270.723853,8 C272.668075,8 274.46484,8.14810874 276.114421,8.44201315 C278.256228,8.82361711 279.90147,9.25804839 281.052619,9.73648143 L281.052619,9.73648143 L278.794508,19.0704366 C277.522543,18.6185648 276.325322,18.3354911 275.201696,18.2269981 C274.350811,18.1448399 273.513665,18.1036745 272.690225,18.1036745 C270.951475,18.1036745 269.512713,18.302605 268.378821,18.7235677 C267.353973,19.1040474 266.548023,19.6786427 265.974819,20.4650235 C265.370187,21.2945184 264.967663,22.3675394 264.741342,23.6722276 C264.537239,24.8488287 264.418512,26.1930607 264.382842,27.7047244 L264.382842,27.7047244 L277.616062,27.7047244 L276.114105,37.5524934 L264.371331,37.5524934 L264.371331,73.976378 L251.941009,73.976378 L251.941009,37.5524934 L236.756626,37.5524934 L236.756626,73.976378 L224.326304,73.976378 L224.326304,37.5524934 L215.869261,37.5524934 L217.371219,27.7047244 L224.42405,27.7047244 C224.487047,25.155476 224.792875,22.7786876 225.338805,20.5739468 C225.971634,18.0182701 226.971081,15.8262619 228.326723,13.9927544 C229.704315,12.1295589 231.508041,10.6600399 233.743442,9.59068693 C235.94247,8.53873361 238.606189,8 241.741237,8 Z M574.827586,27.1076115 C576.027284,27.1076115 577.091827,27.1839557 578.021522,27.3335687 C579.20859,27.5246 580.468775,27.8830659 581.801052,28.4133622 L581.801052,28.4133622 L579.515136,38.9878198 C579.156917,38.8837043 578.824649,38.7934025 578.518309,38.7169901 C577.853298,38.5511119 577.049674,38.3856349 576.107586,38.2197586 C575.194795,38.0590407 574.255152,37.9790026 573.288686,37.9790026 C569.905356,37.9790026 567.408307,38.7931533 565.883276,40.5726462 C564.323457,42.3927322 563.601881,45.1936578 563.601881,48.9212598 L563.601881,48.9212598 L563.601881,73.976378 L551.171559,73.976378 L551.171559,27.7047244 L562.112974,27.7047244 L562.621405,31.6361887 C563.835614,30.4146558 565.226015,29.4349443 566.791807,28.6960352 C569.018963,27.6450237 571.695525,27.1076115 574.827586,27.1076115 Z M713.499573,27.1076115 C714.699271,27.1076115 715.763813,27.1839557 716.693508,27.3335687 C717.880576,27.5246 719.140761,27.8830659 720.473038,28.4133622 L720.473038,28.4133622 L718.187123,38.9878198 C717.828903,38.8837043 717.496635,38.7934025 717.190296,38.7169901 C716.525285,38.5511119 715.72166,38.3856349 714.779572,38.2197586 C713.866781,38.0590407 712.927138,37.9790026 711.960673,37.9790026 C708.577342,37.9790026 706.080293,38.7931533 704.555262,40.5726462 C702.995443,42.3927322 702.273867,45.1936578 702.273867,48.9212598 L702.273867,48.9212598 L702.273867,73.976378 L689.843545,73.976378 L689.843545,27.7047244 L700.78496,27.7047244 L701.293391,31.6361887 C702.5076,30.4146558 703.898001,29.4349443 705.463794,28.6960352 C707.690949,27.6450237 710.367511,27.1076115 713.499573,27.1076115 Z"/>
  </g>
</svg>
