<svg xmlns="http://www.w3.org/2000/svg" width="182" height="50" viewBox="0 0 182 50">
  <g fill="none" fill-rule="evenodd">
    <path fill="#626B77" fill-rule="nonzero" d="M75.7622837 28.513002C78.3550168 28.513002 80.4811588 27.7513236 82.1407097 26.2279668 83.8002607 24.70461 84.8318053 22.7272727 85.2353435 20.2959549L85.2353435 20.2959549 80.6198751 20.2959549C80.3071329 21.4460389 79.9136832 22.3086018 79.4395258 22.8836438 78.582007 23.9530201 77.3360828 24.4877082 75.701753 24.4877082 74.107777 24.4877082 72.7937556 23.8647461 71.759689 22.6188218 70.7256223 21.3728976 70.2085889 19.4989669 70.2085889 16.99703 70.2085889 14.495093 70.697879 12.5606316 71.6764592 11.1936459 72.6550394 9.82666016 73.9917597 9.14316729 75.6866203 9.14316729 77.3512155 9.14316729 78.6072282 9.62741316 79.4546584 10.5959049 79.9288159 11.1406815 80.3172214 11.9477579 80.6198751 13.0171342L80.6198751 13.0171342 85.2807415 13.0171342C85.2101224 11.6249274 84.6956111 10.2377647 83.7372078 8.85564631 82.0019935 6.39406315 79.2579336 5.16327157 75.5050281 5.16327157 72.7004374 5.16327157 70.3901811 6.08132102 68.5742591 7.91741994 66.4859488 10.0259072 65.4417936 13.0272227 65.4417936 16.9213665 65.4417936 20.5229452 66.3598431 23.3578012 68.195942 25.4259346 70.0320409 27.4839795 72.5541548 28.513002 75.7622837 28.513002zM97.4262332 27.892562C98.5662287 27.892562 99.6229944 27.7916774 100.59653 27.5899083 101.570066 27.3881392 102.414974 27.0148663 103.131255 26.4700897 103.766828 25.9959323 104.296471 25.4108019 104.720187 24.7146985 105.386025 23.6654991 105.718944 22.4801056 105.718944 21.1585179 105.718944 19.877284 105.428901 18.7877308 104.848814 17.8898583 104.268728 16.9919857 103.408687 16.3362361 102.268692 15.9226094 103.015238 15.5392481 103.580191 15.115533 103.963552 14.651464 104.649567 13.8242107 104.992575 12.7296132 104.992575 11.3676717 104.992575 10.0460841 104.649567 8.91113281 103.963552 7.96281799 102.823557 6.41928428 100.886573 5.62734052 98.152602 5.5869867L98.152602 5.5869867 87.3176007 5.5869867 87.3176007 27.892562 97.4262332 27.892562zM97.244641 14.3790757L91.7666096 14.3790757 91.7666096 9.46095364 96.669599 9.46095364C97.7490638 9.46095364 98.6368479 9.57697088 99.3329513 9.80900536 100.140028 10.1419244 100.543566 10.8279394 100.543566 11.8670503 100.543566 12.8052767 100.23839 13.4585042 99.6280386 13.8267328 99.0176871 14.1949614 98.2232212 14.3790757 97.244641 14.3790757L97.244641 14.3790757zM97.244641 24.018595L91.7666096 24.018595 91.7666096 18.0714505 97.3203044 18.0714505C98.2887962 18.0815389 99.0403861 18.2076446 99.5750743 18.4497676 100.533478 18.8835712 101.012679 19.6805591 101.012679 20.8407315 101.012679 22.2127615 100.518345 23.1408994 99.5296762 23.6251453 98.9848996 23.8874451 98.2232212 24.018595 97.244641 24.018595L97.244641 24.018595zM117.682843 27.892562C121.052387 27.892562 123.544236 26.5053993 125.158389 23.7310741 126.348827 21.6730291 126.944045 19.1610037 126.944045 16.1949977 126.944045 15.0247369 126.802807 13.7939453 126.52033 12.502623 126.237853 11.2113007 125.70821 10.0107745 124.931399 8.90104436 123.962907 7.5290144 122.696806 6.5857438 121.133095 6.07123257 120.215046 5.7685789 119.064962 5.60716361 117.682843 5.5869867L117.682843 5.5869867 108.073589 5.5869867 108.073589 27.892562 117.682843 27.892562zM116.895944 24.018595L112.598262 24.018595 112.598262 9.46095364 116.895944 9.46095364C119.014519 9.46095364 120.429425 10.0687831 121.140661 11.284442 121.851897 12.5001009 122.207515 14.2428816 122.207515 16.5127841 122.207515 18.1572024 121.970437 19.5746304 121.496279 20.7650681 120.628672 22.9340861 119.095227 24.018595 116.895944 24.018595L116.895944 24.018595zM145.832661 28.513002C149.020613 28.513002 151.456975 27.6453948 153.141747 25.9101805 155.391472 23.7815163 156.516335 20.7146258 156.516335 16.709509 156.516335 12.6236845 155.391472 9.55679397 153.141747 7.50883749 151.456975 5.77362313 149.020613 4.90601595 145.832661 4.90601595 142.644709 4.90601595 140.208347 5.77362313 138.523575 7.50883749 136.263761 9.55679397 135.133854 12.6236845 135.133854 16.709509 135.133854 20.7146258 136.263761 23.7815163 138.523575 25.9101805 140.208347 27.6453948 142.644709 28.513002 145.832661 28.513002zM145.832661 24.5633716C143.986473 24.5633716 142.513559 23.8824009 141.413917 22.5204594 140.314276 21.1585179 139.764455 19.2215344 139.764455 16.709509 139.764455 14.1974835 140.314276 12.2605001 141.413917 10.8985586 142.513559 9.53661706 143.986473 8.85564631 145.832661 8.85564631 147.678848 8.85564631 149.144196 9.53913917 150.228705 10.9061249 151.313214 12.2731106 151.855469 14.207572 151.855469 16.709509 151.855469 19.2215344 151.313214 21.1585179 150.228705 22.5204594 149.144196 23.8824009 147.678848 24.5633716 145.832661 24.5633716zM162.790346 27.892562L162.790346 5.5869867 158.159745 5.5869867 158.159745 27.892562 162.790346 27.892562zM181.291564 27.892562L181.291564 23.8824009 170.244706 23.8824009 170.244706 5.5869867 165.583839 5.5869867 165.583839 27.892562 181.291564 27.892562zM44.5962191 6.06146208C52.0681016 8.47380407 57.4725565 15.4859283 57.4725565 23.7603306 57.4725565 33.8544921 49.4295368 42.0701056 39.4025667 42.348102L39.092 42.3535537 38.9183478 42.3523643C28.8044727 42.1721638 20.661157 33.9172338 20.661157 23.7603306 20.661157 17.8498126 23.4187472 12.5833644 27.7175404 9.17737286 30.2928337 7.34956125 33.3107367 6.10403621 36.5790927 5.63313548 35.4240115 7.95688375 34.1886795 9.93015448 32.9999423 11.6818593 28.5283464 13.861843 25.4477631 18.4513324 25.4477631 23.7603306 25.4477631 31.1773778 31.460468 37.1900826 38.8775152 37.1900826 46.2945625 37.1900826 52.3072673 31.1773778 52.3072673 23.7603306 52.3072673 18.2859539 49.0317707 13.5766104 44.3337012 11.4852237 43.1585735 9.74266989 41.9436864 7.77740565 40.8085601 5.46606822 42.1078966 5.54526275 43.3741674 5.74818726 44.5962191 6.06146208zM18.6495377 27.3481045C18.7918993 29.3285171 19.2099425 31.232591 19.8654896 33.0221483L2.76509425 39.4144233C2.39183058 39.5539475 1.97160008 39.4663556 1.68518654 39.1892996 1.0183986 38.5444099.544481328 37.6071999.263434734 36.3776694-.0555077335 34.9823511-.0848406191 33.8036344.175436077 32.8415195.21492245 32.6955578.315824281 32.5757853.44938382 32.5112678L.533208406 32.4794204 18.6495377 27.3481045zM20.3937056 26.8538167C20.700478 28.738705 21.2829634 30.5310319 22.098421 32.1880566L20.3498422 32.8422726C19.6992116 31.065499 19.2886213 29.17301 19.1573462 27.2040804L20.3937056 26.8538167z"/>
    <g transform="translate(26.86 .517)">
      <path stroke="#626B77" stroke-width="1.033" d="M11.8796283,1.49882459 C14.0117455,7.04697721 16.7293626,10.8677048 18.9892201,14.0405599 C21.3591741,17.3679915 23.2438017,19.9460984 23.2438017,23.155715 C23.2438017,26.2966784 21.9718455,29.1403079 19.9153067,31.1986829 C17.8589347,33.2568909 15.0180941,34.5299587 11.8801653,34.5299587 C8.74223645,34.5299587 5.90139591,33.2568909 3.8450239,31.1986829 C1.78848513,29.1403079 0.516528926,26.2966784 0.516528926,23.155715 C0.516528926,19.9386023 2.40950497,17.3444946 4.78732143,14.0005435 C7.0435468,10.8275875 9.75270887,7.01248887 11.8796283,1.49882459 Z"/>
      <path fill="#626B77" d="M8.91012397,0 C9.8279793,1.96164663 10.286907,4.15237682 10.286907,6.57219056 C10.286907,8.30216535 10.0523438,9.91505288 9.58321732,11.4108532 C10.1470898,10.2626801 10.921495,9.19743119 11.9041959,8.21473029 C13.3582645,6.76066174 14.9930645,5.76263775 16.808596,5.22065833 C16.2666166,7.03618983 15.2685926,8.67098986 13.814524,10.1250584 C12.8380381,11.1015443 11.780045,11.8723609 10.6405447,12.4375082 C11.4911108,12.1986489 12.395145,12.0800488 13.3521974,12.0800488 C14.9877237,12.0800488 16.4684149,12.4264093 17.7942709,13.1191304 C16.4684149,13.8118514 14.9877237,14.1582119 13.3521974,14.1582119 C12.4855083,14.1582119 11.6622983,14.0609506 10.8825675,13.866428 C11.2928411,14.112973 11.6761118,14.4156351 12.0327757,14.7722989 C12.9119799,15.6515032 13.4630361,16.6923871 13.6859443,17.8949506 C12.4833807,17.6720425 11.4424968,17.1209863 10.5632925,16.2417821 C9.68828203,15.3667716 9.13829656,14.3316201 8.91333613,13.1363277 C8.68721583,14.3469447 8.13615964,15.3878286 7.2569554,16.2670329 C6.37775117,17.1462371 5.33686726,17.6972933 4.13430367,17.9202014 C4.35721181,16.7176378 4.908268,15.6767539 5.78747224,14.7975497 C6.14325689,14.441765 6.52551741,14.1397163 6.9342538,13.8914035 C6.1558531,14.0864489 5.33363605,14.1834626 4.4680505,14.1834626 C2.83252421,14.1834626 1.35183306,13.8371021 0.0259770378,13.1443811 C1.35183306,12.4516601 2.83252421,12.1052996 4.4680505,12.1052996 C5.42510297,12.1052996 6.32913713,12.2238996 7.18015296,12.4610997 C6.04015791,11.8975789 4.98218903,11.1267743 4.0057239,10.1503092 C2.55165535,8.69624063 1.55363136,7.06144061 1.01165194,5.24590911 C2.82718344,5.78788853 4.46198347,6.78591251 5.91605201,8.23998106 C6.91044728,9.23437632 7.69155985,10.313296 8.25938973,11.4767401 C7.77493465,9.96301252 7.53334096,8.32789987 7.53334096,6.57219056 C7.53334096,4.15237682 7.99226863,1.96164663 8.91012397,0 Z" transform="translate(2.97 13.365)"/>
    </g>
    <path fill="#626B77" fill-rule="nonzero" d="M66.4152893,49.7107438 L68.7706612,49.4938017 L68.8946281,46.7975207 C70.0929752,43.822314 71.1466942,41.7303719 72.0557851,40.5216942 C72.964876,39.3130165 73.9152893,38.6363636 74.9070248,38.4917355 L74.9070248,38.4917355 L75.1859504,38.5227273 L75.3719008,38.4297521 L75.8367769,35.3305785 L75.0929752,35.268595 C73.9979339,36.0743802 73.0216942,37.0299587 72.1642562,38.1353306 C71.3068182,39.2407025 70.5061983,40.5475207 69.7623967,42.0557851 L69.7623967,42.0557851 L69.5144628,42.0557851 L70.4442149,35.2376033 L68.1818182,35.4545455 L68.0268595,38.4607438 L66.4152893,49.7107438 Z M80.1549587,49.803719 C81.1466942,49.5971074 82.035124,49.2045455 82.8202479,48.6260331 C83.6053719,48.0475207 84.3285124,47.2520661 84.9896694,46.2396694 L84.9896694,46.2396694 L84.2458678,45.2789256 L83.8739669,45.2479339 C83.2128099,46.1570248 82.5981405,46.8181818 82.0299587,47.231405 C81.4617769,47.6446281 80.8677686,47.8512397 80.2479339,47.8512397 C79.5247934,47.8512397 78.9927686,47.5516529 78.6518595,46.9524793 C78.3109504,46.3533058 78.1404959,45.4028926 78.1404959,44.1012397 C80.661157,43.3161157 82.5619835,42.4018595 83.8429752,41.3584711 C85.1239669,40.3150826 85.7644628,39.1735537 85.7644628,37.9338843 C85.7644628,37.1487603 85.5320248,36.518595 85.0671488,36.0433884 C84.6022727,35.5681818 83.9256198,35.2789256 83.0371901,35.1756198 L83.0371901,35.1756198 L82.7892562,35.1446281 C81.4669421,35.1859504 80.2944215,35.6198347 79.2716942,36.446281 C78.2489669,37.2727273 77.4431818,38.4090909 76.8543388,39.8553719 C76.2654959,41.3016529 75.9710744,42.9338843 75.9710744,44.7520661 C75.9710744,46.3429752 76.2758264,47.5413223 76.8853306,48.3471074 C77.4948347,49.1528926 78.4607438,49.6384298 79.7830579,49.803719 L79.7830579,49.803719 L80.1549587,49.803719 Z M78.2334711,42.4586777 C78.4194215,40.7438017 78.8791322,39.375 79.6126033,38.3522727 C80.3460744,37.3295455 81.2396694,36.8181818 82.2933884,36.8181818 C83.2024793,36.8181818 83.6570248,37.2417355 83.6570248,38.088843 C83.6570248,38.9566116 83.197314,39.7572314 82.2778926,40.4907025 C81.3584711,41.2241736 80.0103306,41.8801653 78.2334711,42.4586777 Z M92.7169421,49.5867769 L97.3657025,41.6838843 C98.2747934,40.1342975 98.7293388,38.8119835 98.7293388,37.7169421 C98.7293388,36.8904959 98.4917355,36.0640496 98.0165289,35.2376033 L98.0165289,35.2376033 L95.8471074,35.7334711 L95.785124,36.0433884 C96.2809917,36.7665289 96.5289256,37.4586777 96.5289256,38.1198347 C96.5289256,38.8842975 96.1880165,39.8553719 95.5061983,41.0330579 L95.5061983,41.0330579 L92.035124,47.107438 L91.8181818,47.107438 L91.0433884,37.7169421 L90.9504132,35.2376033 L88.6260331,35.4545455 L90.1756198,49.5867769 L92.7169421,49.5867769 Z M103.605372,31.9214876 C104.018595,31.9214876 104.349174,31.7871901 104.597107,31.518595 C104.845041,31.25 104.969008,30.8987603 104.969008,30.464876 C104.969008,30.0516529 104.850207,29.731405 104.612603,29.5041322 C104.375,29.2768595 104.059917,29.1632231 103.667355,29.1632231 C103.233471,29.1632231 102.892562,29.2923554 102.644628,29.5506198 C102.396694,29.8088843 102.272727,30.1446281 102.272727,30.5578512 C102.272727,30.9710744 102.391529,31.3016529 102.629132,31.5495868 C102.866736,31.7975207 103.192149,31.9214876 103.605372,31.9214876 Z M100.165289,49.7107438 L102.520661,49.4938017 L102.644628,46.2086777 L104.194215,35.2376033 L101.900826,35.4545455 L101.77686,38.4607438 L100.165289,49.7107438 Z M110.619835,49.803719 C111.61157,49.5971074 112.5,49.2045455 113.285124,48.6260331 C114.070248,48.0475207 114.793388,47.2520661 115.454545,46.2396694 L115.454545,46.2396694 L114.710744,45.2789256 L114.338843,45.2479339 C113.677686,46.1570248 113.063017,46.8181818 112.494835,47.231405 C111.926653,47.6446281 111.332645,47.8512397 110.71281,47.8512397 C109.989669,47.8512397 109.457645,47.5516529 109.116736,46.9524793 C108.775826,46.3533058 108.605372,45.4028926 108.605372,44.1012397 C111.126033,43.3161157 113.02686,42.4018595 114.307851,41.3584711 C115.588843,40.3150826 116.229339,39.1735537 116.229339,37.9338843 C116.229339,37.1487603 115.996901,36.518595 115.532025,36.0433884 C115.067149,35.5681818 114.390496,35.2789256 113.502066,35.1756198 L113.502066,35.1756198 L113.254132,35.1446281 C111.931818,35.1859504 110.759298,35.6198347 109.73657,36.446281 C108.713843,37.2727273 107.908058,38.4090909 107.319215,39.8553719 C106.730372,41.3016529 106.43595,42.9338843 106.43595,44.7520661 C106.43595,46.3429752 106.740702,47.5413223 107.350207,48.3471074 C107.959711,49.1528926 108.92562,49.6384298 110.247934,49.803719 L110.247934,49.803719 L110.619835,49.803719 Z M108.698347,42.4586777 C108.884298,40.7438017 109.344008,39.375 110.077479,38.3522727 C110.81095,37.3295455 111.704545,36.8181818 112.758264,36.8181818 C113.667355,36.8181818 114.121901,37.2417355 114.121901,38.088843 C114.121901,38.9566116 113.66219,39.7572314 112.742769,40.4907025 C111.823347,41.2241736 110.475207,41.8801653 108.698347,42.4586777 Z M123.274793,49.5867769 L128.202479,38.5227273 L128.450413,38.5227273 L129.566116,49.5867769 L131.983471,49.5867769 L136.384298,41.6838843 C136.818182,40.8780992 137.14876,40.160124 137.376033,39.5299587 C137.603306,38.8997934 137.716942,38.2954545 137.716942,37.7169421 C137.716942,36.8285124 137.479339,36.0020661 137.004132,35.2376033 L137.004132,35.2376033 L134.865702,35.7334711 L134.772727,36.0433884 C135.268595,36.7665289 135.516529,37.4586777 135.516529,38.1198347 C135.516529,38.5330579 135.433884,38.9669421 135.268595,39.4214876 C135.103306,39.8760331 134.855372,40.4132231 134.524793,41.0330579 L134.524793,41.0330579 L131.332645,46.9524793 L131.146694,46.9524793 L130.18595,37.1280992 L130.092975,35.3615702 L127.644628,35.3615702 L126.931818,37.2520661 L122.592975,46.9524793 L122.376033,46.9524793 L121.415289,37.1280992 L121.384298,35.2376033 L119.090909,35.4545455 L120.764463,49.5867769 L123.274793,49.5867769 Z"/>
  </g>
</svg>
