<svg width="220" height="29" viewBox="0 0 220 29" fill="none" xmlns="http://www.w3.org/2000/svg">
<g clip-path="url(#clip0_697_504)">
<mask id="mask0_697_504" style="mask-type:luminance" maskUnits="userSpaceOnUse" x="0" y="0" width="220" height="29">
<path d="M220 0H0V29H220V0Z" fill="white"/>
</mask>
<g mask="url(#mask0_697_504)">
<path d="M37.6419 7.91049C38.4845 7.87676 39.3164 8.10778 40.0208 8.57105C40.6605 9.0215 41.1428 9.66109 41.3997 10.3997H44.9235C44.5679 8.8461 43.6704 7.46971 42.3915 6.51688C41.091 5.69221 39.5956 5.22515 38.0565 5.16291C36.5173 5.10068 34.989 5.44547 33.626 6.16244C32.4579 6.8315 31.5064 7.82118 30.8843 9.01411C30.2318 10.3473 29.8926 11.8116 29.8926 13.2956C29.8926 14.7796 30.2318 16.244 30.8843 17.5772C31.508 18.7732 32.4588 19.7676 33.626 20.4449C34.8544 21.1386 36.2472 21.4892 37.658 21.4599C39.3391 21.5216 40.9931 21.0228 42.3593 20.0422C43.6299 19.0969 44.5401 17.7472 44.9397 16.2158H41.4158C41.1638 16.9947 40.6552 17.6655 39.9728 18.119C39.2905 18.5724 38.4746 18.7818 37.658 18.713C37.0458 18.7408 36.4355 18.6257 35.8756 18.3769C35.3157 18.1279 34.8216 17.7521 34.4324 17.2791C33.6572 16.0979 33.2441 14.7161 33.2441 13.3037C33.2441 11.8912 33.6572 10.5095 34.4324 9.32831C34.8235 8.86285 35.3162 8.49308 35.8724 8.24732C36.4288 8.00156 37.0341 7.88634 37.6419 7.91049Z" fill="#626B77"/>
<path d="M58.1494 6.16256C56.8834 5.50323 55.4767 5.15894 54.049 5.15894C52.6212 5.15894 51.2145 5.50323 49.9484 6.16256C48.729 6.82253 47.7244 7.81773 47.0535 9.03034C46.3268 10.3344 45.9595 11.8077 45.9891 13.2998C45.959 14.7906 46.3146 16.2639 47.0212 17.5773C47.6814 18.7787 48.6646 19.772 49.8598 20.445C51.0931 21.1265 52.4824 21.4763 53.8918 21.46C55.3369 21.4762 56.7627 21.127 58.0366 20.445C59.2747 19.7814 60.3025 18.7853 61.0041 17.5692C61.744 16.2695 62.12 14.7948 62.0927 13.2998C62.121 11.8088 61.7566 10.3366 61.0363 9.03034C60.3655 7.82047 59.3643 6.82592 58.1494 6.16256ZM58.0688 16.232C57.6526 17.0039 57.0301 17.6454 56.2705 18.0848C55.5524 18.4991 54.7371 18.7159 53.9079 18.7131C53.0969 18.7201 52.2994 18.5056 51.6015 18.0929C50.8719 17.6575 50.2881 17.0154 49.9243 16.2481C49.4927 15.3265 49.2828 14.3169 49.3114 13.2998C49.2791 12.2815 49.5009 11.2711 49.9565 10.3595C50.3375 9.59823 50.9276 8.96114 51.658 8.52285C52.3657 8.11353 53.1707 7.90206 53.9885 7.91062C54.811 7.90502 55.6204 8.1162 56.335 8.52285C57.0833 8.95391 57.6909 9.5917 58.0849 10.3595C58.5501 11.2682 58.7776 12.2796 58.7462 13.2998C58.7792 14.3193 58.5457 15.33 58.0688 16.232Z" fill="#626B77"/>
<path d="M76.0506 7.7092C75.4494 6.94856 74.69 6.3274 73.825 5.88865C72.8247 5.38765 71.718 5.13613 70.5993 5.15559C69.2708 5.14066 67.9642 5.49485 66.8255 6.17865C65.6795 6.86291 64.7448 7.84964 64.124 9.03032C63.4508 10.3283 63.1126 11.7737 63.1402 13.2354C63.1167 14.7145 63.4543 16.1772 64.124 17.4967C64.7391 18.6952 65.6668 19.7056 66.8093 20.4208C67.8597 21.0468 69.0494 21.4018 70.2714 21.4538C71.4932 21.5058 72.709 21.2533 73.8088 20.7189C74.6953 20.2778 75.47 19.6415 76.0748 18.8581V21.2023H79.3729V5.41337H76.0506V7.7092ZM75.3732 16.1514C74.9824 16.9022 74.3914 17.5304 73.6657 17.9669C72.94 18.4032 72.1077 18.6309 71.2606 18.6245C70.4368 18.6272 69.6279 18.4042 68.9221 17.98C68.1668 17.5322 67.5522 16.882 67.148 16.1031C66.6809 15.2206 66.4477 14.2333 66.4706 13.2354C66.4465 12.2526 66.68 11.2807 67.148 10.4158C67.5552 9.66328 68.1639 9.03854 68.9059 8.61143C69.623 8.20237 70.4348 7.98848 71.2606 7.99115C72.1056 7.99027 72.9348 8.21925 73.6593 8.65352C74.3839 9.08781 74.9763 9.71095 75.3732 10.4562C75.8421 11.3292 76.0755 12.3093 76.0506 13.2998C76.0736 14.2927 75.8403 15.2747 75.3732 16.1514Z" fill="#626B77"/>
<path d="M88.873 7.91049C89.7156 7.87676 90.5476 8.10778 91.2518 8.57105C91.908 9.01194 92.4031 9.65365 92.6627 10.3997H96.1947C95.8329 8.84659 94.9336 7.47129 93.655 6.51688C92.3543 5.69221 90.859 5.22515 89.3198 5.16291C87.7807 5.10068 86.2524 5.44547 84.8894 6.16244C83.7213 6.8315 82.7698 7.82118 82.1477 9.0141C81.5004 10.3487 81.1641 11.8126 81.1641 13.2956C81.1641 14.7787 81.5004 16.2425 82.1477 17.5772C82.7713 18.7732 83.7221 19.7676 84.8894 20.4449C86.1178 21.1386 87.5106 21.4892 88.9214 21.4599C90.605 21.5215 92.2614 21.0228 93.6311 20.0422C94.8958 19.092 95.8053 17.7443 96.2112 16.2158H92.6627C92.4114 16.9947 91.9024 17.6655 91.2201 18.119C90.5377 18.5724 89.7219 18.7818 88.9052 18.713C88.2928 18.7427 87.6819 18.6285 87.1216 18.3795C86.5614 18.1304 86.0676 17.7535 85.6797 17.2791C84.9043 16.0979 84.4913 14.7161 84.4913 13.3037C84.4913 11.8912 84.9043 10.5095 85.6797 9.32831C86.0675 8.86318 86.5572 8.49342 87.111 8.24757C87.6646 8.00173 88.2675 7.8864 88.873 7.91049Z" fill="#626B77"/>
<path d="M109.395 5.92889C108.407 5.38998 107.297 5.11267 106.17 5.12333C105.21 5.11424 104.258 5.30063 103.372 5.67111C102.553 6.01975 101.831 6.56151 101.267 7.25V0H97.9932V21.2023H101.267V12.3814C101.195 11.2092 101.579 10.0544 102.34 9.1592C102.717 8.77565 103.172 8.47619 103.674 8.28045C104.175 8.08471 104.713 7.99709 105.25 8.02333C105.788 7.99566 106.325 8.08265 106.824 8.27852C107.325 8.47438 107.778 8.7746 108.154 9.1592C108.903 10.0601 109.28 11.2122 109.21 12.3814V21.2023H112.436V11.89C112.474 10.6205 112.197 9.36138 111.629 8.22472C111.129 7.25518 110.352 6.45606 109.395 5.92889Z" fill="#626B77"/>
<path d="M118.451 5.41333H115.177V21.2022H118.451V5.41333Z" fill="#626B77"/>
<path d="M132.49 5.92883C131.461 5.39067 130.314 5.11401 129.152 5.12327C128.236 5.11966 127.33 5.30619 126.491 5.67106C125.69 6.02471 124.988 6.56639 124.443 7.24994V5.41328H121.177V21.2021H124.443V12.3813C124.372 11.2081 124.759 10.0532 125.522 9.15915C126.313 8.42876 127.35 8.02306 128.426 8.02306C129.502 8.02306 130.539 8.42876 131.329 9.15915C132.084 10.0572 132.465 11.2107 132.393 12.3813V21.2021H135.619V11.89C135.665 10.6198 135.387 9.35861 134.812 8.22467C134.291 7.2408 133.48 6.43975 132.49 5.92883Z" fill="#626B77"/>
<path d="M150.344 7.70918C149.755 6.9397 148.996 6.31662 148.126 5.88863C147.124 5.39297 146.018 5.14175 144.901 5.15557C143.572 5.14064 142.265 5.49483 141.127 6.17863C139.984 6.86404 139.052 7.85068 138.433 9.03029C137.754 10.3263 137.413 11.7726 137.441 13.2353C137.417 14.7156 137.758 16.1791 138.433 17.4967C139.049 18.6974 139.98 19.7082 141.127 20.4208C142.263 21.1135 143.57 21.4735 144.901 21.46C146.022 21.4809 147.131 21.2206 148.126 20.7028C149.007 20.2536 149.777 19.6122 150.376 18.8258V21.46C150.417 22.1009 150.326 22.7434 150.109 23.3476C149.891 23.9519 149.551 24.5049 149.11 24.9723C148.683 25.383 148.177 25.7021 147.623 25.91C147.068 26.1178 146.476 26.2099 145.884 26.1806C144.859 26.2057 143.849 25.9433 142.965 25.4233C142.197 24.9814 141.622 24.269 141.352 23.4256H138.127C138.201 24.2429 138.457 25.0334 138.876 25.7399C139.294 26.4462 139.865 27.0508 140.546 27.5098C142.121 28.5634 143.99 29.0908 145.884 29.0161C147.327 29.0562 148.756 28.7203 150.029 28.0414C151.155 27.4222 152.076 26.4905 152.682 25.3589C153.304 24.1604 153.617 22.8259 153.593 21.4761V5.41334H150.295L150.344 7.70918ZM149.675 16.1514C149.265 16.9157 148.655 17.5536 147.908 17.9961C147.194 18.4123 146.381 18.6293 145.553 18.6244C144.731 18.6259 143.921 18.4031 143.215 17.98C142.46 17.5321 141.846 16.882 141.442 16.1031C140.974 15.2206 140.741 14.2333 140.764 13.2353C140.74 12.2526 140.973 11.2807 141.442 10.4158C141.849 9.66118 142.462 9.03597 143.207 8.6114C143.921 8.2023 144.731 7.98836 145.553 7.99113C146.382 7.98911 147.195 8.20888 147.908 8.62751C148.655 9.0704 149.265 9.70822 149.675 10.4723C150.137 11.3475 150.367 12.3265 150.344 13.3158C150.362 14.3022 150.132 15.2774 149.675 16.1514Z" fill="#626B77"/>
<path d="M168.359 7.91049C169.215 7.86818 170.062 8.09956 170.778 8.57105C171.417 9.01953 171.898 9.66009 172.148 10.3997H175.68C175.319 8.84659 174.419 7.47129 173.141 6.51688C171.84 5.69221 170.344 5.22515 168.805 5.16291C167.266 5.10068 165.738 5.44547 164.375 6.16244C163.208 6.83164 162.26 7.82148 161.641 9.0141C160.988 10.3473 160.649 11.8116 160.649 13.2956C160.649 14.7796 160.988 16.244 161.641 17.5772C162.262 18.7726 163.21 19.7671 164.375 20.4449C165.604 21.1386 166.996 21.4892 168.406 21.4599C170.09 21.5215 171.747 21.0228 173.116 20.0422C174.381 19.092 175.29 17.7443 175.697 16.2158H172.165C171.913 16.9947 171.404 17.6655 170.722 18.119C170.039 18.5724 169.223 18.7818 168.406 18.713C167.794 18.7427 167.183 18.6285 166.623 18.3795C166.063 18.1304 165.569 17.7535 165.181 17.2791C164.406 16.0979 163.993 14.7161 163.993 13.3037C163.993 11.8912 164.406 10.5095 165.181 9.32831C165.568 8.86538 166.055 8.49694 166.605 8.25119C167.156 8.00544 167.756 7.8889 168.359 7.91049Z" fill="#626B77"/>
<path d="M188.623 6.16256C187.357 5.50323 185.95 5.15894 184.523 5.15894C183.095 5.15894 181.688 5.50323 180.422 6.16256C179.201 6.82348 178.194 7.81825 177.519 9.03034C176.799 10.3366 176.434 11.8088 176.463 13.2998C176.433 14.7906 176.788 16.2639 177.495 17.5773C178.153 18.7805 179.137 19.7744 180.333 20.445C181.566 21.1275 182.956 21.4774 184.365 21.46C185.81 21.4752 187.236 21.1261 188.51 20.445C189.748 19.7814 190.776 18.7853 191.478 17.5692C192.218 16.2695 192.594 14.7948 192.567 13.2998C192.596 11.8077 192.229 10.3344 191.502 9.03034C190.835 7.81995 189.837 6.82499 188.623 6.16256ZM188.534 16.232C188.134 16.984 187.535 17.6124 186.804 18.0496C186.072 18.4868 185.234 18.7163 184.382 18.7131C183.568 18.7199 182.768 18.5055 182.068 18.0929C181.345 17.6532 180.768 17.0119 180.406 16.2481C179.974 15.3265 179.764 14.3169 179.793 13.2998C179.761 12.2815 179.983 11.2711 180.438 10.3595C180.817 9.59669 181.408 8.95901 182.139 8.52285C182.844 8.11456 183.647 7.90311 184.462 7.91062C185.287 7.90399 186.099 8.11518 186.816 8.52285C187.563 8.95642 188.17 9.59352 188.566 10.3595C189.032 11.2682 189.259 12.2796 189.228 13.2998C189.244 14.3244 188.991 15.3353 188.495 16.232H188.534Z" fill="#626B77"/>
<path d="M219.145 8.22476C218.623 7.24922 217.824 6.45024 216.848 5.92893C215.818 5.39077 214.671 5.11411 213.509 5.12337C212.367 5.10549 211.238 5.38298 210.235 5.92893C209.255 6.45843 208.465 7.28093 207.977 8.28115C207.466 7.29157 206.664 6.48198 205.679 5.96115C204.637 5.41524 203.475 5.13831 202.3 5.1556C201.39 5.14969 200.488 5.33637 199.655 5.70337C198.865 6.05032 198.168 6.58052 197.623 7.25004V5.41337H194.349V21.2023H197.623V12.3815C197.55 11.2092 197.934 10.0544 198.695 9.15921C199.073 8.77527 199.527 8.47554 200.029 8.27978C200.531 8.084 201.068 7.99662 201.607 8.02337C202.143 7.9953 202.677 8.08213 203.177 8.27805C203.676 8.47397 204.128 8.77443 204.502 9.15921C205.257 10.0573 205.638 11.2108 205.566 12.3815V21.2023H208.791V12.3815C208.719 11.2092 209.103 10.0544 209.864 9.15921C210.243 8.76464 210.703 8.45614 211.212 8.25462C211.721 8.05309 212.268 7.96324 212.815 7.99115C213.352 7.96348 213.889 8.05048 214.39 8.24634C214.89 8.44219 215.343 8.74242 215.718 9.12695C216.467 10.0279 216.846 11.1801 216.775 12.3492V21.17H220V11.89C220.035 10.6152 219.741 9.35297 219.145 8.22476Z" fill="#626B77"/>
<path d="M118.451 0H115.177V3.31889H118.451V0Z" fill="#626B77"/>
<path d="M159.479 17.8914H156.157V21.2103H159.479V17.8914Z" fill="#626B77"/>
<path d="M22.8451 1.90112V17.6739L19.3212 21.2023V5.42141H3.52394L7.04787 1.90112H22.8451ZM15.7892 24.7225L19.3212 21.2023H3.52394V5.42141L0 8.94168V24.7225H15.7892Z" fill="#626B77"/>
</g>
</g>
<defs>
<clipPath id="clip0_697_504">
<rect width="220" height="29" fill="white"/>
</clipPath>
</defs>
</svg>
