<svg xmlns="http://www.w3.org/2000/svg" width="267" height="49" viewBox="0 0 267 49">
  <path fill="#626B77" d="M73.8324176,12.0192308 L76.407967,12.0192308 C76.407967,12.0192308 76.5796703,12.0192308 76.5796703,12.1909341 C76.5796703,12.1909341 76.5796703,12.1909341 76.5796703,12.1909341 L76.5796703,18.7156593 C76.5796703,18.7156593 76.5796703,18.8873626 76.407967,18.8873626 L76.407967,18.8873626 L75.5494505,18.8873626 C73.8324176,18.7156593 71.9436813,19.2307692 70.5700549,20.4326923 C69.8832418,20.9478022 69.3681319,21.6346154 69.0247253,22.4931319 C68.5096154,23.6950549 68.3379121,24.896978 68.5096154,26.0989011 L68.5096154,37.7747253 L61.8131868,37.7747253 L61.8131868,24.5535714 C61.8131868,17.6854396 67.135989,12.3626374 73.8324176,12.0192308 Z M25.9271978,26.0989011 C23.0082418,31.0782967 16.6552198,32.6236264 11.8475275,29.7046703 C7.03983516,26.7857143 5.1510989,20.6043956 8.07005495,15.625 C10.989011,10.6456044 17.342033,9.10027473 22.1497253,12.0192308 C23.6950549,12.8777473 24.896978,14.2513736 25.7554945,15.625 L29.8763736,10.1304945 C24.0384615,2.91895604 13.3928571,1.88873626 6.18131868,7.89835165 C-1.03021978,13.907967 -2.06043956,24.5535714 3.77747253,31.7651099 C9.61538462,38.9766484 20.4326923,40.0068681 27.6442308,34.168956 C28.5027473,33.4821429 29.3612637,32.6236264 30.0480769,31.7651099 L25.9271978,26.0989011 Z M44.6428571,11.8475275 C37.4313187,11.8475275 31.7651099,17.6854396 31.7651099,24.7252747 C31.7651099,31.7651099 37.4313187,37.7747253 44.6428571,37.7747253 C51.8543956,37.7747253 57.5206044,31.9368132 57.5206044,24.896978 C57.5206044,24.896978 57.5206044,24.896978 57.5206044,24.896978 L57.5206044,24.896978 C57.5206044,17.6854396 51.8543956,11.8475275 44.6428571,11.8475275 Z M44.6428571,30.9065934 C41.3804945,30.9065934 38.6332418,28.1593407 38.6332418,24.896978 C38.6332418,21.6346154 41.3804945,18.8873626 44.6428571,18.8873626 C47.9052198,18.8873626 50.6524725,21.6346154 50.6524725,24.896978 C50.6524725,28.1593407 47.9052198,30.9065934 44.6428571,30.9065934 L44.6428571,30.9065934 Z M224.244505,12.3626374 L225.103022,12.3626374 C228.537088,12.3626374 231.799451,13.907967 234.031593,16.4835165 C236.092033,18.7156593 237.293956,21.8063187 237.293956,24.896978 L237.293956,37.603022 L230.769231,37.603022 C230.769231,37.603022 230.597527,37.603022 230.597527,37.603022 C230.597527,37.603022 230.597527,37.603022 230.597527,37.603022 L230.597527,24.896978 C230.597527,22.6648352 229.395604,20.7760989 227.335165,19.7458791 C226.648352,19.4024725 225.789835,19.2307692 224.931319,19.0590659 L224.416209,19.0590659 C222.355769,19.0590659 220.467033,20.260989 219.436813,22.1497253 C218.921703,23.3516484 218.578297,24.7252747 218.75,26.0989011 L218.75,37.4313187 L212.225275,37.4313187 C212.225275,37.4313187 212.053571,37.4313187 212.053571,37.4313187 C212.053571,37.4313187 212.053571,37.4313187 212.053571,37.4313187 L212.053571,24.5535714 C212.225275,17.8571429 217.548077,12.5343407 224.244505,12.1909341 L224.244505,12.3626374 Z M253.434066,10.989011 L254.292582,10.989011 C257.726648,10.989011 260.989011,12.5343407 263.221154,15.1098901 C265.281593,17.342033 266.483516,20.4326923 266.483516,23.5233516 L266.483516,36.4010989 C266.483516,40.521978 264.423077,44.2994505 260.989011,46.7032967 C258.928571,48.0769231 256.524725,48.9354396 253.949176,48.9354396 L246.565934,48.9354396 C246.565934,48.9354396 246.394231,48.9354396 246.394231,48.9354396 C246.394231,48.9354396 246.394231,48.9354396 246.394231,48.9354396 L246.394231,42.4107143 L253.949176,42.4107143 C256.181319,42.4107143 258.070055,41.2087912 259.100275,39.3200549 C259.443681,38.4615385 259.787088,37.603022 259.787088,36.7445055 L259.787088,35.0274725 C258.070055,35.885989 256.009615,36.4010989 253.949176,36.4010989 L253.777473,36.4010989 C250.686813,36.4010989 247.596154,35.1991758 245.364011,32.967033 C242.960165,30.7348901 241.414835,27.4725275 241.414835,24.2101648 L241.414835,23.3516484 C241.758242,16.3118132 246.909341,11.1607143 253.434066,10.989011 L253.434066,10.989011 Z M253.949176,17.6854396 L253.777473,17.6854396 C251.717033,17.6854396 249.828297,18.8873626 248.798077,20.7760989 C248.282967,21.6346154 248.111264,22.6648352 248.111264,23.5233516 C248.111264,25.7554945 249.48489,27.9876374 251.54533,28.8461538 C252.232143,29.1895604 253.090659,29.3612637 253.949176,29.3612637 L254.292582,29.3612637 C256.524725,29.3612637 258.413462,28.1593407 259.443681,26.0989011 C259.787088,25.2403846 260.130495,24.3818681 260.130495,23.5233516 L260.130495,23.1799451 C260.130495,20.0892857 257.726648,17.5137363 254.635989,17.5137363 L253.949176,17.6854396 L253.949176,17.6854396 Z M162.259615,4.29258242 L168.784341,4.29258242 C168.784341,4.29258242 168.956044,4.29258242 168.956044,4.46428571 L168.956044,12.5343407 L176.854396,12.5343407 C176.854396,12.5343407 177.026099,12.5343407 177.026099,12.706044 L177.026099,19.2307692 L169.127747,19.2307692 L169.127747,24.0384615 C168.956044,25.5837912 169.471154,27.1291209 170.32967,28.5027473 C171.531593,30.2197802 173.592033,31.25 175.652473,31.0782967 L177.026099,31.0782967 C177.026099,31.0782967 177.197802,31.0782967 177.197802,31.0782967 C177.197802,31.0782967 177.197802,31.0782967 177.197802,31.0782967 L177.197802,37.603022 L174.793956,37.603022 C168.269231,37.2596154 162.946429,32.1085165 162.774725,25.4120879 L162.259615,4.29258242 C162.431319,4.46428571 162.259615,4.29258242 162.259615,4.29258242 Z M181.490385,4.29258242 L188.01511,4.29258242 C188.01511,4.29258242 188.186813,4.29258242 188.186813,4.46428571 L188.186813,12.5343407 L196.085165,12.5343407 C196.085165,12.5343407 196.256868,12.5343407 196.256868,12.706044 L196.256868,19.2307692 L188.358516,19.2307692 L188.358516,24.0384615 C188.186813,25.5837912 188.53022,27.1291209 189.388736,28.5027473 C190.590659,30.2197802 192.651099,31.25 194.711538,31.0782967 L196.085165,31.0782967 C196.085165,31.0782967 196.256868,31.0782967 196.256868,31.0782967 C196.256868,31.0782967 196.256868,31.0782967 196.256868,31.0782967 L196.256868,37.603022 L193.853022,37.603022 C187.328297,37.2596154 182.005495,32.1085165 181.833791,25.4120879 L181.490385,4.29258242 C181.490385,4.46428571 181.490385,4.29258242 181.490385,4.29258242 Z M207.245879,12.5343407 L200.721154,12.5343407 C200.721154,12.5343407 200.549451,12.5343407 200.549451,12.706044 L200.549451,37.603022 L207.074176,37.603022 C207.074176,37.603022 207.245879,37.603022 207.245879,37.603022 C207.245879,37.603022 207.245879,37.603022 207.245879,37.603022 L207.245879,12.5343407 C207.245879,12.5343407 207.417582,12.5343407 207.245879,12.5343407 L207.245879,12.5343407 Z M203.983516,6.86813187 C205.872253,6.86813187 207.417582,5.3228022 207.417582,3.43406593 C207.417582,1.54532967 205.872253,0 203.983516,0 C202.09478,0 200.549451,1.54532967 200.549451,3.43406593 C200.549451,5.3228022 202.09478,6.86813187 203.983516,6.86813187 Z M125.51511,15.625 L129.635989,10.1304945 C127.918956,7.89835165 125.51511,6.35302198 123.111264,5.3228022 L118.990385,10.8173077 C121.737637,11.5041209 124.141484,13.2211538 125.51511,15.625 Z M116.586538,31.25 C112.809066,31.25 109.375,29.1895604 107.486264,25.9271978 L103.365385,31.4217033 C109.203297,38.6332418 119.848901,39.8351648 127.06044,33.9972527 C127.918956,33.3104396 128.777473,32.4519231 129.464286,31.5934066 L125.343407,26.0989011 C123.626374,29.3612637 120.192308,31.25 116.586538,31.25 Z M132.383242,12.5343407 L138.907967,12.5343407 C138.907967,12.5343407 139.07967,12.5343407 139.07967,12.706044 L139.07967,24.0384615 C138.907967,25.7554945 139.423077,27.3008242 140.281593,28.6744505 C141.311813,30.0480769 143.028846,30.9065934 144.745879,30.9065934 L145.089286,30.9065934 C147.321429,30.9065934 149.553571,29.532967 150.412088,27.4725275 C150.755495,26.7857143 150.755495,26.0989011 150.755495,25.2403846 L150.755495,12.706044 C150.755495,12.706044 150.755495,12.5343407 150.927198,12.5343407 L157.451923,12.5343407 C157.451923,12.5343407 157.623626,12.5343407 157.623626,12.706044 L157.623626,25.2403846 C157.623626,32.1085165 152.129121,37.7747253 145.260989,37.9464286 L144.917582,37.9464286 C138.221154,37.9464286 132.726648,32.6236264 132.554945,25.9271978 L132.383242,12.5343407 C132.211538,12.706044 132.211538,12.5343407 132.383242,12.5343407 Z M103.537088,20.7760989 L103.537088,4.46428571 C103.537088,4.46428571 103.537088,4.29258242 103.365385,4.29258242 L103.365385,4.29258242 L96.8406593,4.29258242 C96.8406593,4.29258242 96.668956,4.29258242 96.668956,4.46428571 C96.668956,4.46428571 96.668956,4.46428571 96.668956,4.46428571 L96.668956,14.0796703 C94.9519231,13.0494505 92.8914835,12.5343407 90.831044,12.5343407 C87.7403846,12.5343407 84.6497253,13.7362637 82.2458791,15.7967033 C79.6703297,18.0288462 78.125,21.2912088 78.125,24.7252747 L78.125,25.5837912 C78.125,28.8461538 79.4986264,31.9368132 81.9024725,34.168956 C84.3063187,36.4010989 87.396978,37.7747253 90.6593407,37.7747253 L103.537088,20.7760989 Z M84.9931319,25.4120879 L84.9931319,24.896978 C84.9931319,24.3818681 84.9931319,24.0384615 85.1648352,23.5233516 C86.1950549,20.4326923 89.4574176,18.7156593 92.7197802,19.7458791 C93.0631868,19.9175824 93.4065934,19.9175824 93.75,20.0892857 C95.6387363,21.1195055 96.8406593,23.0082418 96.8406593,25.2403846 L96.8406593,25.4120879 C96.8406593,26.0989011 96.668956,26.7857143 96.4972527,27.4725275 C95.6387363,29.7046703 93.4065934,31.25 91.0027473,31.25 C90.1442308,31.25 89.2857143,31.0782967 88.4271978,30.7348901 C86.3667582,29.7046703 84.9931319,27.6442308 84.9931319,25.4120879 Z"/>
</svg>
