<svg xmlns="http://www.w3.org/2000/svg" width="812" height="368" viewBox="0 0 812 368">
  <g fill="none" fill-rule="evenodd" transform="translate(7 6)">
    <g stroke="#283593" stroke-linecap="round" stroke-width="12.851">
      <path stroke-linejoin="round" d="M127.00109 46.5046395L166.836665 10.1158144C180.533705-2.3960976 201.516783-2.3960976 215.213823 10.1158144L399 178 215.213823 345.884186C201.516783 358.396098 180.533705 358.396098 166.836665 345.884186L124.547613 307.254169M89.5609996 275.294752L12.0182274 204.461323 12.0182274 204.461323C-2.60103757 191.106981-3.62269756 168.434011 9.73628592 153.819826 10.4623016 153.025594 11.2237196 152.26444 12.0182274 151.538677L95.6314883 75.1600045M544.358306 45.218736L556.265503 34.3418029 582.786177 10.1158144 582.786177 10.1158144C596.483217-2.3960976 617.466295-2.3960976 631.163335 10.1158144L631.163335 10.1158144 785.981773 151.538677 785.981773 151.538677C800.601038 164.893019 801.622698 187.565989 788.263714 202.180174 787.537698 202.974406 786.77628 203.73556 785.981773 204.461323L631.163335 345.884186 631.163335 345.884186C617.466295 358.396098 596.483217 358.396098 582.786177 345.884186L554.161848 319.73656M513.74584 282.817523L399 178 506.911237 79.4257194"/>
      <path d="M76.2805508,104.396007 L99.2462053,83.0590362 C102.147867,80.3631553 102.314685,75.8254505 99.6188041,72.9237889 C99.4470325,72.7389057 99.2656216,72.5632182 99.0753287,72.3974596 L76.2805508,52.5416004 L76.2805508,52.5416004" transform="rotate(-45 90.683 78.469)"/>
      <path d="M492.230063,104.396007 L515.195718,83.0590362 C518.097379,80.3631553 518.264197,75.8254505 515.568316,72.9237889 C515.396545,72.7389057 515.215134,72.5632182 515.024841,72.3974596 L492.230063,52.5416004 L492.230063,52.5416004" transform="rotate(-45 506.633 78.469)"/>
      <path d="M492.230063,305.129447 L515.195718,283.792476 C518.097379,281.096595 518.264197,276.55889 515.568316,273.657228 C515.396545,273.472345 515.215134,273.296657 515.024841,273.130899 L492.230063,253.27504 L492.230063,253.27504" transform="rotate(45 506.633 279.202)"/>
      <path d="M74.6741251,303.525843 L97.6397796,282.188872 C100.541441,279.492991 100.708259,274.955286 98.0123784,272.053625 C97.8406068,271.868741 97.6591959,271.693054 97.468903,271.527295 L74.6741251,251.671436 L74.6741251,251.671436" transform="rotate(45 89.077 277.599)"/>
    </g>
    <path fill="#FFF" d="M82.5170418,113.190935 L82.5170418,133.781206 L92.849572,133.781206 L92.0013792,140.593314 L73.5724635,140.593314 L73.5724635,113.190935 L82.5170418,113.190935 Z M103.863227,132.395692 C103.914632,132.960163 104.049571,133.421997 104.268046,133.781206 C104.486521,134.140415 104.794951,134.42906 105.193347,134.647152 C105.591743,134.865243 106.112219,135.019187 106.754793,135.108989 C107.397366,135.198792 108.168443,135.243692 109.068046,135.243692 C111.072875,135.243692 113.141931,135.012775 115.275275,134.550935 L114.195757,139.97753 C113.450371,140.259766 112.460823,140.509925 111.227082,140.728016 C109.993341,140.946108 108.592552,141.055152 107.024672,141.055152 C105.019843,141.055152 103.323474,140.849892 101.935516,140.439368 C100.547557,140.028843 99.4294959,139.406651 98.5812989,138.572773 C97.7331019,137.738895 97.1162406,136.693356 96.7306965,135.436125 C96.3451524,134.178893 96.1523832,132.716421 96.1523832,131.048665 L96.1523832,129.778611 C96.1523832,128.316117 96.3708549,126.969104 96.8078049,125.73753 C97.2447549,124.505956 97.8873187,123.447588 98.7355157,122.562395 C99.5837127,121.677201 100.643943,120.990866 101.916239,120.503368 C103.188534,120.01587 104.660005,119.772125 106.330696,119.772125 C108.02709,119.772125 109.48571,119.983798 110.7066,120.407152 C111.92749,120.830505 112.923464,121.414211 113.694552,122.158287 C114.46564,122.902362 115.037522,123.787543 115.410215,124.813854 C115.782907,125.840166 115.969251,126.956263 115.969251,128.162179 L115.969251,129.162827 C115.969251,129.675983 115.930697,130.137816 115.853588,130.548341 C115.776479,130.958865 115.615838,131.298826 115.37166,131.568233 C115.127482,131.837639 114.793349,132.042899 114.369251,132.184016 C113.945152,132.325134 113.386122,132.395692 112.692142,132.395692 L103.863227,132.395692 Z M106.292142,125.429638 C105.598163,125.429638 105.026281,125.666969 104.57648,126.141638 C104.126678,126.616307 103.876078,127.3283 103.824672,128.277638 L108.528287,128.277638 L108.528287,127.777314 C108.528287,126.956265 108.322666,126.35973 107.911419,125.987692 C107.500172,125.615654 106.960419,125.429638 106.292142,125.429638 Z M127.291339,134.16607 C127.291339,134.730542 127.445554,135.147475 127.75399,135.416881 C128.062425,135.686288 128.627881,135.820989 129.450375,135.820989 C130.144355,135.820989 130.664831,135.705531 131.011821,135.474611 C131.358811,135.243691 131.532303,134.820344 131.532303,134.204557 L131.532303,133.819692 C131.532303,133.357852 131.378088,133.005063 131.069652,132.761314 C130.761217,132.517565 130.337125,132.395692 129.797363,132.395692 L128.833508,132.395692 C128.293746,132.395692 127.901782,132.549636 127.657604,132.85753 C127.413426,133.165423 127.291339,133.537456 127.291339,133.973638 L127.291339,134.16607 Z M119.580496,134.589422 C119.580496,132.459826 120.17808,130.849824 121.373267,129.759368 C122.568453,128.668912 124.412612,128.123692 126.905797,128.123692 C127.8054,128.123692 128.640733,128.207079 129.411821,128.373854 C130.182909,128.54063 130.876878,128.842104 131.493749,129.278287 L131.493749,128.931908 C131.493749,128.264806 131.397364,127.726 131.204592,127.315476 C131.01182,126.904951 130.729092,126.584234 130.356399,126.353314 C129.983707,126.122394 129.533912,125.968449 129.007002,125.891476 C128.480091,125.814503 127.882507,125.776016 127.214231,125.776016 C126.211816,125.776016 125.190139,125.833746 124.14917,125.949206 C123.108201,126.064666 122.13793,126.199367 121.238327,126.353314 L122.125074,120.541854 C122.998974,120.36225 124.110609,120.189062 125.460014,120.022287 C126.809418,119.855511 128.152377,119.772125 129.488929,119.772125 C131.031106,119.772125 132.419044,119.926069 133.652785,120.233962 C134.886526,120.541856 135.933905,121.035761 136.794953,121.715692 C137.656002,122.395623 138.317843,123.267975 138.780496,124.332773 C139.243149,125.397571 139.474472,126.686856 139.474472,128.200665 L139.474472,140.593314 L132.41905,140.593314 L132.072062,138.938395 C130.684103,140.298257 128.807817,140.978179 126.443146,140.978179 C125.235108,140.978179 124.20058,140.824234 123.339532,140.516341 C122.478483,140.208447 121.765237,139.7851 121.199773,139.246287 C120.634308,138.707473 120.223067,138.059624 119.966038,137.302719 C119.709008,136.545814 119.580496,135.705535 119.580496,134.781854 L119.580496,134.589422 Z M159.239933,127.007584 C158.854389,126.879295 158.456,126.776665 158.044753,126.699692 C157.633506,126.622719 157.17086,126.584233 156.656801,126.584233 C155.500169,126.584233 154.651984,126.90495 154.112223,127.546395 C153.572461,128.187839 153.302584,129.07302 153.302584,130.201962 L153.302584,140.593314 L144.627885,140.593314 L144.627885,120.233962 L152.223066,120.233962 L152.608608,121.927368 C154.02227,120.618821 155.654382,119.964557 157.504994,119.964557 C158.019052,119.964557 158.539529,120.015872 159.066439,120.118503 C159.59335,120.221134 160.088124,120.349421 160.550777,120.503368 L159.239933,127.007584 Z M164.277684,140.593314 L164.277684,120.233962 L171.872865,120.233962 L172.258407,122.004341 C173.055198,121.260265 173.896957,120.702216 174.783709,120.330179 C175.67046,119.958141 176.704988,119.772125 177.887323,119.772125 C178.915441,119.772125 179.853584,119.906826 180.701781,120.176233 C181.549978,120.445639 182.282501,120.868986 182.899371,121.446287 C183.516242,122.023587 183.991739,122.754823 184.325877,123.640016 C184.660015,124.52521 184.827082,125.570749 184.827082,126.776665 L184.827082,140.593314 L176.152383,140.593314 L176.152383,128.277638 C176.152383,127.610536 176.043147,127.084559 175.824672,126.699692 C175.606197,126.314825 175.214233,126.122395 174.648769,126.122395 C174.031898,126.122395 173.594955,126.340483 173.337925,126.776665 C173.080896,127.212847 172.952383,127.956912 172.952383,129.008881 L172.952383,140.593314 L164.277684,140.593314 Z" transform="rotate(-43 129.2 127.123)"/>
    <path fill="#283593" d="M151.682745,249.657041 C153.30203,250.144539 154.71567,250.478085 155.923709,250.657689 C157.131747,250.837294 158.301213,250.927095 159.432142,250.927095 C160.614478,250.927095 161.475513,250.792393 162.015275,250.522987 C162.555037,250.25358 162.824913,249.785332 162.824913,249.11823 C162.824913,248.733363 162.767083,248.431889 162.651419,248.213798 C162.535756,247.995706 162.381541,247.828933 162.188769,247.713473 C161.995997,247.598013 161.771099,247.508212 161.51407,247.444068 C161.257041,247.379923 160.987164,247.322194 160.704431,247.270879 L158.236962,246.809041 C157.106032,246.603779 156.084356,246.270232 155.171901,245.808392 C154.259447,245.346552 153.475519,244.782089 152.820094,244.114987 C152.164669,243.447884 151.657044,242.665334 151.297203,241.767311 C150.937361,240.869289 150.757444,239.881479 150.757444,238.803852 L150.757444,238.3805 C150.757444,236.866691 151.033746,235.558163 151.586359,234.454879 C152.138972,233.351594 152.9229,232.44717 153.938166,231.741581 C154.953433,231.035992 156.174304,230.510016 157.600817,230.163635 C159.02733,229.817255 160.627314,229.644068 162.400817,229.644068 C163.891588,229.644068 165.363059,229.759526 166.815275,229.990446 C168.267491,230.221366 169.623301,230.567741 170.882745,231.029581 L169.494793,237.495311 C168.183943,237.110444 166.95022,236.841042 165.793588,236.687095 C164.636956,236.533148 163.621705,236.456176 162.747805,236.456176 C161.488361,236.456176 160.595197,236.584463 160.068287,236.841041 C159.541377,237.097619 159.277925,237.546623 159.277925,238.188068 C159.277925,238.62425 159.464269,238.970625 159.836962,239.227203 C160.209654,239.483781 160.82009,239.68904 161.668287,239.842987 L163.904431,240.266338 C165.318093,240.548574 166.519688,240.939849 167.509251,241.440176 C168.498814,241.940503 169.302019,242.537037 169.918889,243.229798 C170.53576,243.922558 170.985555,244.711523 171.268287,245.596716 C171.551019,246.48191 171.692383,247.437648 171.692383,248.46396 L171.692383,248.848825 C171.692383,250.41395 171.422506,251.760963 170.882745,252.889906 C170.342983,254.018848 169.552629,254.948929 168.51166,255.680176 C167.470691,256.411423 166.204841,256.950228 164.71407,257.296608 C163.2233,257.642988 161.539782,257.816176 159.663468,257.816176 C158.224103,257.816176 156.707652,257.687889 155.11407,257.431311 C153.520488,257.174733 151.914078,256.751386 150.294793,256.161257 L151.682745,249.657041 Z M173.76146,237.07196 L183.168688,237.07196 L185.983146,249.079744 L188.219291,237.07196 L197.395195,237.07196 L189.877122,258.085581 C189.260252,259.804653 188.611262,261.21581 187.930134,262.319095 C187.249006,263.42238 186.510058,264.288317 185.713267,264.916933 C184.916476,265.545548 184.049014,265.981724 183.110857,266.225473 C182.1727,266.469222 181.151023,266.591095 180.045797,266.591095 C178.966273,266.591095 177.963874,266.507708 177.038568,266.340933 C176.113262,266.174157 175.200822,265.949655 174.301219,265.667419 L175.457845,259.932933 C175.971904,260.086879 176.485955,260.202338 177.000014,260.279311 C177.514073,260.356284 177.976719,260.394771 178.387966,260.394771 C179.364677,260.394771 180.116477,260.170268 180.643387,259.721257 C181.170298,259.272246 181.575113,258.483281 181.857845,257.354338 L173.76146,237.07196 Z M201.122102,257.431311 L201.122102,237.07196 L208.717283,237.07196 L209.102825,238.842338 C209.899616,238.098262 210.741375,237.540214 211.628126,237.168176 C212.514878,236.796138 213.549405,236.610122 214.731741,236.610122 C215.759858,236.610122 216.698002,236.744823 217.546199,237.01423 C218.394396,237.283637 219.126918,237.706984 219.743789,238.284284 C220.360659,238.861584 220.836157,239.59282 221.170295,240.478014 C221.504433,241.363207 221.6715,242.408746 221.6715,243.614662 L221.6715,257.431311 L212.996801,257.431311 L212.996801,245.115635 C212.996801,244.448533 212.887565,243.922556 212.66909,243.537689 C212.450615,243.152823 212.058651,242.960392 211.493186,242.960392 C210.876316,242.960392 210.439373,243.17848 210.182343,243.614662 C209.925314,244.050845 209.796801,244.794909 209.796801,245.846879 L209.796801,257.431311 L201.122102,257.431311 Z M236.887564,243.191311 L236.887564,249.002771 C236.887564,250.850131 237.761451,251.773798 239.509251,251.773798 C239.946201,251.773798 240.421698,251.74814 240.935757,251.696825 C241.449816,251.645509 241.951015,251.581366 242.439371,251.504392 L241.668287,257.123419 C241.00001,257.328681 240.209657,257.495455 239.297203,257.623744 C238.384748,257.752032 237.465882,257.816176 236.540576,257.816176 C234.869885,257.816176 233.501224,257.617331 232.434552,257.219635 C231.36788,256.82194 230.519696,256.257477 229.889974,255.52623 C229.260252,254.794983 228.823308,253.916217 228.57913,252.889906 C228.334952,251.863594 228.212865,250.709011 228.212865,249.426122 L228.212865,243.191311 L224.704431,243.191311 L225.475516,237.07196 L228.251419,237.07196 L228.251419,232.492068 L236.887564,231.452933 L236.887564,237.07196 L242.208046,237.07196 L241.475516,243.191311 L236.887564,243.191311 Z M246.975917,257.431311 L246.975917,228.835852 L255.727725,228.835852 L255.727725,238.226554 C256.421704,237.662083 257.160652,237.251565 257.944592,236.994987 C258.728532,236.738409 259.621696,236.610122 260.62411,236.610122 C261.857851,236.610122 262.911656,236.789724 263.785556,237.148933 C264.659456,237.508142 265.372702,238.002047 265.925315,238.630662 C266.477928,239.259278 266.882743,239.996928 267.139773,240.843635 C267.396802,241.690342 267.525315,242.614009 267.525315,243.614662 L267.525315,257.431311 L258.850616,257.431311 L258.850616,245.077149 C258.850616,244.384389 258.734955,243.858412 258.503628,243.499203 C258.272302,243.139994 257.886763,242.960392 257.347002,242.960392 C256.755834,242.960392 256.325316,243.17848 256.055435,243.614662 C255.785555,244.050845 255.650616,244.782081 255.650616,245.808392 L255.650616,257.431311 L246.975917,257.431311 Z M279.695596,249.233689 C279.747002,249.798161 279.88194,250.259994 280.100415,250.619203 C280.31889,250.978412 280.627321,251.267058 281.025717,251.485149 C281.424112,251.70324 281.944589,251.857184 282.587162,251.946987 C283.229736,252.036789 284.000813,252.081689 284.900415,252.081689 C286.905245,252.081689 288.9743,251.850773 291.107644,251.388933 L290.028126,256.815527 C289.282741,257.097763 288.293193,257.347923 287.059452,257.566014 C285.82571,257.784105 284.424921,257.893149 282.857042,257.893149 C280.852213,257.893149 279.155844,257.68789 277.767885,257.277365 C276.379927,256.866841 275.261865,256.244649 274.413668,255.410771 C273.565471,254.576892 272.94861,253.531353 272.563066,252.274122 C272.177522,251.01689 271.984753,249.554419 271.984753,247.886662 L271.984753,246.616608 C271.984753,245.154115 272.203224,243.807101 272.640174,242.575527 C273.077124,241.343954 273.719688,240.285586 274.567885,239.400392 C275.416082,238.515199 276.476313,237.828863 277.748608,237.341365 C279.020904,236.853867 280.492375,236.610122 282.163066,236.610122 C283.85946,236.610122 285.31808,236.821795 286.53897,237.245149 C287.759859,237.668502 288.755833,238.252208 289.526921,238.996284 C290.29801,239.74036 290.869891,240.62554 291.242584,241.651852 C291.615277,242.678163 291.80162,243.79426 291.80162,245.000176 L291.80162,246.000825 C291.80162,246.51398 291.763066,246.975814 291.685958,247.386338 C291.608849,247.796863 291.448208,248.136823 291.20403,248.40623 C290.959852,248.675637 290.625719,248.880896 290.20162,249.022014 C289.777522,249.163132 289.218491,249.233689 288.524512,249.233689 L279.695596,249.233689 Z M282.124512,242.267635 C281.430532,242.267635 280.858651,242.504966 280.408849,242.979635 C279.959048,243.454304 279.708448,244.166297 279.657042,245.115635 L284.360656,245.115635 L284.360656,244.615311 C284.360656,243.794262 284.155036,243.197727 283.743789,242.825689 C283.332542,242.453652 282.792788,242.267635 282.124512,242.267635 Z M312.685154,243.306771 C311.657037,242.998877 310.609658,242.761546 309.542986,242.594771 C308.476314,242.427995 307.403232,242.344608 306.323709,242.344608 C305.526917,242.344608 304.935759,242.415166 304.550215,242.556284 C304.164671,242.697402 303.971901,242.947562 303.971901,243.306771 C303.971901,243.589006 304.06186,243.794265 304.241781,243.922554 C304.421701,244.050843 304.730132,244.140644 305.167082,244.19196 L308.367082,244.576825 C309.498011,244.730771 310.436155,244.980931 311.18154,245.327311 C311.926925,245.673691 312.52451,246.109867 312.974311,246.635852 C313.424112,247.161836 313.745394,247.764785 313.938166,248.444716 C314.130938,249.124648 314.227323,249.849469 314.227323,250.619203 L314.227323,251.081041 C314.227323,253.467215 313.353436,255.186261 311.605636,256.23823 C309.857836,257.290199 307.197622,257.816176 303.624913,257.816176 C302.10844,257.816176 300.681948,257.719961 299.345395,257.527527 C298.008842,257.335094 296.800822,257.072106 295.721299,256.738554 L297.032142,251.234987 C297.931745,251.465907 298.94057,251.67758 300.058648,251.870014 C301.176726,252.062447 302.326916,252.158662 303.509251,252.158662 C304.280339,252.158662 304.884349,252.107348 305.321299,252.004716 C305.758249,251.902085 305.976721,251.645511 305.976721,251.234987 C305.976721,250.696173 305.719695,250.388284 305.205636,250.311311 L302.391178,249.964933 C300.30924,249.708355 298.722108,249.06692 297.629733,248.040608 C296.537358,247.014297 295.991178,245.705769 295.991178,244.114987 L295.991178,243.653149 C295.991178,241.31829 296.832937,239.573587 298.51648,238.418987 C300.200022,237.264386 302.686744,236.687095 305.976721,236.687095 C307.416085,236.687095 308.810449,236.802553 310.159853,237.033473 C311.509257,237.264393 312.78796,237.585111 313.995998,237.995635 L312.685154,243.306771 Z M318.918086,237.07196 L327.592785,237.07196 L327.592785,257.431311 L318.918086,257.431311 L318.918086,237.07196 Z M323.236158,235.686446 C321.539764,235.686446 320.325319,235.417043 319.592785,234.87823 C318.860251,234.339416 318.49399,233.41575 318.49399,232.107203 C318.49399,230.798656 318.860251,229.868575 319.592785,229.316933 C320.325319,228.76529 321.539764,228.489473 323.236158,228.489473 C324.932552,228.489473 326.153424,228.76529 326.898809,229.316933 C327.644194,229.868575 328.016881,230.798656 328.016881,232.107203 C328.016881,233.41575 327.644194,234.339416 326.898809,234.87823 C326.153424,235.417043 324.932552,235.686446 323.236158,235.686446 Z M342.423307,251.427419 L351.020897,251.427419 L350.211259,257.431311 L332.360656,257.431311 L332.360656,252.428068 L340.225717,243.191311 L332.20644,243.191311 L332.977524,237.07196 L350.326921,237.07196 L350.326921,242.113689 L342.423307,251.427419 Z M362.188769,249.233689 C362.240175,249.798161 362.375113,250.259994 362.593588,250.619203 C362.812063,250.978412 363.120494,251.267058 363.518889,251.485149 C363.917285,251.70324 364.437762,251.857184 365.080335,251.946987 C365.722909,252.036789 366.493985,252.081689 367.393588,252.081689 C369.398417,252.081689 371.467473,251.850773 373.600817,251.388933 L372.521299,256.815527 C371.775914,257.097763 370.786365,257.347923 369.552624,257.566014 C368.318883,257.784105 366.918094,257.893149 365.350215,257.893149 C363.345385,257.893149 361.649017,257.68789 360.261058,257.277365 C358.873099,256.866841 357.755038,256.244649 356.906841,255.410771 C356.058644,254.576892 355.441783,253.531353 355.056239,252.274122 C354.670695,251.01689 354.477925,249.554419 354.477925,247.886662 L354.477925,246.616608 C354.477925,245.154115 354.696397,243.807101 355.133347,242.575527 C355.570297,241.343954 356.212861,240.285586 357.061058,239.400392 C357.909255,238.515199 358.969485,237.828863 360.241781,237.341365 C361.514076,236.853867 362.985548,236.610122 364.656239,236.610122 C366.352633,236.610122 367.811253,236.821795 369.032142,237.245149 C370.253032,237.668502 371.249006,238.252208 372.020094,238.996284 C372.791182,239.74036 373.363064,240.62554 373.735757,241.651852 C374.108449,242.678163 374.294793,243.79426 374.294793,245.000176 L374.294793,246.000825 C374.294793,246.51398 374.256239,246.975814 374.17913,247.386338 C374.102021,247.796863 373.94138,248.136823 373.697203,248.40623 C373.453025,248.675637 373.118891,248.880896 372.694793,249.022014 C372.270694,249.163132 371.711664,249.233689 371.017684,249.233689 L362.188769,249.233689 Z M364.617684,242.267635 C363.923705,242.267635 363.351823,242.504966 362.902022,242.979635 C362.45222,243.454304 362.20162,244.166297 362.150215,245.115635 L366.853829,245.115635 L366.853829,244.615311 C366.853829,243.794262 366.648209,243.197727 366.236962,242.825689 C365.825715,242.453652 365.285961,242.267635 364.617684,242.267635 Z" transform="rotate(-43 262.295 247.54)"/>
    <path fill="#283593" d="M477.586468,122.040771 L468.64189,122.040771 L468.64189,94.6383928 L477.586468,94.6383928 L477.586468,122.040771 Z M490.990484,112.611582 C490.990484,113.278684 491.035464,113.830319 491.125424,114.266501 C491.215384,114.702683 491.343897,115.049058 491.510966,115.305636 C491.678035,115.562214 491.87723,115.741816 492.108556,115.844447 C492.339883,115.947078 492.60976,115.998393 492.918195,115.998393 C493.586471,115.998393 494.07482,115.754647 494.383255,115.26715 C494.691691,114.779652 494.845906,113.997101 494.845906,112.919474 L494.845906,107.762285 C494.717391,107.685311 494.531048,107.614753 494.28687,107.550609 C494.042692,107.486465 493.740687,107.454393 493.380846,107.454393 C492.558352,107.454393 491.954342,107.723795 491.568797,108.262609 C491.183253,108.801423 490.990484,109.660945 490.990484,110.841204 L490.990484,112.611582 Z M482.431448,111.880339 C482.431448,108.339564 483.170396,105.677609 484.648316,103.894393 C486.126235,102.111177 488.265972,101.219582 491.067593,101.219582 C491.787275,101.219582 492.461967,101.29014 493.091689,101.431258 C493.721411,101.572375 494.254739,101.784049 494.691689,102.066285 L494.691689,93.4453117 L503.443496,93.4453117 L503.443496,122.040771 L495.809761,122.040771 L495.462773,120.231906 C494.100518,121.745716 492.365595,122.502609 490.257954,122.502609 C488.869995,122.502609 487.681252,122.265278 486.691689,121.790609 C485.702126,121.31594 484.892495,120.636019 484.262773,119.750825 C483.633051,118.865632 483.170405,117.788021 482.874822,116.51796 C482.579238,115.2479 482.431448,113.830329 482.431448,112.265204 L482.431448,111.880339 Z M515.922211,113.84315 C515.973617,114.407621 516.108555,114.869454 516.32703,115.228663 C516.545505,115.587872 516.853936,115.876518 517.252332,116.094609 C517.650727,116.3127 518.171204,116.466645 518.813777,116.556447 C519.456351,116.646249 520.227427,116.69115 521.12703,116.69115 C523.13186,116.69115 525.200915,116.460233 527.334259,115.998393 L526.254741,121.424987 C525.509356,121.707223 524.519808,121.957383 523.286067,122.175474 C522.052325,122.393565 520.651536,122.502609 519.083657,122.502609 C517.078828,122.502609 515.382459,122.29735 513.9945,121.886825 C512.606541,121.476301 511.48848,120.854109 510.640283,120.020231 C509.792086,119.186353 509.175225,118.140813 508.789681,116.883582 C508.404137,115.62635 508.211368,114.163879 508.211368,112.496123 L508.211368,111.226068 C508.211368,109.763575 508.429839,108.416561 508.866789,107.184987 C509.303739,105.953414 509.946303,104.895046 510.7945,104.009852 C511.642697,103.124659 512.702928,102.438323 513.975223,101.950825 C515.247519,101.463327 516.71899,101.219582 518.389681,101.219582 C520.086075,101.219582 521.544695,101.431256 522.765585,101.854609 C523.986474,102.277962 524.982448,102.861668 525.753536,103.605744 C526.524625,104.34982 527.096506,105.235 527.469199,106.261312 C527.841892,107.287623 528.028235,108.40372 528.028235,109.609636 L528.028235,110.610285 C528.028235,111.12344 527.989681,111.585274 527.912573,111.995798 C527.835464,112.406323 527.674823,112.746283 527.430645,113.01569 C527.186467,113.285097 526.852334,113.490356 526.428235,113.631474 C526.004137,113.772592 525.445106,113.84315 524.751127,113.84315 L515.922211,113.84315 Z M518.351127,106.877095 C517.657147,106.877095 517.085266,107.114426 516.635464,107.589095 C516.185663,108.063765 515.935063,108.775757 515.883657,109.725095 L520.587271,109.725095 L520.587271,109.224771 C520.587271,108.403722 520.381651,107.807187 519.970404,107.43515 C519.559157,107.063112 519.019403,106.877095 518.351127,106.877095 Z M539.350324,115.613528 C539.350324,116.177999 539.504539,116.594932 539.812974,116.864339 C540.121409,117.133745 540.686866,117.268447 541.50936,117.268447 C542.203339,117.268447 542.723816,117.152989 543.070805,116.922068 C543.417795,116.691148 543.591287,116.267801 543.591287,115.652014 L543.591287,115.26715 C543.591287,114.805309 543.437072,114.45252 543.128637,114.208771 C542.820202,113.965022 542.396109,113.84315 541.856348,113.84315 L540.892492,113.84315 C540.35273,113.84315 539.960767,113.997094 539.716589,114.304987 C539.472411,114.612881 539.350324,114.984913 539.350324,115.421095 L539.350324,115.613528 Z M531.63948,116.036879 C531.63948,113.907283 532.237065,112.297281 533.432251,111.206825 C534.627438,110.116369 536.471596,109.57115 538.964781,109.57115 C539.864384,109.57115 540.699717,109.654536 541.470805,109.821312 C542.241894,109.988087 542.935863,110.289562 543.552733,110.725744 L543.552733,110.379366 C543.552733,109.712263 543.456349,109.173458 543.263577,108.762933 C543.070804,108.352409 542.788076,108.031691 542.415384,107.800771 C542.042691,107.569851 541.592896,107.415907 541.065986,107.338933 C540.539076,107.26196 539.941492,107.223474 539.273215,107.223474 C538.2708,107.223474 537.249124,107.281203 536.208155,107.396663 C535.167186,107.512123 534.196914,107.646824 533.297311,107.800771 L534.184058,101.989312 C535.057958,101.809707 536.169594,101.63652 537.518998,101.469744 C538.868403,101.302969 540.211361,101.219582 541.547914,101.219582 C543.09009,101.219582 544.478028,101.373526 545.711769,101.68142 C546.94551,101.989313 547.99289,102.483218 548.853938,103.16315 C549.714986,103.843081 550.376827,104.715433 550.83948,105.780231 C551.302133,106.845029 551.533456,108.134313 551.533456,109.648123 L551.533456,122.040771 L544.478034,122.040771 L544.131046,120.385852 C542.743088,121.745715 540.866801,122.425636 538.502131,122.425636 C537.294093,122.425636 536.259565,122.271692 535.398516,121.963798 C534.537468,121.655905 533.824222,121.232558 533.258757,120.693744 C532.693293,120.154931 532.282052,119.507081 532.025022,118.750177 C531.767993,117.993272 531.63948,117.152992 531.63948,116.229312 L531.63948,116.036879 Z M566.74952,107.800771 L566.74952,113.612231 C566.74952,115.459591 567.623407,116.383258 569.371207,116.383258 C569.808157,116.383258 570.283654,116.3576 570.797713,116.306285 C571.311772,116.254969 571.812972,116.190826 572.301328,116.113852 L571.530243,121.732879 C570.861967,121.938142 570.071613,122.104915 569.159159,122.233204 C568.246705,122.361493 567.327838,122.425636 566.402532,122.425636 C564.731841,122.425636 563.36318,122.226791 562.296508,121.829095 C561.229836,121.4314 560.381652,120.866937 559.75193,120.13569 C559.122208,119.404443 558.685265,118.525677 558.441087,117.499366 C558.196909,116.473054 558.074822,115.318471 558.074822,114.035582 L558.074822,107.800771 L554.566388,107.800771 L555.337472,101.68142 L558.113376,101.68142 L558.113376,97.1015279 L566.74952,96.0623928 L566.74952,101.68142 L572.070002,101.68142 L571.337472,107.800771 L566.74952,107.800771 Z M583.083657,113.84315 C583.135063,114.407621 583.270001,114.869454 583.488476,115.228663 C583.706951,115.587872 584.015382,115.876518 584.413777,116.094609 C584.812173,116.3127 585.33265,116.466645 585.975223,116.556447 C586.617797,116.646249 587.388873,116.69115 588.288476,116.69115 C590.293305,116.69115 592.362361,116.460233 594.495705,115.998393 L593.416187,121.424987 C592.670802,121.707223 591.681253,121.957383 590.447512,122.175474 C589.213771,122.393565 587.812982,122.502609 586.245103,122.502609 C584.240273,122.502609 582.543905,122.29735 581.155946,121.886825 C579.767987,121.476301 578.649926,120.854109 577.801729,120.020231 C576.953532,119.186353 576.336671,118.140813 575.951127,116.883582 C575.565583,115.62635 575.372813,114.163879 575.372813,112.496123 L575.372813,111.226068 C575.372813,109.763575 575.591285,108.416561 576.028235,107.184987 C576.465185,105.953414 577.107749,104.895046 577.955946,104.009852 C578.804143,103.124659 579.864373,102.438323 581.136669,101.950825 C582.408964,101.463327 583.880436,101.219582 585.551127,101.219582 C587.247521,101.219582 588.706141,101.431256 589.92703,101.854609 C591.14792,102.277962 592.143894,102.861668 592.914982,103.605744 C593.68607,104.34982 594.257952,105.235 594.630645,106.261312 C595.003337,107.287623 595.189681,108.40372 595.189681,109.609636 L595.189681,110.610285 C595.189681,111.12344 595.151127,111.585274 595.074018,111.995798 C594.996909,112.406323 594.836269,112.746283 594.592091,113.01569 C594.347913,113.285097 594.013779,113.490356 593.589681,113.631474 C593.165582,113.772592 592.606552,113.84315 591.912573,113.84315 L583.083657,113.84315 Z M585.512573,106.877095 C584.818593,106.877095 584.246711,107.114426 583.79691,107.589095 C583.347108,108.063765 583.096509,108.775757 583.045103,109.725095 L587.748717,109.725095 L587.748717,109.224771 C587.748717,108.403722 587.543097,107.807187 587.13185,107.43515 C586.720603,107.063112 586.180849,106.877095 585.512573,106.877095 Z M620.763978,122.695041 C619.11899,122.695041 617.621816,122.541097 616.272412,122.233204 C614.923008,121.92531 613.766393,121.457063 612.802532,120.828447 C611.838672,120.199831 611.093298,119.410866 610.566388,118.461528 C610.039478,117.51219 609.776026,116.396093 609.776026,115.113204 L609.776026,114.574393 C609.776026,113.573739 609.904539,112.694973 610.161569,111.938068 C610.418598,111.181164 610.778434,110.494828 611.241087,109.879041 C611.70374,109.263255 612.249919,108.705206 612.879641,108.204879 C613.509363,107.704552 614.196906,107.223476 614.942291,106.761636 C614.119797,105.709667 613.522213,104.747514 613.14952,103.87515 C612.776828,103.002785 612.590484,102.143262 612.590484,101.296555 L612.590484,100.834717 C612.590484,99.8084057 612.789679,98.8719105 613.188075,98.0252036 C613.58647,97.1784967 614.151926,96.4536751 614.88446,95.8507171 C615.616994,95.2477591 616.497306,94.7859259 617.525424,94.4652036 C618.553542,94.1444813 619.710156,93.9841225 620.995303,93.9841225 C622.203342,93.9841225 623.308551,94.1316526 624.310966,94.4267171 C625.313381,94.7217816 626.167991,95.1515431 626.874822,95.7160144 C627.581652,96.2804857 628.134257,96.9668212 628.532653,97.7750414 C628.931048,98.5832617 629.130243,99.4876851 629.130243,100.488339 L629.130243,100.873204 C629.130243,101.719911 628.995305,102.489633 628.725424,103.182393 C628.455543,103.875153 628.089282,104.510174 627.626629,105.087474 C627.163976,105.664774 626.630648,106.190751 626.026629,106.66542 C625.42261,107.140089 624.799323,107.582679 624.156749,107.993204 L627.433858,111.64942 C627.485264,111.367184 627.523817,111.084953 627.54952,110.802717 C627.575223,110.520481 627.588075,110.212593 627.588075,109.879041 C627.588075,109.494175 627.575223,109.083656 627.54952,108.647474 C627.523817,108.211292 627.498115,107.916231 627.472412,107.762285 L633.833858,107.762285 C633.885264,108.198467 633.930243,108.634643 633.968797,109.070825 C634.007352,109.507008 634.026629,109.98167 634.026629,110.494825 C634.026629,113.111919 633.512578,115.356942 632.48446,117.22996 L636.841087,122.040771 L628.744701,122.040771 L627.703737,120.886177 C626.778431,121.399332 625.737478,121.829094 624.580846,122.175474 C623.424213,122.521854 622.151937,122.695041 620.763978,122.695041 Z M618.874822,111.110609 C618.437872,111.469818 618.090887,111.848265 617.833858,112.24596 C617.576828,112.643656 617.448316,113.124732 617.448316,113.689204 L617.448316,113.958609 C617.448316,114.702685 617.769597,115.318462 618.412171,115.80596 C619.054744,116.293458 620.095698,116.537204 621.535062,116.537204 C622.151933,116.537204 622.768794,116.396088 623.385665,116.113852 L618.874822,111.110609 Z M622.768797,100.988663 C622.768797,100.501165 622.621008,100.141962 622.325424,99.9110414 C622.02984,99.6801214 621.650727,99.5646631 621.188075,99.5646631 C620.62261,99.5646631 620.172815,99.7186075 619.838677,100.026501 C619.504539,100.334394 619.337472,100.77057 619.337472,101.335041 C619.337472,101.719908 619.421005,102.104769 619.588075,102.489636 C619.755144,102.874503 620.005744,103.285021 620.339882,103.721204 C621.213782,103.18239 621.837069,102.714143 622.209761,102.316447 C622.582454,101.918751 622.768797,101.476161 622.768797,100.988663 Z M477.23948,153.740807 L477.23948,162.130861 L468.64189,162.130861 L468.64189,134.728483 L481.326227,134.728483 C482.996918,134.728483 484.410559,134.959399 485.567191,135.42124 C486.723823,135.88308 487.668392,136.511686 488.400926,137.307077 C489.13346,138.102469 489.660362,139.03255 489.981649,140.097348 C490.302936,141.162146 490.463577,142.297486 490.463577,143.503402 L490.463577,144.734969 C490.463577,146.428383 490.1937,147.845955 489.653938,148.987726 C489.114176,150.129498 488.388079,151.053164 487.475625,151.758753 C486.56317,152.464342 485.496514,152.971076 484.275625,153.278969 C483.054735,153.586863 481.75033,153.740807 480.362372,153.740807 L477.23948,153.740807 Z M477.23948,147.236591 L479.629842,147.236591 C481.223424,147.236591 482.020203,146.351411 482.020203,144.581023 L482.020203,143.84978 C482.020203,142.079393 481.197721,141.194213 479.552733,141.194213 L477.23948,141.194213 L477.23948,147.236591 Z M509.650725,148.545132 C509.265181,148.416843 508.866791,148.314213 508.455544,148.23724 C508.044297,148.160266 507.581651,148.12178 507.067593,148.12178 C505.91096,148.12178 505.062776,148.442498 504.523014,149.083942 C503.983253,149.725387 503.713376,150.610567 503.713376,151.73951 L503.713376,162.130861 L495.038677,162.130861 L495.038677,141.77151 L502.633858,141.77151 L503.0194,143.464915 C504.433062,142.156368 506.065174,141.502104 507.915785,141.502104 C508.429844,141.502104 508.950321,141.553419 509.477231,141.65605 C510.004141,141.758682 510.498916,141.886969 510.961569,142.040915 L509.650725,148.545132 Z M523.478838,141.309672 C525.329449,141.309672 526.916582,141.540589 528.240283,142.002429 C529.563985,142.464269 530.649918,143.118533 531.498115,143.96524 C532.346312,144.811947 532.969599,145.831828 533.367994,147.024915 C533.76639,148.218002 533.965585,149.545773 533.965585,151.008267 L533.965585,152.894104 C533.965585,154.382256 533.753539,155.722855 533.32944,156.915942 C532.905341,158.109029 532.262778,159.128911 531.401729,159.975618 C530.540681,160.822325 529.448322,161.470174 528.124621,161.919186 C526.800919,162.368197 525.25234,162.592699 523.478838,162.592699 C521.885255,162.592699 520.439487,162.413097 519.141488,162.053888 C517.84349,161.694679 516.744706,161.123802 515.845103,160.34124 C514.9455,159.558677 514.251531,158.551624 513.763175,157.32005 C513.274819,156.088477 513.030645,154.613176 513.030645,152.894104 L513.030645,151.008267 C513.030645,149.674062 513.210563,148.416849 513.570404,147.236591 C513.930245,146.056333 514.514978,145.023622 515.324621,144.138429 C516.134263,143.253235 517.207345,142.560485 518.543898,142.060159 C519.880451,141.559832 521.525414,141.309672 523.478838,141.309672 Z M523.517392,156.357888 C524.211371,156.357888 524.69972,156.1398 524.982452,155.703618 C525.265184,155.267436 525.406548,154.510542 525.406548,153.432915 L525.406548,150.469456 C525.406548,149.443144 525.265184,148.69908 524.982452,148.23724 C524.69972,147.775399 524.224222,147.544483 523.555946,147.544483 C522.836264,147.544483 522.328638,147.788228 522.033054,148.275726 C521.737471,148.763224 521.589681,149.49446 521.589681,150.469456 L521.589681,153.432915 C521.589681,154.433569 521.718194,155.171219 521.975223,155.645888 C522.232253,156.120557 522.746304,156.357888 523.517392,156.357888 Z M548.796107,147.890861 L548.796107,153.702321 C548.796107,155.549681 549.669994,156.473348 551.417793,156.473348 C551.854743,156.473348 552.330241,156.44769 552.844299,156.396375 C553.358358,156.345059 553.859558,156.280916 554.347914,156.203942 L553.57683,161.822969 C552.908553,162.028232 552.1182,162.195005 551.205745,162.323294 C550.293291,162.451583 549.374425,162.515726 548.449119,162.515726 C546.778428,162.515726 545.409767,162.316881 544.343095,161.919186 C543.276423,161.52149 542.428238,160.957027 541.798516,160.22578 C541.168794,159.494533 540.731851,158.615767 540.487673,157.589456 C540.243495,156.563144 540.121408,155.408561 540.121408,154.125672 L540.121408,147.890861 L536.612974,147.890861 L537.384058,141.77151 L540.159962,141.77151 L540.159962,137.191618 L548.796107,136.152483 L548.796107,141.77151 L554.116589,141.77151 L553.384058,147.890861 L548.796107,147.890861 Z M567.867593,141.309672 C569.718204,141.309672 571.305337,141.540589 572.629038,142.002429 C573.95274,142.464269 575.038673,143.118533 575.88687,143.96524 C576.735067,144.811947 577.358354,145.831828 577.756749,147.024915 C578.155145,148.218002 578.35434,149.545773 578.35434,151.008267 L578.35434,152.894104 C578.35434,154.382256 578.142294,155.722855 577.718195,156.915942 C577.294097,158.109029 576.651533,159.128911 575.790484,159.975618 C574.929436,160.822325 573.837077,161.470174 572.513376,161.919186 C571.189674,162.368197 569.641095,162.592699 567.867593,162.592699 C566.27401,162.592699 564.828242,162.413097 563.530243,162.053888 C562.232245,161.694679 561.133461,161.123802 560.233858,160.34124 C559.334255,159.558677 558.640286,158.551624 558.15193,157.32005 C557.663574,156.088477 557.4194,154.613176 557.4194,152.894104 L557.4194,151.008267 C557.4194,149.674062 557.599318,148.416849 557.959159,147.236591 C558.319,146.056333 558.903733,145.023622 559.713376,144.138429 C560.523018,143.253235 561.5961,142.560485 562.932653,142.060159 C564.269206,141.559832 565.914169,141.309672 567.867593,141.309672 Z M567.906147,156.357888 C568.600126,156.357888 569.088475,156.1398 569.371207,155.703618 C569.653939,155.267436 569.795303,154.510542 569.795303,153.432915 L569.795303,150.469456 C569.795303,149.443144 569.653939,148.69908 569.371207,148.23724 C569.088475,147.775399 568.612977,147.544483 567.944701,147.544483 C567.225019,147.544483 566.717393,147.788228 566.421809,148.275726 C566.126226,148.763224 565.978436,149.49446 565.978436,150.469456 L565.978436,153.432915 C565.978436,154.433569 566.106949,155.171219 566.363978,155.645888 C566.621008,156.120557 567.135059,156.357888 567.906147,156.357888 Z M593.184862,147.890861 L593.184862,153.702321 C593.184862,155.549681 594.058749,156.473348 595.806548,156.473348 C596.243498,156.473348 596.718996,156.44769 597.233054,156.396375 C597.747113,156.345059 598.248313,156.280916 598.736669,156.203942 L597.965585,161.822969 C597.297308,162.028232 596.506955,162.195005 595.5945,162.323294 C594.682046,162.451583 593.76318,162.515726 592.837874,162.515726 C591.167183,162.515726 589.798522,162.316881 588.73185,161.919186 C587.665178,161.52149 586.816993,160.957027 586.187271,160.22578 C585.557549,159.494533 585.120606,158.615767 584.876428,157.589456 C584.63225,156.563144 584.510163,155.408561 584.510163,154.125672 L584.510163,147.890861 L581.001729,147.890861 L581.772813,141.77151 L584.548717,141.77151 L584.548717,137.191618 L593.184862,136.152483 L593.184862,141.77151 L598.505344,141.77151 L597.772813,147.890861 L593.184862,147.890861 Z M601.731046,141.77151 L611.138275,141.77151 L613.952733,153.779294 L616.188878,141.77151 L625.364781,141.77151 L617.846709,162.785132 C617.229839,164.504203 616.580849,165.91536 615.899721,167.018645 C615.218593,168.12193 614.479645,168.987867 613.682854,169.616483 C612.886063,170.245099 612.018601,170.681274 611.080444,170.925023 C610.142287,171.168772 609.12061,171.290645 608.015384,171.290645 C606.93586,171.290645 605.933461,171.207258 605.008155,171.040483 C604.082849,170.873707 603.170408,170.649205 602.270805,170.366969 L603.427432,164.632483 C603.941491,164.78643 604.455542,164.901888 604.969601,164.978861 C605.483659,165.055835 605.946305,165.094321 606.357552,165.094321 C607.334264,165.094321 608.086064,164.869818 608.612974,164.420807 C609.139884,163.971796 609.5447,163.182831 609.827432,162.053888 L601.731046,141.77151 Z M641.544701,151.200699 C641.544701,150.020441 641.403337,149.160918 641.120605,148.622104 C640.837872,148.083291 640.336673,147.813888 639.61699,147.813888 C638.948714,147.813888 638.460365,148.057634 638.15193,148.545132 C637.843495,149.032629 637.689279,149.81518 637.689279,150.892807 L637.689279,155.973023 C637.817794,156.049997 638.004138,156.120555 638.248316,156.184699 C638.492493,156.248844 638.794498,156.280915 639.15434,156.280915 C639.976834,156.280915 640.580844,156.011513 640.966388,155.472699 C641.351932,154.933886 641.544701,154.074363 641.544701,152.894104 L641.544701,151.200699 Z M650.103737,151.931942 C650.103737,153.830618 649.898117,155.447035 649.48687,156.78124 C649.075623,158.115445 648.49089,159.205884 647.732653,160.052591 C646.974416,160.899298 646.061975,161.52149 644.995303,161.919186 C643.928631,162.316881 642.75274,162.515726 641.467593,162.515726 C640.670801,162.515726 639.95113,162.438754 639.308556,162.284807 C638.665983,162.13086 638.126229,161.93843 637.689279,161.70751 L637.689279,171.059726 L629.091689,171.059726 L629.091689,141.77151 L636.725424,141.77151 L637.110966,143.541888 C637.342293,143.310968 637.618595,143.067223 637.939882,142.810645 C638.261169,142.554067 638.640281,142.310322 639.077231,142.079402 C639.514181,141.848482 640.015381,141.662466 640.580846,141.521348 C641.14631,141.38023 641.776023,141.309672 642.470002,141.309672 C643.857961,141.309672 645.040278,141.547003 646.01699,142.021672 C646.993702,142.496341 647.784055,143.176262 648.388075,144.061456 C648.992094,144.946649 649.429037,146.02426 649.698918,147.294321 C649.968799,148.564381 650.103737,149.981953 650.103737,151.547077 L650.103737,151.931942 Z M661.888476,153.93324 C661.939882,154.497711 662.07482,154.959544 662.293295,155.318753 C662.51177,155.677962 662.820201,155.966608 663.218597,156.184699 C663.616992,156.40279 664.137469,156.556735 664.780042,156.646537 C665.422616,156.736339 666.193693,156.78124 667.093295,156.78124 C669.098125,156.78124 671.16718,156.550323 673.300524,156.088483 L672.221006,161.515077 C671.475621,161.797313 670.486073,162.047473 669.252332,162.265564 C668.01859,162.483655 666.617801,162.592699 665.049922,162.592699 C663.045093,162.592699 661.348724,162.38744 659.960765,161.976915 C658.572807,161.566391 657.454745,160.944199 656.606548,160.110321 C655.758351,159.276443 655.14149,158.230904 654.755946,156.973672 C654.370402,155.716441 654.177633,154.253969 654.177633,152.586213 L654.177633,151.316159 C654.177633,149.853665 654.396104,148.506651 654.833054,147.275077 C655.270004,146.043504 655.912568,144.985136 656.760765,144.099942 C657.608962,143.214749 658.669193,142.528413 659.941488,142.040915 C661.213784,141.553417 662.685255,141.309672 664.355946,141.309672 C666.05234,141.309672 667.51096,141.521346 668.73185,141.944699 C669.952739,142.368053 670.948713,142.951758 671.719801,143.695834 C672.49089,144.43991 673.062771,145.32509 673.435464,146.351402 C673.808157,147.377713 673.9945,148.49381 673.9945,149.699726 L673.9945,150.700375 C673.9945,151.21353 673.955946,151.675364 673.878838,152.085888 C673.801729,152.496413 673.641088,152.836373 673.39691,153.10578 C673.152732,153.375187 672.818599,153.580446 672.3945,153.721564 C671.970402,153.862682 671.411371,153.93324 670.717392,153.93324 L661.888476,153.93324 Z M664.317392,146.967186 C663.623412,146.967186 663.051531,147.204517 662.601729,147.679186 C662.151928,148.153855 661.901328,148.865847 661.849922,149.815186 L666.553536,149.815186 L666.553536,149.314861 C666.553536,148.493812 666.347916,147.897278 665.936669,147.52524 C665.525422,147.153202 664.985668,146.967186 664.317392,146.967186 Z" transform="rotate(-43 571.318 132.368)"/>
    <path fill="#283593" d="M655.170374,236.182038 L654.360735,242.95566 L647.72941,242.95566 L647.72941,263.584417 L638.784832,263.584417 L638.784832,242.95566 L631.305314,242.95566 L632.114952,236.182038 L655.170374,236.182038 Z M662.444269,255.386795 C662.495675,255.951266 662.630614,256.4131 662.849089,256.772309 C663.067564,257.131518 663.375994,257.420163 663.77439,257.638255 C664.172785,257.856346 664.693262,258.01029 665.335836,258.100093 C665.978409,258.189895 666.749486,258.234795 667.649089,258.234795 C669.653918,258.234795 671.722974,258.003879 673.856318,257.542038 L672.776799,262.968633 C672.031414,263.250869 671.041866,263.501028 669.808125,263.71912 C668.574384,263.937211 667.173594,264.046255 665.605715,264.046255 C663.600886,264.046255 661.904517,263.840995 660.516559,263.430471 C659.1286,263.019946 658.010539,262.397754 657.162342,261.563876 C656.314145,260.729998 655.697283,259.684459 655.311739,258.427228 C654.926195,257.169996 654.733426,255.707524 654.733426,254.039768 L654.733426,252.769714 C654.733426,251.30722 654.951898,249.960207 655.388848,248.728633 C655.825798,247.497059 656.468362,246.438692 657.316559,245.553498 C658.164756,244.668304 659.224986,243.981969 660.497281,243.494471 C661.769577,243.006973 663.241048,242.763228 664.911739,242.763228 C666.608133,242.763228 668.066753,242.974901 669.287643,243.398255 C670.508533,243.821608 671.504506,244.405314 672.275595,245.14939 C673.046683,245.893466 673.618565,246.778646 673.991257,247.804957 C674.36395,248.831269 674.550293,249.947366 674.550293,251.153282 L674.550293,252.15393 C674.550293,252.667086 674.51174,253.128919 674.434631,253.539444 C674.357522,253.949968 674.196881,254.289929 673.952703,254.559336 C673.708525,254.828742 673.374392,255.034002 672.950293,255.17512 C672.526195,255.316237 671.967164,255.386795 671.273185,255.386795 L662.444269,255.386795 Z M664.873185,248.420741 C664.179206,248.420741 663.607324,248.658072 663.157522,249.132741 C662.707721,249.60741 662.457121,250.319403 662.405715,251.268741 L667.10933,251.268741 L667.10933,250.768417 C667.10933,249.947368 666.903709,249.350833 666.492462,248.978795 C666.081215,248.606757 665.541461,248.420741 664.873185,248.420741 Z M695.433828,249.459876 C694.40571,249.151983 693.358331,248.914652 692.291659,248.747876 C691.224987,248.581101 690.151905,248.497714 689.072382,248.497714 C688.275591,248.497714 687.684432,248.568272 687.298888,248.70939 C686.913344,248.850508 686.720575,249.100667 686.720575,249.459876 C686.720575,249.742112 686.810534,249.947371 686.990454,250.07566 C687.170375,250.203949 687.478805,250.29375 687.915755,250.345065 L691.115755,250.72993 C692.246685,250.883877 693.184828,251.134037 693.930213,251.480417 C694.675598,251.826797 695.273183,252.262973 695.722984,252.788957 C696.172786,253.314942 696.494068,253.917891 696.68684,254.597822 C696.879612,255.277754 696.975996,256.002575 696.975996,256.772309 L696.975996,257.234147 C696.975996,259.620321 696.102109,261.339367 694.35431,262.391336 C692.60651,263.443305 689.946295,263.969282 686.373587,263.969282 C684.857113,263.969282 683.430621,263.873066 682.094069,263.680633 C680.757516,263.4882 679.549496,263.225211 678.469972,262.89166 L679.780816,257.388093 C680.680418,257.619013 681.689244,257.830686 682.807322,258.02312 C683.925399,258.215553 685.075589,258.311768 686.257924,258.311768 C687.029012,258.311768 687.633022,258.260453 688.069972,258.157822 C688.506922,258.055191 688.725394,257.798617 688.725394,257.388093 C688.725394,256.849279 688.468368,256.54139 687.95431,256.464417 L685.139852,256.118038 C683.057914,255.861461 681.470781,255.220026 680.378406,254.193714 C679.286031,253.167403 678.739852,251.858875 678.739852,250.268093 L678.739852,249.806255 C678.739852,247.471396 679.58161,245.726693 681.265153,244.572093 C682.948695,243.417492 685.435418,242.840201 688.725394,242.840201 C690.164758,242.840201 691.559122,242.955659 692.908526,243.186579 C694.257931,243.417499 695.536633,243.738217 696.744671,244.148741 L695.433828,249.459876 Z M712.114952,249.344417 L712.114952,255.155876 C712.114952,257.003237 712.988839,257.926903 714.736639,257.926903 C715.173589,257.926903 715.649086,257.901246 716.163145,257.84993 C716.677204,257.798615 717.178403,257.734471 717.666759,257.657498 L716.895675,263.276525 C716.227399,263.481787 715.437045,263.64856 714.524591,263.776849 C713.612136,263.905138 712.69327,263.969282 711.767964,263.969282 C710.097273,263.969282 708.728612,263.770437 707.66194,263.372741 C706.595268,262.975045 705.747084,262.410583 705.117362,261.679336 C704.48764,260.948089 704.050696,260.069323 703.806518,259.043011 C703.56234,258.0167 703.440253,256.862117 703.440253,255.579228 L703.440253,249.344417 L699.93182,249.344417 L700.702904,243.225065 L703.478808,243.225065 L703.478808,238.645174 L712.114952,237.606038 L712.114952,243.225065 L717.435434,243.225065 L716.702904,249.344417 L712.114952,249.344417 Z" transform="rotate(-43 674.486 250.114)"/>
  </g>
</svg>
