<svg xmlns="http://www.w3.org/2000/svg" width="811" height="368" viewBox="0 0 811 368">
  <g fill="none" fill-rule="evenodd" transform="translate(7 7)">
    <path stroke="#FFF" stroke-linecap="round" stroke-linejoin="round" stroke-width="12.851" d="M126.652226 45.772759L166.487801 9.38393403C180.184841-3.12797801 201.167919-3.12797801 214.86496 9.38393403L398.651136 177.26812 214.86496 345.152305C201.167919 357.664217 180.184841 357.664217 166.487801 345.152305L124.198749 306.522289M89.2121361 274.562872L11.6693639 203.729443 11.6693639 203.729443C-2.94990108 190.375101-3.97156107 167.70213 9.38742241 153.087945 10.1134381 152.293713 10.8748561 151.53256 11.6693639 150.806797L95.2826248 74.4281241M544.009443 44.4868556L555.916639 33.6099225 582.437313 9.38393403 582.437313 9.38393403C596.134354-3.12797801 617.117432-3.12797801 630.814472 9.38393403L630.814472 9.38393403 785.632909 150.806797 785.632909 150.806797C800.252174 164.161138 801.273834 186.834109 787.914851 201.448294 787.188835 202.242526 786.427417 203.003679 785.632909 203.729443L630.814472 345.152305 630.814472 345.152305C617.117432 357.664217 596.134354 357.664217 582.437313 345.152305L553.812984 319.004679M513.396976 282.085643L398.651136 177.26812 506.562374 78.693839"/>
    <path stroke="#FFF" stroke-linecap="round" stroke-width="12.851" d="M75.9316873,103.664127 L98.8973418,82.3271558 C101.799003,79.6312749 101.965822,75.0935701 99.2699406,72.1919085 C99.098169,72.0070253 98.9167581,71.8313377 98.7264652,71.6655792 L75.9316873,51.80972 L75.9316873,51.80972" transform="rotate(-45 90.334 77.737)"/>
    <path stroke="#FFF" stroke-linecap="round" stroke-width="12.851" d="M491.8812,103.664127 L514.846854,82.3271558 C517.748516,79.6312749 517.915334,75.0935701 515.219453,72.1919085 C515.047681,72.0070253 514.86627,71.8313377 514.675977,71.6655792 L491.8812,51.80972 L491.8812,51.80972" transform="rotate(-45 506.284 77.737)"/>
    <path stroke="#FFF" stroke-linecap="round" stroke-width="12.851" d="M491.8812,304.397566 L514.846854,283.060595 C517.748516,280.364714 517.915334,275.827009 515.219453,272.925348 C515.047681,272.740465 514.86627,272.564777 514.675977,272.399018 L491.8812,252.543159 L491.8812,252.543159" transform="rotate(45 506.284 278.47)"/>
    <path stroke="#FFF" stroke-linecap="round" stroke-width="12.851" d="M74.3252616,302.793963 L97.2909161,281.456991 C100.192578,278.761111 100.359396,274.223406 97.6635149,271.321744 C97.4917433,271.136861 97.3103324,270.961173 97.1200395,270.795415 L74.3252616,250.939556 L74.3252616,250.939556" transform="rotate(45 88.728 276.867)"/>
    <path fill="#283593" fill-rule="nonzero" d="M95.3231365,141.26812 L95.3231365,135.61612 L83.2991365,135.61612 L83.2991365,116.06812 L76.1711365,116.06812 L76.1711365,141.26812 L95.3231365,141.26812 Z M107.959136,141.59212 C111.607136,141.59212 114.379136,140.53612 116.275136,138.42412 L116.275136,138.42412 L112.675136,134.68012 C111.979136,135.28012 111.289136,135.71212 110.605136,135.97612 C109.921136,136.24012 109.111136,136.37212 108.175136,136.37212 C106.927136,136.37212 105.889136,136.10212 105.061136,135.56212 C104.233136,135.02212 103.675136,134.24812 103.387136,133.24012 L103.387136,133.24012 L117.571136,133.24012 C117.643136,132.16012 117.679136,131.59612 117.679136,131.54812 C117.679136,129.46012 117.217136,127.65412 116.293136,126.13012 C115.369136,124.60612 114.115136,123.44212 112.531136,122.63812 C110.947136,121.83412 109.183136,121.43212 107.239136,121.43212 C105.199136,121.43212 103.363136,121.86412 101.731136,122.72812 C100.099136,123.59212 98.8211365,124.78612 97.8971365,126.31012 C96.9731365,127.83412 96.5111365,129.55612 96.5111365,131.47612 C96.5111365,133.42012 96.9851365,135.16012 97.9331365,136.69612 C98.8811365,138.23212 100.219136,139.43212 101.947136,140.29612 C103.675136,141.16012 105.679136,141.59212 107.959136,141.59212 Z M111.271136,129.64012 L103.279136,129.64012 C103.471136,128.60812 103.921136,127.79212 104.629136,127.19212 C105.337136,126.59212 106.219136,126.29212 107.275136,126.29212 C108.331136,126.29212 109.213136,126.59212 109.921136,127.19212 C110.629136,127.79212 111.079136,128.60812 111.271136,129.64012 L111.271136,129.64012 Z M126.463136,141.59212 C129.319136,141.59212 131.239136,140.64412 132.223136,138.74812 L132.223136,138.74812 L132.223136,141.26812 L138.595136,141.26812 L138.595136,130.43212 C138.595136,127.38412 137.743136,125.12212 136.039136,123.64612 C134.335136,122.17012 131.863136,121.43212 128.623136,121.43212 C127.063136,121.43212 125.509136,121.63012 123.961136,122.02612 C122.413136,122.42212 121.099136,122.98012 120.019136,123.70012 L120.019136,123.70012 L122.323136,128.34412 C122.995136,127.81612 123.811136,127.40212 124.771136,127.10212 C125.731136,126.80212 126.679136,126.65212 127.615136,126.65212 C130.255136,126.65212 131.635136,127.68412 131.755136,129.74812 L131.755136,129.74812 L127.867136,129.74812 C124.915136,129.74812 122.731136,130.25812 121.315136,131.27812 C119.899136,132.29812 119.191136,133.73212 119.191136,135.58012 C119.191136,136.73212 119.473136,137.75812 120.037136,138.65812 C120.601136,139.55812 121.435136,140.27212 122.539136,140.80012 C123.643136,141.32812 124.951136,141.59212 126.463136,141.59212 Z M128.371136,137.27212 C127.579136,137.27212 126.955136,137.09212 126.499136,136.73212 C126.043136,136.37212 125.815136,135.89212 125.815136,135.29212 C125.815136,133.97212 126.811136,133.31212 128.803136,133.31212 L128.803136,133.31212 L131.755136,133.31212 L131.755136,135.00412 C131.491136,135.74812 131.059136,136.31212 130.459136,136.69612 C129.859136,137.08012 129.163136,137.27212 128.371136,137.27212 Z M149.755136,141.26812 L149.755136,132.30412 C149.755136,130.67212 150.169136,129.46012 150.997136,128.66812 C151.825136,127.87612 152.971136,127.48012 154.435136,127.48012 C154.843136,127.48012 155.359136,127.51612 155.983136,127.58812 L155.983136,127.58812 L155.983136,121.43212 C154.543136,121.43212 153.265136,121.65412 152.149136,122.09812 C151.033136,122.54212 150.127136,123.20812 149.431136,124.09612 L149.431136,124.09612 L149.431136,121.75612 L142.915136,121.75612 L142.915136,141.26812 L149.755136,141.26812 Z M165.631136,141.26812 L165.631136,131.83612 C165.631136,130.30012 165.985136,129.14812 166.693136,128.38012 C167.401136,127.61212 168.343136,127.22812 169.519136,127.22812 C171.655136,127.22812 172.723136,128.56012 172.723136,131.22412 L172.723136,131.22412 L172.723136,141.26812 L179.563136,141.26812 L179.563136,130.10812 C179.563136,127.20412 178.825136,125.03212 177.349136,123.59212 C175.873136,122.15212 173.923136,121.43212 171.499136,121.43212 C170.251136,121.43212 169.099136,121.64212 168.043136,122.06212 C166.987136,122.48212 166.075136,123.08812 165.307136,123.88012 L165.307136,123.88012 L165.307136,121.75612 L158.791136,121.75612 L158.791136,141.26812 L165.631136,141.26812 Z" transform="rotate(-43 127.867 128.83)"/>
    <path fill="#283593" fill-rule="nonzero" d="M159.027136,260.77212 C161.427136,260.77212 163.467136,260.40612 165.147136,259.67412 C166.827136,258.94212 168.087136,257.96412 168.927136,256.74012 C169.767136,255.51612 170.187136,254.14812 170.187136,252.63612 C170.187136,250.88412 169.725136,249.49812 168.801136,248.47812 C167.877136,247.45812 166.785136,246.71412 165.525136,246.24612 C164.265136,245.77812 162.675136,245.34012 160.755136,244.93212 C159.051136,244.57212 157.815136,244.22412 157.047136,243.88812 C156.279136,243.55212 155.895136,243.04812 155.895136,242.37612 C155.895136,241.70412 156.219136,241.15812 156.867136,240.73812 C157.515136,240.31812 158.547136,240.10812 159.963136,240.10812 C162.219136,240.10812 164.547136,240.75612 166.947136,242.05212 L166.947136,242.05212 L169.143136,236.76012 C167.919136,236.04012 166.503136,235.49412 164.895136,235.12212 C163.287136,234.75012 161.655136,234.56412 159.999136,234.56412 C157.575136,234.56412 155.529136,234.92412 153.861136,235.64412 C152.193136,236.36412 150.939136,237.34212 150.099136,238.57812 C149.259136,239.81412 148.839136,241.20012 148.839136,242.73612 C148.839136,244.48812 149.295136,245.88012 150.207136,246.91212 C151.119136,247.94412 152.211136,248.69412 153.483136,249.16212 C154.755136,249.63012 156.339136,250.06812 158.235136,250.47612 C159.963136,250.86012 161.217136,251.22612 161.997136,251.57412 C162.777136,251.92212 163.167136,252.45612 163.167136,253.17612 C163.167136,254.54412 161.799136,255.22812 159.063136,255.22812 C157.623136,255.22812 156.159136,255.00012 154.671136,254.54412 C153.183136,254.08812 151.875136,253.48812 150.747136,252.74412 L150.747136,252.74412 L148.407136,258.00012 C149.607136,258.84012 151.167136,259.51212 153.087136,260.01612 C155.007136,260.52012 156.987136,260.77212 159.027136,260.77212 Z M176.127136,267.57612 C178.167136,267.57612 179.895136,267.09012 181.311136,266.11812 C182.727136,265.14612 183.927136,263.46012 184.911136,261.06012 L184.911136,261.06012 L193.335136,240.75612 L186.819136,240.75612 L181.995136,252.67212 L177.207136,240.75612 L170.187136,240.75612 L178.539136,260.52012 C178.251136,261.09612 177.897136,261.51612 177.477136,261.78012 C177.057136,262.04412 176.523136,262.17612 175.875136,262.17612 C175.323136,262.17612 174.777136,262.07412 174.237136,261.87012 C173.697136,261.66612 173.235136,261.38412 172.851136,261.02412 L172.851136,261.02412 L170.475136,265.81212 C171.123136,266.34012 171.969136,266.76612 173.013136,267.09012 C174.057136,267.41412 175.095136,267.57612 176.127136,267.57612 Z M201.939136,260.26812 L201.939136,250.83612 C201.939136,249.30012 202.293136,248.14812 203.001136,247.38012 C203.709136,246.61212 204.651136,246.22812 205.827136,246.22812 C207.963136,246.22812 209.031136,247.56012 209.031136,250.22412 L209.031136,250.22412 L209.031136,260.26812 L215.871136,260.26812 L215.871136,249.10812 C215.871136,246.20412 215.133136,244.03212 213.657136,242.59212 C212.181136,241.15212 210.231136,240.43212 207.807136,240.43212 C206.559136,240.43212 205.407136,240.64212 204.351136,241.06212 C203.295136,241.48212 202.383136,242.08812 201.615136,242.88012 L201.615136,242.88012 L201.615136,240.75612 L195.099136,240.75612 L195.099136,260.26812 L201.939136,260.26812 Z M228.867136,260.59212 C229.803136,260.59212 230.685136,260.49612 231.513136,260.30412 C232.341136,260.11212 233.043136,259.83612 233.619136,259.47612 L233.619136,259.47612 L231.927136,254.68812 C231.327136,255.09612 230.631136,255.30012 229.839136,255.30012 C229.215136,255.30012 228.717136,255.10212 228.345136,254.70612 C227.973136,254.31012 227.787136,253.76412 227.787136,253.06812 L227.787136,253.06812 L227.787136,246.58812 L232.251136,246.58812 L232.251136,241.47612 L227.787136,241.47612 L227.787136,236.40012 L220.947136,236.40012 L220.947136,241.47612 L218.103136,241.47612 L218.103136,246.58812 L220.947136,246.58812 L220.947136,253.14012 C220.947136,255.61212 221.631136,257.47212 222.999136,258.72012 C224.367136,259.96812 226.323136,260.59212 228.867136,260.59212 Z M243.087136,260.26812 L243.087136,250.83612 C243.087136,249.30012 243.441136,248.14812 244.149136,247.38012 C244.857136,246.61212 245.799136,246.22812 246.975136,246.22812 C249.111136,246.22812 250.179136,247.56012 250.179136,250.22412 L250.179136,250.22412 L250.179136,260.26812 L257.019136,260.26812 L257.019136,249.10812 C257.019136,246.20412 256.281136,244.03212 254.805136,242.59212 C253.329136,241.15212 251.379136,240.43212 248.955136,240.43212 C247.803136,240.43212 246.723136,240.61212 245.715136,240.97212 C244.707136,241.33212 243.831136,241.86012 243.087136,242.55612 L243.087136,242.55612 L243.087136,233.55612 L236.247136,233.55612 L236.247136,260.26812 L243.087136,260.26812 Z M271.815136,260.59212 C275.463136,260.59212 278.235136,259.53612 280.131136,257.42412 L280.131136,257.42412 L276.531136,253.68012 C275.835136,254.28012 275.145136,254.71212 274.461136,254.97612 C273.777136,255.24012 272.967136,255.37212 272.031136,255.37212 C270.783136,255.37212 269.745136,255.10212 268.917136,254.56212 C268.089136,254.02212 267.531136,253.24812 267.243136,252.24012 L267.243136,252.24012 L281.427136,252.24012 C281.499136,251.16012 281.535136,250.59612 281.535136,250.54812 C281.535136,248.46012 281.073136,246.65412 280.149136,245.13012 C279.225136,243.60612 277.971136,242.44212 276.387136,241.63812 C274.803136,240.83412 273.039136,240.43212 271.095136,240.43212 C269.055136,240.43212 267.219136,240.86412 265.587136,241.72812 C263.955136,242.59212 262.677136,243.78612 261.753136,245.31012 C260.829136,246.83412 260.367136,248.55612 260.367136,250.47612 C260.367136,252.42012 260.841136,254.16012 261.789136,255.69612 C262.737136,257.23212 264.075136,258.43212 265.803136,259.29612 C267.531136,260.16012 269.535136,260.59212 271.815136,260.59212 Z M275.127136,248.64012 L267.135136,248.64012 C267.327136,247.60812 267.777136,246.79212 268.485136,246.19212 C269.193136,245.59212 270.075136,245.29212 271.131136,245.29212 C272.187136,245.29212 273.069136,245.59212 273.777136,246.19212 C274.485136,246.79212 274.935136,247.60812 275.127136,248.64012 L275.127136,248.64012 Z M291.795136,260.59212 C293.835136,260.59212 295.581136,260.31612 297.033136,259.76412 C298.485136,259.21212 299.583136,258.45012 300.327136,257.47812 C301.071136,256.50612 301.443136,255.40812 301.443136,254.18412 C301.443136,252.69612 301.053136,251.53812 300.273136,250.71012 C299.493136,249.88212 298.575136,249.31212 297.519136,249.00012 C296.463136,248.68812 295.131136,248.41212 293.523136,248.17212 C292.251136,247.98012 291.339136,247.79412 290.787136,247.61412 C290.235136,247.43412 289.959136,247.11612 289.959136,246.66012 C289.959136,246.25212 290.211136,245.92212 290.715136,245.67012 C291.219136,245.41812 292.011136,245.29212 293.091136,245.29212 C295.107136,245.29212 296.979136,245.77212 298.707136,246.73212 L298.707136,246.73212 L300.759136,242.08812 C299.823136,241.56012 298.659136,241.15212 297.267136,240.86412 C295.875136,240.57612 294.471136,240.43212 293.055136,240.43212 C291.063136,240.43212 289.353136,240.71412 287.925136,241.27812 C286.497136,241.84212 285.411136,242.61012 284.667136,243.58212 C283.923136,244.55412 283.551136,245.66412 283.551136,246.91212 C283.551136,248.42412 283.947136,249.60012 284.739136,250.44012 C285.531136,251.28012 286.473136,251.85612 287.565136,252.16812 C288.657136,252.48012 289.983136,252.73212 291.543136,252.92412 C292.767136,253.09212 293.661136,253.26612 294.225136,253.44612 C294.789136,253.62612 295.071136,253.93212 295.071136,254.36412 C295.071136,254.79612 294.837136,255.12612 294.369136,255.35412 C293.901136,255.58212 293.115136,255.69612 292.011136,255.69612 C290.811136,255.69612 289.599136,255.53412 288.375136,255.21012 C287.151136,254.88612 286.095136,254.44812 285.207136,253.89612 L285.207136,253.89612 L283.155136,258.57612 C284.115136,259.17612 285.387136,259.66212 286.971136,260.03412 C288.555136,260.40612 290.163136,260.59212 291.795136,260.59212 Z M307.815136,238.59612 C309.063136,238.59612 310.071136,238.24212 310.839136,237.53412 C311.607136,236.82612 311.991136,235.93212 311.991136,234.85212 C311.991136,233.82012 311.607136,232.97412 310.839136,232.31412 C310.071136,231.65412 309.063136,231.32412 307.815136,231.32412 C306.567136,231.32412 305.559136,231.67212 304.791136,232.36812 C304.023136,233.06412 303.639136,233.92812 303.639136,234.96012 C303.639136,235.99212 304.023136,236.85612 304.791136,237.55212 C305.559136,238.24812 306.567136,238.59612 307.815136,238.59612 Z M311.235136,260.26812 L311.235136,240.75612 L304.395136,240.75612 L304.395136,260.26812 L311.235136,260.26812 Z M332.655136,260.26812 L332.655136,255.15612 L323.259136,255.15612 L332.295136,244.75212 L332.295136,240.75612 L314.907136,240.75612 L314.907136,245.83212 L323.691136,245.83212 L314.655136,256.23612 L314.655136,260.26812 L332.655136,260.26812 Z M345.687136,260.59212 C349.335136,260.59212 352.107136,259.53612 354.003136,257.42412 L354.003136,257.42412 L350.403136,253.68012 C349.707136,254.28012 349.017136,254.71212 348.333136,254.97612 C347.649136,255.24012 346.839136,255.37212 345.903136,255.37212 C344.655136,255.37212 343.617136,255.10212 342.789136,254.56212 C341.961136,254.02212 341.403136,253.24812 341.115136,252.24012 L341.115136,252.24012 L355.299136,252.24012 C355.371136,251.16012 355.407136,250.59612 355.407136,250.54812 C355.407136,248.46012 354.945136,246.65412 354.021136,245.13012 C353.097136,243.60612 351.843136,242.44212 350.259136,241.63812 C348.675136,240.83412 346.911136,240.43212 344.967136,240.43212 C342.927136,240.43212 341.091136,240.86412 339.459136,241.72812 C337.827136,242.59212 336.549136,243.78612 335.625136,245.31012 C334.701136,246.83412 334.239136,248.55612 334.239136,250.47612 C334.239136,252.42012 334.713136,254.16012 335.661136,255.69612 C336.609136,257.23212 337.947136,258.43212 339.675136,259.29612 C341.403136,260.16012 343.407136,260.59212 345.687136,260.59212 Z M348.999136,248.64012 L341.007136,248.64012 C341.199136,247.60812 341.649136,246.79212 342.357136,246.19212 C343.065136,245.59212 343.947136,245.29212 345.003136,245.29212 C346.059136,245.29212 346.941136,245.59212 347.649136,246.19212 C348.357136,246.79212 348.807136,247.60812 348.999136,248.64012 L348.999136,248.64012 Z" transform="rotate(-43 251.907 249.45)"/>
    <path fill="#283593" fill-rule="nonzero" d="M477.299136,123.26812 L477.299136,98.0681196 L470.171136,98.0681196 L470.171136,123.26812 L477.299136,123.26812 Z M490.547136,123.59212 C493.091136,123.59212 494.999136,122.83612 496.271136,121.32412 L496.271136,121.32412 L496.271136,123.26812 L502.787136,123.26812 L502.787136,96.5561196 L495.947136,96.5561196 L495.947136,105.44812 C494.675136,104.10412 492.875136,103.43212 490.547136,103.43212 C488.771136,103.43212 487.151136,103.84012 485.687136,104.65612 C484.223136,105.47212 483.065136,106.64212 482.213136,108.16612 C481.361136,109.69012 480.935136,111.46012 480.935136,113.47612 C480.935136,115.49212 481.361136,117.26812 482.213136,118.80412 C483.065136,120.34012 484.223136,121.52212 485.687136,122.35012 C487.151136,123.17812 488.771136,123.59212 490.547136,123.59212 Z M491.987136,118.15612 C490.787136,118.15612 489.803136,117.74212 489.035136,116.91412 C488.267136,116.08612 487.883136,114.94012 487.883136,113.47612 C487.883136,112.03612 488.267136,110.90812 489.035136,110.09212 C489.803136,109.27612 490.787136,108.86812 491.987136,108.86812 C493.187136,108.86812 494.165136,109.27612 494.921136,110.09212 C495.677136,110.90812 496.055136,112.03612 496.055136,113.47612 C496.055136,114.94012 495.671136,116.08612 494.903136,116.91412 C494.135136,117.74212 493.163136,118.15612 491.987136,118.15612 Z M517.403136,123.59212 C521.051136,123.59212 523.823136,122.53612 525.719136,120.42412 L525.719136,120.42412 L522.119136,116.68012 C521.423136,117.28012 520.733136,117.71212 520.049136,117.97612 C519.365136,118.24012 518.555136,118.37212 517.619136,118.37212 C516.371136,118.37212 515.333136,118.10212 514.505136,117.56212 C513.677136,117.02212 513.119136,116.24812 512.831136,115.24012 L512.831136,115.24012 L527.015136,115.24012 C527.087136,114.16012 527.123136,113.59612 527.123136,113.54812 C527.123136,111.46012 526.661136,109.65412 525.737136,108.13012 C524.813136,106.60612 523.559136,105.44212 521.975136,104.63812 C520.391136,103.83412 518.627136,103.43212 516.683136,103.43212 C514.643136,103.43212 512.807136,103.86412 511.175136,104.72812 C509.543136,105.59212 508.265136,106.78612 507.341136,108.31012 C506.417136,109.83412 505.955136,111.55612 505.955136,113.47612 C505.955136,115.42012 506.429136,117.16012 507.377136,118.69612 C508.325136,120.23212 509.663136,121.43212 511.391136,122.29612 C513.119136,123.16012 515.123136,123.59212 517.403136,123.59212 Z M520.715136,111.64012 L512.723136,111.64012 C512.915136,110.60812 513.365136,109.79212 514.073136,109.19212 C514.781136,108.59212 515.663136,108.29212 516.719136,108.29212 C517.775136,108.29212 518.657136,108.59212 519.365136,109.19212 C520.073136,109.79212 520.523136,110.60812 520.715136,111.64012 L520.715136,111.64012 Z M535.907136,123.59212 C538.763136,123.59212 540.683136,122.64412 541.667136,120.74812 L541.667136,120.74812 L541.667136,123.26812 L548.039136,123.26812 L548.039136,112.43212 C548.039136,109.38412 547.187136,107.12212 545.483136,105.64612 C543.779136,104.17012 541.307136,103.43212 538.067136,103.43212 C536.507136,103.43212 534.953136,103.63012 533.405136,104.02612 C531.857136,104.42212 530.543136,104.98012 529.463136,105.70012 L529.463136,105.70012 L531.767136,110.34412 C532.439136,109.81612 533.255136,109.40212 534.215136,109.10212 C535.175136,108.80212 536.123136,108.65212 537.059136,108.65212 C539.699136,108.65212 541.079136,109.68412 541.199136,111.74812 L541.199136,111.74812 L537.311136,111.74812 C534.359136,111.74812 532.175136,112.25812 530.759136,113.27812 C529.343136,114.29812 528.635136,115.73212 528.635136,117.58012 C528.635136,118.73212 528.917136,119.75812 529.481136,120.65812 C530.045136,121.55812 530.879136,122.27212 531.983136,122.80012 C533.087136,123.32812 534.395136,123.59212 535.907136,123.59212 Z M537.815136,119.27212 C537.023136,119.27212 536.399136,119.09212 535.943136,118.73212 C535.487136,118.37212 535.259136,117.89212 535.259136,117.29212 C535.259136,115.97212 536.255136,115.31212 538.247136,115.31212 L538.247136,115.31212 L541.199136,115.31212 L541.199136,117.00412 C540.935136,117.74812 540.503136,118.31212 539.903136,118.69612 C539.303136,119.08012 538.607136,119.27212 537.815136,119.27212 Z M561.071136,123.59212 C562.007136,123.59212 562.889136,123.49612 563.717136,123.30412 C564.545136,123.11212 565.247136,122.83612 565.823136,122.47612 L565.823136,122.47612 L564.131136,117.68812 C563.531136,118.09612 562.835136,118.30012 562.043136,118.30012 C561.419136,118.30012 560.921136,118.10212 560.549136,117.70612 C560.177136,117.31012 559.991136,116.76412 559.991136,116.06812 L559.991136,116.06812 L559.991136,109.58812 L564.455136,109.58812 L564.455136,104.47612 L559.991136,104.47612 L559.991136,99.4001196 L553.151136,99.4001196 L553.151136,104.47612 L550.307136,104.47612 L550.307136,109.58812 L553.151136,109.58812 L553.151136,116.14012 C553.151136,118.61212 553.835136,120.47212 555.203136,121.72012 C556.571136,122.96812 558.527136,123.59212 561.071136,123.59212 Z M578.099136,123.59212 C581.747136,123.59212 584.519136,122.53612 586.415136,120.42412 L586.415136,120.42412 L582.815136,116.68012 C582.119136,117.28012 581.429136,117.71212 580.745136,117.97612 C580.061136,118.24012 579.251136,118.37212 578.315136,118.37212 C577.067136,118.37212 576.029136,118.10212 575.201136,117.56212 C574.373136,117.02212 573.815136,116.24812 573.527136,115.24012 L573.527136,115.24012 L587.711136,115.24012 C587.783136,114.16012 587.819136,113.59612 587.819136,113.54812 C587.819136,111.46012 587.357136,109.65412 586.433136,108.13012 C585.509136,106.60612 584.255136,105.44212 582.671136,104.63812 C581.087136,103.83412 579.323136,103.43212 577.379136,103.43212 C575.339136,103.43212 573.503136,103.86412 571.871136,104.72812 C570.239136,105.59212 568.961136,106.78612 568.037136,108.31012 C567.113136,109.83412 566.651136,111.55612 566.651136,113.47612 C566.651136,115.42012 567.125136,117.16012 568.073136,118.69612 C569.021136,120.23212 570.359136,121.43212 572.087136,122.29612 C573.815136,123.16012 575.819136,123.59212 578.099136,123.59212 Z M581.411136,111.64012 L573.419136,111.64012 C573.611136,110.60812 574.061136,109.79212 574.769136,109.19212 C575.477136,108.59212 576.359136,108.29212 577.415136,108.29212 C578.471136,108.29212 579.353136,108.59212 580.061136,109.19212 C580.769136,109.79212 581.219136,110.60812 581.411136,111.64012 L581.411136,111.64012 Z M610.427136,123.77212 C612.011136,123.77212 613.523136,123.55012 614.963136,123.10612 C616.403136,122.66212 617.711136,122.02012 618.887136,121.18012 L618.887136,121.18012 L621.731136,123.70012 L625.403136,119.48812 L622.739136,117.11212 C623.819136,115.45612 624.599136,113.54812 625.079136,111.38812 L625.079136,111.38812 L619.571136,109.73212 C619.307136,111.07612 618.935136,112.27612 618.455136,113.33212 L618.455136,113.33212 L614.783136,110.05612 C616.391136,109.16812 617.573136,108.22012 618.329136,107.21212 C619.085136,106.20412 619.463136,105.05212 619.463136,103.75612 C619.463136,101.90812 618.749136,100.43812 617.321136,99.3461196 C615.893136,98.2541196 614.015136,97.7081196 611.687136,97.7081196 C610.007136,97.7081196 608.525136,97.9781196 607.241136,98.5181196 C605.957136,99.0581196 604.967136,99.8201196 604.271136,100.80412 C603.575136,101.78812 603.227136,102.91612 603.227136,104.18812 C603.227136,105.94012 604.031136,107.63212 605.639136,109.26412 C603.815136,110.24812 602.483136,111.33412 601.643136,112.52212 C600.803136,113.71012 600.383136,115.09612 600.383136,116.68012 C600.383136,118.02412 600.815136,119.23612 601.679136,120.31612 C602.543136,121.39612 603.743136,122.24212 605.279136,122.85412 C606.815136,123.46612 608.531136,123.77212 610.427136,123.77212 Z M611.075136,106.70812 C610.451136,106.10812 610.025136,105.62212 609.797136,105.25012 C609.569136,104.87812 609.455136,104.48812 609.455136,104.08012 C609.455136,103.52812 609.653136,103.07812 610.049136,102.73012 C610.445136,102.38212 610.991136,102.20812 611.687136,102.20812 C612.335136,102.20812 612.833136,102.35812 613.181136,102.65812 C613.529136,102.95812 613.703136,103.37212 613.703136,103.90012 C613.703136,104.38012 613.505136,104.84212 613.109136,105.28612 C612.713136,105.73012 612.035136,106.20412 611.075136,106.70812 Z M610.931136,118.55212 C609.755136,118.55212 608.819136,118.30612 608.123136,117.81412 C607.427136,117.32212 607.079136,116.69212 607.079136,115.92412 C607.079136,115.27612 607.259136,114.69412 607.619136,114.17812 C607.979136,113.66212 608.555136,113.16412 609.347136,112.68412 L609.347136,112.68412 L614.783136,117.50812 C613.607136,118.20412 612.323136,118.55212 610.931136,118.55212 Z M477.299136,167.26812 L477.299136,160.68012 L481.691136,160.68012 C483.971136,160.68012 485.951136,160.30212 487.631136,159.54612 C489.311136,158.79012 490.607136,157.71612 491.519136,156.32412 C492.431136,154.93212 492.887136,153.28812 492.887136,151.39212 C492.887136,149.49612 492.431136,147.84612 491.519136,146.44212 C490.607136,145.03812 489.311136,143.95812 487.631136,143.20212 C485.951136,142.44612 483.971136,142.06812 481.691136,142.06812 L481.691136,142.06812 L470.171136,142.06812 L470.171136,167.26812 L477.299136,167.26812 Z M481.259136,155.06412 L477.299136,155.06412 L477.299136,147.68412 L481.259136,147.68412 C482.723136,147.68412 483.827136,148.00812 484.571136,148.65612 C485.315136,149.30412 485.687136,150.21612 485.687136,151.39212 C485.687136,152.56812 485.315136,153.47412 484.571136,154.11012 C483.827136,154.74612 482.723136,155.06412 481.259136,155.06412 L481.259136,155.06412 Z M503.039136,167.26812 L503.039136,158.30412 C503.039136,156.67212 503.453136,155.46012 504.281136,154.66812 C505.109136,153.87612 506.255136,153.48012 507.719136,153.48012 C508.127136,153.48012 508.643136,153.51612 509.267136,153.58812 L509.267136,153.58812 L509.267136,147.43212 C507.827136,147.43212 506.549136,147.65412 505.433136,148.09812 C504.317136,148.54212 503.411136,149.20812 502.715136,150.09612 L502.715136,150.09612 L502.715136,147.75612 L496.199136,147.75612 L496.199136,167.26812 L503.039136,167.26812 Z M521.687136,167.59212 C523.799136,167.59212 525.695136,167.16012 527.375136,166.29612 C529.055136,165.43212 530.363136,164.23212 531.299136,162.69612 C532.235136,161.16012 532.703136,159.42012 532.703136,157.47612 C532.703136,155.53212 532.235136,153.79812 531.299136,152.27412 C530.363136,150.75012 529.055136,149.56212 527.375136,148.71012 C525.695136,147.85812 523.799136,147.43212 521.687136,147.43212 C519.575136,147.43212 517.685136,147.85812 516.017136,148.71012 C514.349136,149.56212 513.041136,150.75612 512.093136,152.29212 C511.145136,153.82812 510.671136,155.55612 510.671136,157.47612 C510.671136,159.42012 511.145136,161.16012 512.093136,162.69612 C513.041136,164.23212 514.355136,165.43212 516.035136,166.29612 C517.715136,167.16012 519.599136,167.59212 521.687136,167.59212 Z M521.687136,162.15612 C520.487136,162.15612 519.503136,161.74212 518.735136,160.91412 C517.967136,160.08612 517.583136,158.94012 517.583136,157.47612 C517.583136,156.03612 517.967136,154.90812 518.735136,154.09212 C519.503136,153.27612 520.487136,152.86812 521.687136,152.86812 C522.887136,152.86812 523.871136,153.27612 524.639136,154.09212 C525.407136,154.90812 525.791136,156.03612 525.791136,157.47612 C525.791136,158.94012 525.407136,160.08612 524.639136,160.91412 C523.871136,161.74212 522.887136,162.15612 521.687136,162.15612 Z M544.583136,167.59212 C545.519136,167.59212 546.401136,167.49612 547.229136,167.30412 C548.057136,167.11212 548.759136,166.83612 549.335136,166.47612 L549.335136,166.47612 L547.643136,161.68812 C547.043136,162.09612 546.347136,162.30012 545.555136,162.30012 C544.931136,162.30012 544.433136,162.10212 544.061136,161.70612 C543.689136,161.31012 543.503136,160.76412 543.503136,160.06812 L543.503136,160.06812 L543.503136,153.58812 L547.967136,153.58812 L547.967136,148.47612 L543.503136,148.47612 L543.503136,143.40012 L536.663136,143.40012 L536.663136,148.47612 L533.819136,148.47612 L533.819136,153.58812 L536.663136,153.58812 L536.663136,160.14012 C536.663136,162.61212 537.347136,164.47212 538.715136,165.72012 C540.083136,166.96812 542.039136,167.59212 544.583136,167.59212 Z M561.179136,167.59212 C563.291136,167.59212 565.187136,167.16012 566.867136,166.29612 C568.547136,165.43212 569.855136,164.23212 570.791136,162.69612 C571.727136,161.16012 572.195136,159.42012 572.195136,157.47612 C572.195136,155.53212 571.727136,153.79812 570.791136,152.27412 C569.855136,150.75012 568.547136,149.56212 566.867136,148.71012 C565.187136,147.85812 563.291136,147.43212 561.179136,147.43212 C559.067136,147.43212 557.177136,147.85812 555.509136,148.71012 C553.841136,149.56212 552.533136,150.75612 551.585136,152.29212 C550.637136,153.82812 550.163136,155.55612 550.163136,157.47612 C550.163136,159.42012 550.637136,161.16012 551.585136,162.69612 C552.533136,164.23212 553.847136,165.43212 555.527136,166.29612 C557.207136,167.16012 559.091136,167.59212 561.179136,167.59212 Z M561.179136,162.15612 C559.979136,162.15612 558.995136,161.74212 558.227136,160.91412 C557.459136,160.08612 557.075136,158.94012 557.075136,157.47612 C557.075136,156.03612 557.459136,154.90812 558.227136,154.09212 C558.995136,153.27612 559.979136,152.86812 561.179136,152.86812 C562.379136,152.86812 563.363136,153.27612 564.131136,154.09212 C564.899136,154.90812 565.283136,156.03612 565.283136,157.47612 C565.283136,158.94012 564.899136,160.08612 564.131136,160.91412 C563.363136,161.74212 562.379136,162.15612 561.179136,162.15612 Z M584.075136,167.59212 C585.011136,167.59212 585.893136,167.49612 586.721136,167.30412 C587.549136,167.11212 588.251136,166.83612 588.827136,166.47612 L588.827136,166.47612 L587.135136,161.68812 C586.535136,162.09612 585.839136,162.30012 585.047136,162.30012 C584.423136,162.30012 583.925136,162.10212 583.553136,161.70612 C583.181136,161.31012 582.995136,160.76412 582.995136,160.06812 L582.995136,160.06812 L582.995136,153.58812 L587.459136,153.58812 L587.459136,148.47612 L582.995136,148.47612 L582.995136,143.40012 L576.155136,143.40012 L576.155136,148.47612 L573.311136,148.47612 L573.311136,153.58812 L576.155136,153.58812 L576.155136,160.14012 C576.155136,162.61212 576.839136,164.47212 578.207136,165.72012 C579.575136,166.96812 581.531136,167.59212 584.075136,167.59212 Z M594.443136,174.57612 C596.483136,174.57612 598.211136,174.09012 599.627136,173.11812 C601.043136,172.14612 602.243136,170.46012 603.227136,168.06012 L603.227136,168.06012 L611.651136,147.75612 L605.135136,147.75612 L600.311136,159.67212 L595.523136,147.75612 L588.503136,147.75612 L596.855136,167.52012 C596.567136,168.09612 596.213136,168.51612 595.793136,168.78012 C595.373136,169.04412 594.839136,169.17612 594.191136,169.17612 C593.639136,169.17612 593.093136,169.07412 592.553136,168.87012 C592.013136,168.66612 591.551136,168.38412 591.167136,168.02412 L591.167136,168.02412 L588.791136,172.81212 C589.439136,173.34012 590.285136,173.76612 591.329136,174.09012 C592.373136,174.41412 593.411136,174.57612 594.443136,174.57612 Z M620.255136,174.25212 L620.255136,165.54012 C621.599136,166.90812 623.411136,167.59212 625.691136,167.59212 C627.467136,167.59212 629.081136,167.17812 630.533136,166.35012 C631.985136,165.52212 633.137136,164.34612 633.989136,162.82212 C634.841136,161.29812 635.267136,159.52812 635.267136,157.51212 C635.267136,155.49612 634.841136,153.72612 633.989136,152.20212 C633.137136,150.67812 631.985136,149.50212 630.533136,148.67412 C629.081136,147.84612 627.467136,147.43212 625.691136,147.43212 C623.123136,147.43212 621.203136,148.18812 619.931136,149.70012 L619.931136,149.70012 L619.931136,147.75612 L613.415136,147.75612 L613.415136,174.25212 L620.255136,174.25212 Z M624.251136,162.15612 C623.051136,162.15612 622.067136,161.74212 621.299136,160.91412 C620.531136,160.08612 620.147136,158.95212 620.147136,157.51212 C620.147136,156.07212 620.531136,154.93812 621.299136,154.11012 C622.067136,153.28212 623.051136,152.86812 624.251136,152.86812 C625.451136,152.86812 626.435136,153.28212 627.203136,154.11012 C627.971136,154.93812 628.355136,156.07212 628.355136,157.51212 C628.355136,158.95212 627.971136,160.08612 627.203136,160.91412 C626.435136,161.74212 625.451136,162.15612 624.251136,162.15612 Z M648.659136,167.59212 C652.307136,167.59212 655.079136,166.53612 656.975136,164.42412 L656.975136,164.42412 L653.375136,160.68012 C652.679136,161.28012 651.989136,161.71212 651.305136,161.97612 C650.621136,162.24012 649.811136,162.37212 648.875136,162.37212 C647.627136,162.37212 646.589136,162.10212 645.761136,161.56212 C644.933136,161.02212 644.375136,160.24812 644.087136,159.24012 L644.087136,159.24012 L658.271136,159.24012 C658.343136,158.16012 658.379136,157.59612 658.379136,157.54812 C658.379136,155.46012 657.917136,153.65412 656.993136,152.13012 C656.069136,150.60612 654.815136,149.44212 653.231136,148.63812 C651.647136,147.83412 649.883136,147.43212 647.939136,147.43212 C645.899136,147.43212 644.063136,147.86412 642.431136,148.72812 C640.799136,149.59212 639.521136,150.78612 638.597136,152.31012 C637.673136,153.83412 637.211136,155.55612 637.211136,157.47612 C637.211136,159.42012 637.685136,161.16012 638.633136,162.69612 C639.581136,164.23212 640.919136,165.43212 642.647136,166.29612 C644.375136,167.16012 646.379136,167.59212 648.659136,167.59212 Z M651.971136,155.64012 L643.979136,155.64012 C644.171136,154.60812 644.621136,153.79212 645.329136,153.19212 C646.037136,152.59212 646.919136,152.29212 647.975136,152.29212 C649.031136,152.29212 649.913136,152.59212 650.621136,153.19212 C651.329136,153.79212 651.779136,154.60812 651.971136,155.64012 L651.971136,155.64012 Z" transform="rotate(-43 564.275 135.566)"/>
    <path fill="#283593" fill-rule="nonzero" d="M648.663136,262.26812 L648.663136,242.72012 L656.367136,242.72012 L656.367136,237.06812 L633.795136,237.06812 L633.795136,242.72012 L641.535136,242.72012 L641.535136,262.26812 L648.663136,262.26812 Z M666.951136,262.59212 C670.599136,262.59212 673.371136,261.53612 675.267136,259.42412 L675.267136,259.42412 L671.667136,255.68012 C670.971136,256.28012 670.281136,256.71212 669.597136,256.97612 C668.913136,257.24012 668.103136,257.37212 667.167136,257.37212 C665.919136,257.37212 664.881136,257.10212 664.053136,256.56212 C663.225136,256.02212 662.667136,255.24812 662.379136,254.24012 L662.379136,254.24012 L676.563136,254.24012 C676.635136,253.16012 676.671136,252.59612 676.671136,252.54812 C676.671136,250.46012 676.209136,248.65412 675.285136,247.13012 C674.361136,245.60612 673.107136,244.44212 671.523136,243.63812 C669.939136,242.83412 668.175136,242.43212 666.231136,242.43212 C664.191136,242.43212 662.355136,242.86412 660.723136,243.72812 C659.091136,244.59212 657.813136,245.78612 656.889136,247.31012 C655.965136,248.83412 655.503136,250.55612 655.503136,252.47612 C655.503136,254.42012 655.977136,256.16012 656.925136,257.69612 C657.873136,259.23212 659.211136,260.43212 660.939136,261.29612 C662.667136,262.16012 664.671136,262.59212 666.951136,262.59212 Z M670.263136,250.64012 L662.271136,250.64012 C662.463136,249.60812 662.913136,248.79212 663.621136,248.19212 C664.329136,247.59212 665.211136,247.29212 666.267136,247.29212 C667.323136,247.29212 668.205136,247.59212 668.913136,248.19212 C669.621136,248.79212 670.071136,249.60812 670.263136,250.64012 L670.263136,250.64012 Z M686.931136,262.59212 C688.971136,262.59212 690.717136,262.31612 692.169136,261.76412 C693.621136,261.21212 694.719136,260.45012 695.463136,259.47812 C696.207136,258.50612 696.579136,257.40812 696.579136,256.18412 C696.579136,254.69612 696.189136,253.53812 695.409136,252.71012 C694.629136,251.88212 693.711136,251.31212 692.655136,251.00012 C691.599136,250.68812 690.267136,250.41212 688.659136,250.17212 C687.387136,249.98012 686.475136,249.79412 685.923136,249.61412 C685.371136,249.43412 685.095136,249.11612 685.095136,248.66012 C685.095136,248.25212 685.347136,247.92212 685.851136,247.67012 C686.355136,247.41812 687.147136,247.29212 688.227136,247.29212 C690.243136,247.29212 692.115136,247.77212 693.843136,248.73212 L693.843136,248.73212 L695.895136,244.08812 C694.959136,243.56012 693.795136,243.15212 692.403136,242.86412 C691.011136,242.57612 689.607136,242.43212 688.191136,242.43212 C686.199136,242.43212 684.489136,242.71412 683.061136,243.27812 C681.633136,243.84212 680.547136,244.61012 679.803136,245.58212 C679.059136,246.55412 678.687136,247.66412 678.687136,248.91212 C678.687136,250.42412 679.083136,251.60012 679.875136,252.44012 C680.667136,253.28012 681.609136,253.85612 682.701136,254.16812 C683.793136,254.48012 685.119136,254.73212 686.679136,254.92412 C687.903136,255.09212 688.797136,255.26612 689.361136,255.44612 C689.925136,255.62612 690.207136,255.93212 690.207136,256.36412 C690.207136,256.79612 689.973136,257.12612 689.505136,257.35412 C689.037136,257.58212 688.251136,257.69612 687.147136,257.69612 C685.947136,257.69612 684.735136,257.53412 683.511136,257.21012 C682.287136,256.88612 681.231136,256.44812 680.343136,255.89612 L680.343136,255.89612 L678.291136,260.57612 C679.251136,261.17612 680.523136,261.66212 682.107136,262.03412 C683.691136,262.40612 685.299136,262.59212 686.931136,262.59212 Z M708.243136,262.59212 C709.179136,262.59212 710.061136,262.49612 710.889136,262.30412 C711.717136,262.11212 712.419136,261.83612 712.995136,261.47612 L712.995136,261.47612 L711.303136,256.68812 C710.703136,257.09612 710.007136,257.30012 709.215136,257.30012 C708.591136,257.30012 708.093136,257.10212 707.721136,256.70612 C707.349136,256.31012 707.163136,255.76412 707.163136,255.06812 L707.163136,255.06812 L707.163136,248.58812 L711.627136,248.58812 L711.627136,243.47612 L707.163136,243.47612 L707.163136,238.40012 L700.323136,238.40012 L700.323136,243.47612 L697.479136,243.47612 L697.479136,248.58812 L700.323136,248.58812 L700.323136,255.14012 C700.323136,257.61212 701.007136,259.47212 702.375136,260.72012 C703.743136,261.96812 705.699136,262.59212 708.243136,262.59212 Z" transform="rotate(-43 673.395 249.83)"/>
  </g>
</svg>
