<svg width="207" height="29" viewBox="0 0 207 29" fill="none" xmlns="http://www.w3.org/2000/svg">
<g clip-path="url(#clip0_691_412)">
<path d="M0 21.7515L13.0242 14.5L26.0483 21.7515L13.0242 29L0 21.7515Z" fill="#626B77"/>
<path d="M6.51061 3.62573L0 7.24856L6.51354 10.8743L13.0242 7.24856L6.51061 3.62573Z" fill="#626B77"/>
<path d="M13.0214 0L6.51367 3.62283L13.0243 7.24855L19.5349 3.62572L13.0214 0Z" fill="#626B77"/>
<path d="M19.535 3.62573L13.0244 7.24856L19.535 10.8743L26.0456 7.24856L19.535 3.62573Z" fill="#626B77"/>
<path d="M39.1602 25.1626V3.59668H42.7746V25.1626H39.1602Z" fill="#626B77"/>
<path d="M49.1328 25.1626V3.59668H52.7472L57.329 16.9287V3.59668H60.6326V25.1626H57.2029L52.4365 11.1438V25.1626H49.1328Z" fill="#626B77"/>
<path d="M92.5444 6.73839H88.8978V25.1626H85.2834V6.73839H81.6367V3.59668H92.5444V6.73839Z" fill="#626B77"/>
<path d="M105.726 25.1626L102.95 16.5664H101.133V25.1626H97.5303V3.59668H103.185C106.489 3.59668 108.67 4.8893 108.67 8.15564V12.0074C108.67 14.071 107.79 15.3665 106.301 16.0128L109.417 25.1626H105.726ZM101.133 13.4855H103.032C104.205 13.4855 105.029 13.0537 105.029 11.5147V8.70921C105.029 7.17024 104.217 6.73839 103.032 6.73839H101.133V13.4855Z" fill="#626B77"/>
<path d="M125.513 20.85C125.513 24.1772 123.394 25.409 120.09 25.409H119.967C116.663 25.409 114.544 24.2091 114.544 20.85V3.59668H118.158V20.2878C118.158 21.8267 118.844 22.2586 120.029 22.2586C121.213 22.2586 121.899 21.8267 121.899 20.2878V3.59668H125.513V20.85Z" fill="#626B77"/>
<path d="M142.591 20.85C142.591 24.1772 140.41 25.409 137.107 25.409H137.045C133.742 25.409 131.561 24.2091 131.561 20.85V7.90931C131.561 4.70383 133.742 3.35034 137.045 3.35034H137.107C140.41 3.35034 142.591 4.70383 142.591 7.90931V10.4047H138.977V8.46287C138.977 6.95288 138.229 6.49206 137.074 6.49206C135.92 6.49206 135.175 6.95288 135.175 8.46287V20.2878C135.175 21.7949 135.922 22.2586 137.074 22.2586C138.227 22.2586 138.977 21.7949 138.977 20.2878V17.8301H142.591V20.85Z" fill="#626B77"/>
<path d="M158.11 6.73839H154.463V25.1626H150.849V6.73839H147.202V3.59668H158.11V6.73839Z" fill="#626B77"/>
<path d="M174.004 20.85C174.004 24.1772 171.885 25.409 168.581 25.409H168.455C165.155 25.409 163.035 24.2091 163.035 20.85V3.59668H166.65V20.2878C166.65 21.8267 167.336 22.2586 168.52 22.2586C169.704 22.2586 170.39 21.8267 170.39 20.2878V3.59668H174.004V20.85Z" fill="#626B77"/>
<path d="M188.371 25.1626L185.595 16.5664H183.798V25.1626H180.175V3.59668H185.815C189.118 3.59668 191.299 4.8893 191.299 8.15564V12.0074C191.299 14.071 190.42 15.3665 188.931 16.0128L192.047 25.1626H188.371ZM183.798 13.4855H185.698C186.87 13.4855 187.694 13.0537 187.694 11.5147V8.70921C187.694 7.17024 186.882 6.73839 185.698 6.73839H183.798V13.4855Z" fill="#626B77"/>
<path d="M73.6565 9.85404V8.28028C73.6565 6.9239 72.8797 6.43119 71.8186 6.43119C70.7574 6.43119 69.9806 6.9239 69.9806 8.28028V9.7584C69.9806 10.8684 70.3529 11.3611 71.3818 11.9466L73.9379 13.3638C76.0251 14.5231 77.2739 15.4883 77.2739 17.8011V20.9109C77.2739 24.2381 75.1838 25.409 71.8801 25.409H71.8186C68.5149 25.409 66.4277 24.27 66.4277 20.9109V18.5923H69.9806V20.4095C69.9806 21.734 70.7603 22.3195 71.8508 22.3195C72.9413 22.3195 73.721 21.7398 73.721 20.4095V18.7227C73.721 17.6156 73.3781 17.0591 72.2876 16.4737L69.7666 15.0709C67.6472 13.871 66.4307 12.8856 66.4307 10.6337V7.78468C66.4307 4.59659 68.7992 3.35034 71.7922 3.35034H71.8537C74.8437 3.35034 77.2123 4.5821 77.2123 7.78468V9.85404H73.6565Z" fill="#626B77"/>
<path d="M197.344 25.151V3.59668H206.906V6.7355H200.958V12.6479H205.939V15.7897H200.958V22.0093H207V25.151H197.344Z" fill="#626B77"/>
</g>
<defs>
<clipPath id="clip0_691_412">
<rect width="207" height="29" fill="white"/>
</clipPath>
</defs>
</svg>
