<svg width="121" height="39" viewBox="0 0 121 39" fill="none" xmlns="http://www.w3.org/2000/svg">
<g clip-path="url(#clip0_691_360)">
<mask id="mask0_691_360" style="mask-type:luminance" maskUnits="userSpaceOnUse" x="37" y="28" width="84" height="11">
<path d="M120.725 28.4075H37.1426V38.3575H120.725V28.4075Z" fill="white"/>
</mask>
<g mask="url(#mask0_691_360)">
<path d="M55.6438 30.8628C55.2589 30.5848 54.8235 30.4319 54.3536 30.3731C53.7389 30.2958 53.1456 30.363 52.5843 30.6402C52.0284 30.914 51.6479 31.3491 51.4044 31.906C51.2382 32.2848 51.178 32.6872 51.1663 33.0979C51.1517 33.5993 51.2052 34.0915 51.4044 34.5586C51.6114 35.0432 51.9297 35.4413 52.388 35.716C53.0382 36.1066 53.7457 36.1939 54.4843 36.0755C55.0301 35.9882 55.5184 35.7681 55.9339 35.4019C56.1949 35.1726 56.3839 34.8929 56.5282 34.5745C56.5477 34.5325 56.5156 34.4838 56.468 34.4838H55.414C55.3921 34.4838 55.3707 34.4947 55.3576 34.5124C55.2682 34.6316 55.1632 34.7383 55.0388 34.829C54.7011 35.0743 54.3181 35.1818 53.9027 35.1835C53.5382 35.1843 53.2024 35.0894 52.9055 34.8735C52.6329 34.6745 52.4589 34.4065 52.3588 34.0907C52.3258 33.9874 52.3049 33.8807 52.2801 33.769C52.2709 33.7253 52.3039 33.6842 52.3496 33.6842H56.605C56.641 33.6842 56.6716 33.659 56.6755 33.6237C56.7537 33.0584 56.6755 32.3957 56.45 31.8783C56.2731 31.4718 56.0083 31.1257 55.6438 30.862V30.8628ZM55.5073 32.7418H52.3578C52.3146 32.7418 52.2811 32.704 52.2879 32.6611C52.4142 31.9035 52.9463 31.3365 53.7569 31.2861C54.7638 31.2239 55.4193 31.7783 55.5777 32.6594C55.5855 32.7023 55.5515 32.7409 55.5073 32.7409V32.7418Z" fill="#626B77"/>
<path d="M67.2241 30.3115C66.4028 30.3241 65.7473 30.6156 65.3712 31.3959V31.3942L65.2453 30.4611C65.2404 30.4266 65.2108 30.4006 65.1758 30.4006H64.2394C64.2 30.4006 64.1689 30.4317 64.1689 30.4703V35.9795C64.1689 36.0181 64.2 36.0492 64.2394 36.0492H65.3007C65.3396 36.0492 65.3712 36.0181 65.3712 35.9795V33.3656C65.377 33.033 65.4343 32.7037 65.5456 32.3879C65.6345 32.1334 65.7565 31.8974 65.9592 31.7092C66.205 31.4808 66.5102 31.3884 66.8314 31.3405C66.9631 31.3211 67.0968 31.3128 67.2309 31.3018C67.2673 31.2985 67.2955 31.2682 67.2955 31.2321V30.3821C67.2955 30.3434 67.263 30.3115 67.2241 30.3115Z" fill="#626B77"/>
<path d="M49.0165 36.0157C49.0437 36.0426 49.0806 36.0577 49.12 36.0577H50.5593C50.6065 36.0577 50.6449 36.0199 50.6449 35.9728V35.0943C50.6449 35.0472 50.6065 35.0094 50.5593 35.0094H49.3756C49.3226 35.0094 49.2784 34.9666 49.2784 34.9129V31.1834H50.4592C50.5069 31.1834 50.5448 31.1456 50.5448 31.0986V30.22C50.5448 30.173 50.5069 30.1352 50.4592 30.1352H49.2784V28.4923C49.2784 28.4301 49.2133 28.389 49.1564 28.4158L48.2305 28.8484C48.2009 28.8627 48.1822 28.8921 48.1822 28.9249V30.136H47.7253C47.6778 30.136 47.6396 30.1738 47.6396 30.2209V31.0995C47.6396 31.1465 47.6778 31.1843 47.7253 31.1843H48.1822V35.1296C48.1822 35.1682 48.1975 35.2043 48.2246 35.232L49.0165 36.0166V36.0157Z" fill="#626B77"/>
<path d="M62.0553 30.6904C61.6466 30.4586 61.183 30.3427 60.6631 30.3427C59.8841 30.3427 59.2679 30.6443 58.815 31.2473L58.661 28.5183C58.6576 28.4562 58.5895 28.4192 58.5346 28.4495L57.6565 28.8753C57.6293 28.8904 57.6133 28.9181 57.6133 28.9492V35.9737C57.6133 36.0199 57.6512 36.0577 57.6978 36.0577H58.5881C58.6294 36.0577 58.6644 36.0283 58.6722 35.988L58.8043 35.2413C58.9973 35.5134 59.2495 35.7285 59.5614 35.8863C59.8729 36.0443 60.2403 36.1232 60.6631 36.1232C61.183 36.1232 61.6466 36.0014 62.0553 35.7595C62.463 35.5168 62.7828 35.1766 63.0131 34.739C63.2429 34.3014 63.3581 33.7999 63.3581 33.2329C63.3581 32.6374 63.2429 32.1225 63.0131 31.6883C62.7832 31.254 62.464 30.9214 62.0553 30.6896V30.6904ZM61.6558 34.739C61.338 35.117 60.9216 35.3051 60.4079 35.3051C59.8943 35.3051 59.4808 35.1144 59.1664 34.7331C58.8515 34.3518 58.695 33.8587 58.695 33.2548C58.695 32.6509 58.8515 32.1738 59.1664 31.8C59.4808 31.4262 59.8943 31.2397 60.4079 31.2397C60.9216 31.2397 61.3371 31.4287 61.6558 31.8059C61.9737 32.1838 62.133 32.6702 62.133 33.2665C62.133 33.8629 61.9737 34.3619 61.6558 34.739Z" fill="#626B77"/>
<path d="M73.1847 30.409H72.2944C72.2526 30.409 72.2172 30.4384 72.2104 30.4788L72.0782 31.2364C71.8848 30.9567 71.6331 30.7383 71.3211 30.5803C71.0091 30.4225 70.6422 30.3435 70.219 30.3435C69.7073 30.3435 69.2466 30.4628 68.8384 30.7022C68.4297 30.9416 68.109 31.28 67.8753 31.7168C67.641 32.1545 67.5244 32.6601 67.5244 33.2338C67.5244 33.8075 67.6396 34.3349 67.8694 34.7726C68.0988 35.2102 68.4186 35.5445 68.8272 35.7763C69.2349 36.0081 69.6995 36.124 70.219 36.124C70.6345 36.124 70.9984 36.0392 71.3104 35.8704C71.6224 35.7015 71.878 35.4773 72.0782 35.1976L72.2002 35.9863C72.207 36.0274 72.2429 36.0577 72.2842 36.0577H73.1837C73.2304 36.0577 73.2683 36.0199 73.2683 35.9737V30.4939C73.2683 30.4477 73.2304 30.4099 73.1837 30.4099L73.1847 30.409ZM71.6661 34.7331C71.3517 35.1144 70.9382 35.3051 70.4245 35.3051C69.9104 35.3051 69.4954 35.1161 69.1766 34.739C68.8583 34.3618 68.6989 33.8705 68.6989 33.2665C68.6989 32.6626 68.8583 32.1838 69.1766 31.8059C69.4944 31.4287 69.9104 31.2397 70.4245 31.2397C70.9382 31.2397 71.3517 31.4262 71.6661 31.8C71.9805 32.1738 72.1375 32.6584 72.1375 33.2548C72.1375 33.8511 71.9805 34.3517 71.6661 34.7331Z" fill="#626B77"/>
<path d="M82.3941 34.0369L82.3873 34.1267C82.3655 34.4291 82.2969 34.6996 82.1847 34.9297C82.0719 35.1599 81.9169 35.3699 81.723 35.5546C81.5209 35.7478 81.2818 35.8998 81.0131 36.0065C80.7443 36.1141 80.4309 36.1687 80.0825 36.1687C79.5713 36.1687 79.1422 36.0653 78.8093 35.8612C78.4794 35.6588 78.2097 35.4068 78.009 35.112C77.8598 34.8902 77.7427 34.6215 77.6615 34.314C77.5809 34.0083 77.5391 33.6438 77.5391 33.2296C77.5391 32.8156 77.5809 32.4519 77.6615 32.1461C77.7427 31.8379 77.8598 31.5699 78.009 31.3482C78.2097 31.0534 78.4794 30.8014 78.8093 30.5989C79.1422 30.3948 79.5669 30.2915 80.0723 30.2915C80.4056 30.2915 80.7133 30.3444 80.9854 30.4477C81.2585 30.5519 81.4966 30.7023 81.6915 30.8954C81.8839 31.0794 82.0418 31.2911 82.157 31.5246C82.2731 31.7589 82.3436 32.0344 82.3664 32.3443L82.3723 32.4342H81.2745L81.2658 32.3595C81.2454 32.1839 81.2021 32.0294 81.1389 31.8984C81.0743 31.7682 80.9936 31.6548 80.9003 31.5615C80.8022 31.4708 80.6802 31.3952 80.5388 31.3389C80.3979 31.2827 80.2399 31.2541 80.0723 31.2541C79.8755 31.2541 79.7054 31.2852 79.5654 31.3482C79.4211 31.4129 79.2889 31.4943 79.1728 31.5884C78.9726 31.7606 78.8336 31.9958 78.7627 32.2839C78.6888 32.5837 78.6514 32.9021 78.6514 33.2296C78.6514 33.5572 78.6888 33.8764 78.7627 34.1763C78.8336 34.4652 78.9726 34.6996 79.1747 34.8726C79.2889 34.9667 79.4211 35.0473 79.5654 35.112C79.7054 35.175 79.8755 35.2061 80.0723 35.2061C80.2477 35.2061 80.4139 35.1758 80.5655 35.1162C80.7157 35.0565 80.843 34.9734 80.9412 34.8684C81.0369 34.7735 81.1132 34.666 81.17 34.5459C81.2279 34.4257 81.2667 34.2796 81.2881 34.1108L81.2964 34.0369H82.3941Z" fill="#626B77"/>
<path d="M87.9082 31.9949C87.7964 31.6027 87.5821 31.2508 87.2682 30.9483C87.0597 30.7485 86.809 30.588 86.5223 30.4696C86.2351 30.3512 85.9085 30.2915 85.5523 30.2915C85.1966 30.2915 84.871 30.3512 84.5834 30.4696C84.2962 30.588 84.0454 30.7485 83.8369 30.9483C83.524 31.2508 83.3087 31.6027 83.1965 31.9949C83.0866 32.3796 83.0312 32.7954 83.0312 33.2296C83.0312 33.6639 83.0866 34.0805 83.1965 34.4652C83.3087 34.8575 83.524 35.2095 83.8369 35.5118C84.0459 35.7117 84.2971 35.873 84.5834 35.9906C84.871 36.1082 85.1966 36.1687 85.5523 36.1687C85.9085 36.1687 86.2351 36.1082 86.5223 35.9906C86.808 35.873 87.0597 35.7117 87.2692 35.5118C87.5821 35.2095 87.7964 34.8575 87.9082 34.4652C88.0185 34.0805 88.0744 33.6648 88.0744 33.2296C88.0744 32.7946 88.0185 32.3796 87.9082 31.9949ZM85.5523 35.217C85.3492 35.217 85.1694 35.1834 85.0183 35.1171C84.8657 35.0498 84.7345 34.9625 84.6285 34.8567C84.4444 34.6676 84.3175 34.4283 84.2485 34.1444C84.1786 33.8521 84.1426 33.5438 84.1426 33.2296C84.1426 32.9155 84.1786 32.6081 84.2485 32.3158C84.3175 32.0319 84.4444 31.7925 84.6266 31.6044C84.7345 31.4985 84.8667 31.4103 85.0183 31.3432C85.1694 31.2768 85.3492 31.2432 85.5523 31.2432C85.7559 31.2432 85.9357 31.2768 86.0864 31.3432C86.239 31.4103 86.3707 31.4977 86.4776 31.6035C86.6603 31.7917 86.7886 32.0319 86.8561 32.3158C86.9266 32.6089 86.9625 32.9163 86.9625 33.2296C86.9625 33.5429 86.9266 33.8512 86.8561 34.1444C86.7886 34.4283 86.6603 34.6685 86.478 34.8558C86.3706 34.9625 86.239 35.0498 86.0864 35.1171C85.9367 35.1834 85.7569 35.217 85.5523 35.217Z" fill="#626B77"/>
<path d="M96.7059 32.3712V36.0292H95.6159V32.4897C95.6159 32.304 95.5979 32.1336 95.5639 31.9823C95.5304 31.837 95.475 31.7127 95.3997 31.6111C95.3258 31.5128 95.2223 31.433 95.0921 31.3751C94.9589 31.3162 94.7884 31.286 94.5847 31.286C94.4254 31.286 94.2805 31.3154 94.1561 31.3742C94.0288 31.4339 93.9136 31.5178 93.8126 31.6245C93.6357 31.8001 93.5176 32.0126 93.4598 32.2562C93.4005 32.5098 93.3704 32.7795 93.3704 33.0583V36.0292H92.2799V32.4897C92.2799 32.3032 92.2648 32.1319 92.2333 31.9807C92.2036 31.8362 92.1502 31.7119 92.0748 31.6111C92.001 31.5128 91.897 31.433 91.7672 31.3751C91.6341 31.3162 91.4635 31.286 91.2599 31.286C91.0811 31.286 90.9193 31.3272 90.7779 31.4086C90.6321 31.4927 90.5033 31.6027 90.3944 31.7371C90.2666 31.8975 90.1758 32.1025 90.1252 32.346C90.0718 32.5964 90.0455 32.8366 90.0455 33.0583V36.0292H88.9551V30.4309H89.9172L89.9833 31.0189C90.1252 30.8098 90.3089 30.6443 90.5329 30.5267C90.8289 30.3705 91.1433 30.2915 91.466 30.2915C91.8916 30.2915 92.2556 30.3848 92.5462 30.5679C92.7877 30.7207 92.9758 30.9332 93.1065 31.202C93.1682 31.0903 93.2421 30.9887 93.3261 30.898C93.4505 30.7636 93.5939 30.6502 93.7523 30.5603C93.9102 30.4713 94.0798 30.4033 94.2553 30.3587C94.4307 30.3142 94.6115 30.2915 94.7908 30.2915C95.4351 30.2915 95.9225 30.4864 96.2374 30.8702C96.5484 31.2482 96.7059 31.7539 96.7059 32.3712Z" fill="#626B77"/>
<path d="M102.74 31.9368C102.602 31.5328 102.397 31.1901 102.13 30.918C101.943 30.7247 101.712 30.5719 101.446 30.4644C101.181 30.3568 100.869 30.3022 100.52 30.3022C100.199 30.3022 99.8734 30.3787 99.5532 30.5299C99.3073 30.6466 99.1047 30.802 98.9487 30.9944L98.8977 30.4417H97.9229V38.3574H99.0133V35.5755C99.058 35.625 99.1081 35.6712 99.1615 35.7149C99.2859 35.8157 99.4259 35.9005 99.576 35.9677C99.7242 36.0341 99.8802 36.0861 100.042 36.1231C100.202 36.1601 100.364 36.1794 100.52 36.1794C100.856 36.1794 101.155 36.1265 101.414 36.0223C101.671 35.919 101.896 35.7804 102.085 35.6082C102.368 35.3353 102.585 34.9867 102.729 34.5717C102.872 34.161 102.945 33.7091 102.945 33.2295C102.945 32.7499 102.876 32.3375 102.74 31.9368ZM100.369 31.243C100.655 31.243 100.895 31.3001 101.083 31.4127C101.271 31.5269 101.423 31.6789 101.53 31.8654C101.64 32.0569 101.719 32.2736 101.764 32.5105C101.81 32.7507 101.833 32.9968 101.833 33.2404C101.833 33.484 101.81 33.7301 101.764 33.9712C101.719 34.2072 101.64 34.4247 101.53 34.6154C101.423 34.8019 101.271 34.9548 101.083 35.0681C100.895 35.1815 100.655 35.2386 100.369 35.2386C100.181 35.2386 100.02 35.2067 99.8914 35.1446C99.7592 35.0808 99.6407 35.0009 99.5372 34.9052C99.319 34.717 99.1674 34.476 99.0862 34.1887C99.0021 33.8939 98.9589 33.5747 98.9589 33.2404C98.9589 32.9061 99.0021 32.5878 99.0862 32.2921C99.1674 32.0057 99.319 31.7646 99.5386 31.5739C99.6407 31.4807 99.7592 31.4001 99.8914 31.3362C100.02 31.2741 100.181 31.243 100.369 31.243Z" fill="#626B77"/>
<path d="M114.882 32.3712V36.0292H113.792V32.5006C113.792 32.1142 113.706 31.8101 113.534 31.5977C113.368 31.391 113.079 31.286 112.675 31.286C112.428 31.286 112.209 31.3574 112.023 31.4993C111.832 31.6447 111.676 31.8387 111.56 32.0756C111.472 32.2646 111.417 32.4855 111.401 32.7316C111.383 32.9852 111.374 33.2179 111.374 33.4229V36.0292H110.283V30.4309H111.247L111.305 31.0584C111.357 30.9862 111.415 30.919 111.479 30.8576C111.606 30.7342 111.752 30.63 111.91 30.5477C112.067 30.4662 112.233 30.4033 112.404 30.3587C112.576 30.3142 112.745 30.2915 112.903 30.2915C113.552 30.2915 114.052 30.478 114.385 30.8451C114.715 31.2104 114.882 31.7236 114.882 32.3712Z" fill="#626B77"/>
<path d="M120.725 30.4309L118.213 37.09C118.08 37.4512 117.894 37.7452 117.662 37.9644C117.423 38.1895 117.081 38.3038 116.65 38.3038C116.414 38.3038 116.219 38.2886 116.07 38.2584C115.87 38.2189 115.813 38.2004 115.784 38.1895L115.731 38.1677V37.2001L115.836 37.2261C115.893 37.2404 115.956 37.2538 116.028 37.2681C116.085 37.2824 116.148 37.2925 116.219 37.2992C116.293 37.3059 116.376 37.3093 116.466 37.3093C116.645 37.3093 116.799 37.274 116.922 37.2026C117.041 37.1345 117.137 37.0052 117.21 36.817L117.544 35.9376L115.322 30.4309H116.547L118.099 34.5517L119.579 30.4309H120.725Z" fill="#626B77"/>
<path d="M109.266 30.409H108.375C108.334 30.409 108.298 30.4384 108.291 30.4788L108.159 31.2364C107.966 30.9567 107.714 30.7383 107.402 30.5803C107.09 30.4225 106.723 30.3435 106.3 30.3435C105.788 30.3435 105.328 30.4628 104.919 30.7022C104.511 30.9416 104.19 31.28 103.956 31.7168C103.722 32.1545 103.605 32.6601 103.605 33.2338C103.605 33.8075 103.721 34.3349 103.95 34.7726C104.18 35.2102 104.5 35.5445 104.908 35.7763C105.316 36.0081 105.781 36.124 106.3 36.124C106.716 36.124 107.079 36.0392 107.391 35.8704C107.703 35.7015 107.959 35.4773 108.159 35.1976L108.281 35.9863C108.288 36.0274 108.324 36.0577 108.365 36.0577H109.265C109.311 36.0577 109.349 36.0199 109.349 35.9737V30.4939C109.349 30.4477 109.311 30.4099 109.265 30.4099L109.266 30.409ZM107.747 34.7331C107.433 35.1144 107.019 35.3051 106.506 35.3051C105.991 35.3051 105.576 35.1161 105.258 34.739C104.939 34.3618 104.78 33.8705 104.78 33.2665C104.78 32.6626 104.939 32.1838 105.258 31.8059C105.575 31.4287 105.991 31.2397 106.506 31.2397C107.019 31.2397 107.433 31.4262 107.747 31.8C108.062 32.1738 108.219 32.6584 108.219 33.2548C108.219 33.8511 108.062 34.3517 107.747 34.7331Z" fill="#626B77"/>
<path d="M42.8029 30.409H41.9128C41.8712 30.409 41.8356 30.4384 41.8289 30.4788L41.6966 31.2364C41.5033 30.9567 41.2515 30.7383 40.9396 30.5803C40.6276 30.4225 40.2605 30.3435 39.8375 30.3435C39.3255 30.3435 38.8652 30.4628 38.4566 30.7022C38.0479 30.9416 37.7275 31.28 37.4935 31.7168C37.2595 32.1545 37.1426 32.6601 37.1426 33.2338C37.1426 33.8075 37.2579 34.3349 37.4876 34.7726C37.7174 35.2102 38.037 35.5445 38.4455 35.7763C38.8533 36.0081 39.3179 36.124 39.8375 36.124C40.2529 36.124 40.6166 36.0392 40.9286 35.8704C41.2405 35.7015 41.4965 35.4773 41.6966 35.1976L41.8187 35.9863C41.8255 36.0274 41.8611 36.0577 41.9026 36.0577H42.8021C42.8487 36.0577 42.8868 36.0199 42.8868 35.9737V30.4939C42.8868 30.4477 42.8487 30.4099 42.8021 30.4099L42.8029 30.409ZM41.2846 34.7331C40.9701 35.1144 40.5564 35.3051 40.0427 35.3051C39.529 35.3051 39.1136 35.1161 38.7948 34.739C38.4769 34.3618 38.3175 33.8705 38.3175 33.2665C38.3175 32.6626 38.4769 32.1838 38.7948 31.8059C39.1127 31.4287 39.529 31.2397 40.0427 31.2397C40.5564 31.2397 40.9701 31.4262 41.2846 31.8C41.5991 32.1738 41.7559 32.6584 41.7559 33.2548C41.7559 33.8511 41.5991 34.3517 41.2846 34.7331Z" fill="#626B77"/>
<path d="M99.0133 38.3079L97.9229 37.2815V38.3575H99.0133V38.3079Z" fill="#626B77"/>
</g>
<path d="M10.8661 13.2745C12.246 13.9317 14.1556 12.8608 15.1042 10.8406C16.0529 8.82035 15.7203 6.72711 14.3404 6.06994C12.9605 5.41276 11.0509 6.49591 10.0899 8.50392C9.12892 10.512 9.47389 12.6052 10.8661 13.2745Z" fill="#626B77"/>
<path d="M20.4263 20.7593C20.4263 25.6273 26.5864 33.7811 27.2394 35.0711C27.4642 35.4808 27.5986 35.9329 27.6337 36.3977C27.6472 36.7118 27.5909 37.025 27.4688 37.3154C27.3468 37.6057 27.1618 37.8662 26.927 38.0784C26.6922 38.2907 26.4132 38.4495 26.1096 38.5439C25.806 38.6383 25.4852 38.6659 25.1696 38.6248C24.7807 38.6164 24.3994 38.5172 24.0567 38.3352C23.7142 38.1533 23.42 37.8939 23.1984 37.5782C22.5454 36.8479 18.837 31.9191 17.7651 30.4953C15.0546 26.8443 10.7056 23.2542 8.36474 30.4953C7.13268 34.4505 7.28055 38.6734 4.55776 38.6734C0.134774 38.6734 -2.09519 18.5809 2.68507 4.4273C3.46125 2.1637 4.81648 -0.318963 6.59061 0.216514C9.1286 0.971049 7.71173 4.52466 7.35446 6.09457C6.99715 7.66448 4.95201 14.8204 9.26413 16.6946C13.5762 18.5687 21.2394 9.98893 22.3359 9.06405C22.4886 8.88562 22.6755 8.73872 22.8859 8.63173C23.0961 8.52475 23.3257 8.45979 23.5615 8.44058C23.7972 8.42137 24.0345 8.44824 24.2597 8.51974C24.4849 8.59124 24.6936 8.70588 24.8739 8.85716C25.0442 9.03473 25.1772 9.24389 25.2651 9.47254C25.353 9.7012 25.3942 9.94483 25.3861 10.1893C25.3781 10.4337 25.3211 10.6742 25.2184 10.8968C25.1157 11.1193 24.9692 11.3196 24.7876 11.4859C24.1347 12.3134 20.4263 16.439 20.4263 20.7593Z" fill="#626B77"/>
<path d="M99.7879 7.37391C98.2256 7.36509 96.6958 7.81687 95.3925 8.67203C94.0892 9.52714 93.0712 10.7471 92.4671 12.1773C91.8631 13.6074 91.7003 15.1833 91.9997 16.7054C92.299 18.2274 93.0469 19.6269 94.1485 20.7266C95.2501 21.8262 96.6555 22.5765 98.1872 22.8823C99.7189 23.1881 101.308 23.0356 102.752 22.4442C104.196 21.8528 105.431 20.8492 106.3 19.5604C107.169 18.2716 107.633 16.7558 107.633 15.2051C107.637 13.1346 106.813 11.1472 105.342 9.67895C103.872 8.21077 101.874 7.38175 99.7879 7.37391ZM99.7879 19.8029C98.8704 19.8087 97.9719 19.5441 97.2065 19.0425C96.4407 18.5408 95.8425 17.8248 95.4873 16.9852C95.132 16.1456 95.0358 15.2202 95.2113 14.3264C95.3867 13.4325 95.8255 12.6105 96.4718 11.9645C97.1186 11.3185 97.9442 10.8777 98.8432 10.6979C99.7427 10.518 100.676 10.6073 101.524 10.9544C102.372 11.3015 103.097 11.8908 103.607 12.6476C104.118 13.4043 104.39 14.2944 104.39 15.2051C104.392 15.8069 104.275 16.4032 104.045 16.96C103.814 17.5168 103.476 18.0231 103.049 18.45C102.621 18.877 102.113 19.2162 101.554 19.4484C100.994 19.6805 100.394 19.8009 99.7879 19.8029Z" fill="#626B77"/>
<path d="M90.6133 13.5747C90.3538 11.8591 89.4855 10.2921 88.1652 9.15547C86.8448 8.01889 85.1586 7.38752 83.4112 7.375C81.4066 7.49763 79.5241 8.37451 78.1484 9.8269C76.7727 11.2792 76.0068 13.1977 76.0068 15.1913C76.0068 17.1848 76.7727 19.1034 78.1484 20.5557C79.5241 22.0081 81.4066 22.885 83.4112 23.0076C84.4914 23.0154 85.5619 22.8111 86.5625 22.4064C87.5626 22.0016 88.4723 21.4045 89.2386 20.6493C89.5428 20.3369 89.7129 19.9195 89.7129 19.4851C89.7129 19.0507 89.5428 18.6332 89.2386 18.3208C88.9295 18.0253 88.5175 17.8603 88.0884 17.8603C87.6593 17.8603 87.2467 18.0253 86.9377 18.3208C85.9813 19.2312 84.7203 19.7593 83.3961 19.804C82.3518 19.7992 81.3401 19.4431 80.5256 18.7939C79.7117 18.1447 79.1431 17.2407 78.9133 16.2295H89.0744C89.2882 16.2295 89.5 16.1877 89.6978 16.1065C89.8951 16.0252 90.0749 15.9061 90.226 15.756C90.3772 15.6059 90.4972 15.4277 90.5793 15.2315C90.661 15.0354 90.7032 14.8252 90.7032 14.6129C90.695 14.2653 90.6648 13.9186 90.6133 13.5747ZM79.3467 12.9962C79.7399 12.2742 80.3225 11.6712 81.0325 11.2508C81.7429 10.8304 82.5544 10.6085 83.381 10.6083C84.1585 10.5966 84.921 10.8184 85.5692 11.2445C86.217 11.6706 86.72 12.2812 87.0125 12.9962H79.3467Z" fill="#626B77"/>
<path d="M75.1776 7.46338C73.5326 7.45905 71.93 7.97895 70.6048 8.94653C70.5786 8.54647 70.4007 8.17111 70.1067 7.89599C69.8127 7.62082 69.4249 7.46627 69.0211 7.46338C68.8073 7.45943 68.595 7.498 68.3967 7.57691C68.1979 7.65583 68.0177 7.7734 67.8656 7.92276C67.7139 8.07212 67.5939 8.25017 67.5123 8.44637C67.4311 8.64262 67.3903 8.85303 67.3922 9.06522V21.3458C67.3796 21.5635 67.4131 21.7813 67.4899 21.9855C67.5667 22.1897 67.6853 22.3758 67.8383 22.5321C67.9919 22.6883 68.1761 22.8111 68.3797 22.8929C68.5828 22.9747 68.8015 23.0135 69.0211 23.007C69.4449 23.007 69.8516 22.8398 70.1514 22.5422C70.4513 22.2446 70.6199 21.8409 70.6199 21.42V15.2056C70.6199 12.0909 72.3834 10.845 75.1027 10.578C75.5221 10.5401 75.9162 10.3604 76.218 10.0688C76.5197 9.77719 76.7117 9.39147 76.7612 8.97624C76.7661 8.77123 76.7277 8.56756 76.6485 8.37805C76.5698 8.18854 76.4522 8.01728 76.3035 7.87514C76.1548 7.73296 75.9779 7.62299 75.784 7.55212C75.5901 7.48124 75.3836 7.45105 75.1776 7.46338Z" fill="#626B77"/>
<path d="M49.3116 20.307L44.0069 14.1815L48.6692 10.2808C48.9977 10.0092 49.2042 9.61924 49.2435 9.1965C49.2829 8.77381 49.1512 8.35295 48.8781 8.02636C48.742 7.86742 48.5755 7.73675 48.3883 7.64175C48.201 7.5468 47.9968 7.48936 47.7872 7.47285C47.5776 7.45633 47.3668 7.48099 47.1669 7.54541C46.9669 7.60983 46.7817 7.71282 46.6219 7.84836L40.3011 13.1285V5.93509C40.3031 5.72541 40.2632 5.51746 40.1837 5.32323C40.1042 5.12895 39.9868 4.95224 39.8381 4.8033C39.6894 4.65436 39.5125 4.53613 39.3175 4.45546C39.1225 4.37477 38.9134 4.33324 38.7022 4.33325C38.491 4.33324 38.2818 4.37477 38.0869 4.45546C37.8919 4.53613 37.715 4.65436 37.5663 4.8033C37.4176 4.95224 37.3002 5.12895 37.2207 5.32323C37.1413 5.51746 37.1013 5.72541 37.1033 5.93509V21.3452C37.0932 21.5598 37.1271 21.7742 37.2029 21.9753C37.2787 22.1765 37.3949 22.3604 37.5444 22.5156C37.6938 22.671 37.8735 22.7946 38.0726 22.8789C38.2716 22.9632 38.4858 23.0066 38.7022 23.0064C39.1262 23.0064 39.5329 22.8392 39.8328 22.5415C40.1326 22.2439 40.3011 21.8403 40.3011 21.4194V17.2813L41.5563 16.2283L46.9058 22.3834C47.0431 22.5413 47.2104 22.6708 47.3981 22.7644C47.5858 22.8581 47.7903 22.9141 47.9999 22.9292C48.2095 22.9443 48.42 22.9183 48.6196 22.8527C48.8188 22.787 49.003 22.683 49.1619 22.5466C49.3218 22.4104 49.4525 22.244 49.5468 22.0571C49.641 21.8702 49.6964 21.6664 49.7105 21.4579C49.7246 21.2494 49.6964 21.0402 49.6279 20.8426C49.5594 20.645 49.452 20.4629 49.3116 20.307Z" fill="#626B77"/>
<path d="M63.5229 7.46341C63.14 7.46673 62.7712 7.60632 62.4835 7.85669C62.1953 8.1071 62.0078 8.4517 61.9538 8.82793C60.6515 7.88273 59.0843 7.36423 57.471 7.34473C55.3878 7.35652 53.3939 8.18722 51.9264 9.65502C50.4588 11.1228 49.6371 13.108 49.641 15.1759C49.5817 16.2083 49.7411 17.2416 50.108 18.2094C50.4749 19.1772 51.042 20.0581 51.7723 20.7955C52.5022 21.533 53.3803 22.1107 54.3488 22.4916C55.3173 22.8724 56.3553 23.048 57.3962 23.007C58.3078 23.0142 59.2044 22.7785 59.9931 22.3246C60.7817 21.8706 61.4329 21.2151 61.8795 20.4263V20.3225V21.331C61.8668 21.5506 61.9004 21.7704 61.9781 21.9764C62.0554 22.1824 62.1754 22.3701 62.33 22.5277C62.4845 22.6853 62.6701 22.8093 62.8757 22.8918C63.0812 22.9743 63.3014 23.0135 63.5229 23.007C63.7329 23.007 63.9409 22.966 64.1348 22.8862C64.3286 22.8065 64.505 22.6896 64.6537 22.5422C64.8019 22.3948 64.9195 22.2199 65.0002 22.0274C65.0804 21.8348 65.1217 21.6285 65.1217 21.42V9.0652C65.1217 8.64295 64.9541 8.23778 64.6542 7.93777C64.3549 7.6378 63.9481 7.46731 63.5229 7.46341ZM57.3962 19.8182C56.1624 19.8143 54.9805 19.325 54.1092 18.4576C53.2384 17.5902 52.7491 16.4155 52.7491 15.1907C52.7491 13.9674 53.2389 12.7941 54.1102 11.9291C54.982 11.064 56.1638 10.5781 57.3962 10.5781C58.629 10.5781 59.8108 11.064 60.6826 11.9291C61.5539 12.7941 62.0437 13.9674 62.0437 15.1907C62.0437 16.4155 61.5544 17.5902 60.6836 18.4576C59.8123 19.325 58.6305 19.8143 57.3962 19.8182Z" fill="#626B77"/>
</g>
<defs>
<clipPath id="clip0_691_360">
<rect width="121" height="39" fill="white"/>
</clipPath>
</defs>
</svg>
