<svg width="230" height="33" viewBox="0 0 230 33" fill="none" xmlns="http://www.w3.org/2000/svg">
<g clip-path="url(#clip0_691_406)">
<path fill-rule="evenodd" clip-rule="evenodd" d="M34.0249 1.98908C23.4818 -3.23648 0.523286 3.48635 0 3.48635C0.0729238 9.53972 4.15426e-07 14.6467 0.4165 19.3578C1.07701 21.6553 4.61424 21.5203 6.77979 22.2778C9.27759 24.2153 12.1809 29.2188 23.4818 29.2188C34.7827 29.2188 43.9439 26.7258 43.9439 23.6506C43.9439 21.923 34.8575 19.3946 34.7534 18.8081C34.2752 16.1145 34.4029 14.2139 34.0249 1.98908ZM26.4517 3.78125C28.2063 3.78125 29.8552 4.10272 31.3985 4.74571V9.79687C31.3985 12.5866 29.8696 14.987 26.694 15.1584C23.5183 15.3298 20.944 12.9294 20.944 9.79687V4.125C22.8612 3.89582 24.6971 3.78125 26.4517 3.78125Z" fill="#626B77"/>
<path fill-rule="evenodd" clip-rule="evenodd" d="M56.6104 16.9496V26.0834H52.2725V5.17261H56.6104V13.7484L63.9408 5.17261H68.9969L60.3503 15.1581L69.4758 26.0834H63.9707L56.6104 16.9496ZM74.7713 19.7397C74.8114 20.3858 74.9062 20.9242 75.0557 21.3549C75.2052 21.7857 75.4495 22.1381 75.7889 22.4122C76.128 22.6864 76.5765 22.8821 77.1351 22.9996C77.6937 23.1171 78.4116 23.1758 79.2894 23.1758C80.1471 23.1758 80.9298 23.1318 81.6379 23.0437C82.346 22.9555 83.0092 22.8626 83.6277 22.7647L81.5825 26.1157C81.3162 26.1621 81.0305 26.2052 80.7255 26.2449C79.748 26.3722 78.7908 26.4358 77.853 26.4358C76.4768 26.4358 75.3101 26.2743 74.3525 25.9512C73.3952 25.6281 72.6174 25.1485 72.019 24.5121C71.4207 23.8758 70.9868 23.0975 70.7174 22.1773C70.448 21.257 70.3135 20.1998 70.3135 19.0054V18.0656C70.3135 17.0279 70.4331 16.044 70.6725 15.114C70.9119 14.184 71.3109 13.3715 71.8695 12.6764C72.4278 11.9813 73.1707 11.4331 74.0984 11.0317C75.0257 10.6303 76.1876 10.4296 77.584 10.4296C78.9002 10.4296 79.9875 10.6059 80.8451 10.9583C81.7027 11.3107 82.391 11.7855 82.9095 12.3827C83.428 12.9799 83.7922 13.6602 84.0017 14.4238C84.2111 15.1875 84.3156 15.9804 84.3156 16.8027V17.9775C84.3156 18.7215 84.186 19.2012 83.9267 19.4166C83.6675 19.632 83.1688 19.7397 82.4307 19.7397H74.7713ZM77.524 13.5428C76.5667 13.5428 75.8684 13.8169 75.4296 14.3651C74.9909 14.9133 74.7515 15.7944 74.7118 17.0083H80.0972V16.4797C80.0972 15.5007 79.8976 14.7665 79.4989 14.277C79.0999 13.7875 78.4416 13.5428 77.524 13.5428ZM97.8689 17.86C97.8689 16.4307 97.6647 15.4028 97.2556 14.7763C96.8468 14.1497 96.1139 13.8365 95.0566 13.8365C94.0791 13.8365 93.3564 14.1106 92.8877 14.6588C92.419 15.207 92.1844 16.0979 92.1844 17.3314V22.4122C92.643 22.6276 93.072 22.7891 93.471 22.8968C93.87 23.0045 94.2987 23.0584 94.7576 23.0584C95.8345 23.0584 96.6224 22.7549 97.1211 22.1479C97.6198 21.541 97.8689 20.5522 97.8689 19.1816V17.86ZM102.357 18.888C102.357 21.3549 101.803 23.2199 100.697 24.4828C99.5894 25.7456 98.0386 26.3771 96.0439 26.3771C94.5879 26.3771 93.3013 26.0246 92.1844 25.3198L87.7562 32.897V10.7821H91.616L91.8555 12.3093C92.374 11.7023 93.0072 11.2373 93.755 10.9142C94.5032 10.5912 95.3957 10.4296 96.4328 10.4296C98.4077 10.4296 99.8887 11.0317 100.876 12.2358C101.863 13.44 102.357 15.3441 102.357 17.9481V18.888ZM105.947 10.7821H110.375V26.0834H105.947V10.7821Z" fill="#626B77"/>
<path d="M105.947 4.43066V10.782L109.811 4.43066H105.947Z" fill="#626B77"/>
<path fill-rule="evenodd" clip-rule="evenodd" d="M126.584 26.4799C124.733 26.4799 123.211 26.2689 122.019 25.8468C120.826 25.4248 119.89 24.8017 119.211 23.9777C118.533 23.1537 118.06 22.1286 117.793 20.9026C117.525 19.6766 117.392 18.2597 117.392 16.6518V14.451C117.392 12.8833 117.536 11.4765 117.823 10.2303C118.111 8.98426 118.615 7.93413 119.335 7.07992C120.055 6.22573 121.016 5.56752 122.219 5.10524C123.422 4.643 124.939 4.41187 126.769 4.41187C127.695 4.41187 128.553 4.4822 129.345 4.62289C130.137 4.76359 130.8 4.92436 131.334 5.10524L130.055 7.2916C129.754 7.22965 129.424 7.16915 129.067 7.11006C128.399 6.99955 127.726 6.94427 127.047 6.94427C125.833 6.94427 124.815 7.05482 123.993 7.27589C123.17 7.49699 122.502 7.89392 121.988 8.46674C121.474 9.03953 121.104 9.81833 120.877 10.8032C120.651 11.788 120.538 13.0341 120.538 14.5415V16.5312C120.538 18.0185 120.646 19.2395 120.862 20.1942C121.078 21.1488 121.438 21.9025 121.941 22.4552C122.445 23.0079 123.119 23.3948 123.962 23.6159C124.805 23.837 125.854 23.9476 127.108 23.9476C127.705 23.9476 128.389 23.9073 129.16 23.827C129.931 23.7466 130.615 23.6561 131.211 23.5556L129.654 26.1953C129.335 26.2526 129.006 26.3022 128.666 26.3443C127.936 26.4347 127.242 26.4799 126.584 26.4799ZM143.164 12.9889C142.825 12.9386 142.491 12.9135 142.162 12.9135C141.566 12.9135 141.015 12.9889 140.512 13.1396C140.008 13.2903 139.571 13.5466 139.201 13.9084C138.83 14.2701 138.543 14.7626 138.337 15.3856C138.131 16.0087 138.029 16.7824 138.029 17.707V26.1785H135.036V10.6223H137.627L137.874 12.7025C138.389 11.9387 139.031 11.3659 139.802 10.9841C140.574 10.6022 141.514 10.4112 142.625 10.4112C143.406 10.4112 144.075 10.5117 144.63 10.7127L143.291 13.008C143.249 13.0016 143.207 12.9952 143.164 12.9889ZM149.488 21.6111C149.314 20.9981 149.216 20.2394 149.195 19.3349H158.049C158.707 19.3349 159.144 19.2294 159.36 19.0184C159.575 18.8074 159.683 18.3501 159.683 17.6467V16.5614C159.683 15.7172 159.57 14.9133 159.344 14.1495C159.118 13.3858 158.753 12.7176 158.249 12.1447C157.745 11.5719 157.087 11.1147 156.275 10.773C155.463 10.4313 154.46 10.2605 153.267 10.2605C152.033 10.2605 150.969 10.4414 150.074 10.8032C149.18 11.1649 148.45 11.6774 147.884 12.3407C147.319 13.0039 146.902 13.7978 146.635 14.7224C146.367 15.6469 146.234 16.6719 146.234 17.7974V19.0335C146.234 20.2394 146.363 21.3096 146.619 22.2442C146.877 23.1788 147.298 23.9626 147.884 24.5957C148.47 25.2288 149.252 25.7112 150.229 26.0428C151.205 26.3744 152.414 26.5403 153.853 26.5403C154.676 26.5403 155.519 26.485 156.383 26.3744C156.761 26.326 157.106 26.2708 157.418 26.2088L158.85 23.7667C158.378 23.8672 157.786 23.9676 157.077 24.0681C156.367 24.1686 155.581 24.2189 154.717 24.2189C153.627 24.2189 152.732 24.1335 152.033 23.9626C151.334 23.7918 150.779 23.5104 150.367 23.1185C149.956 22.7266 149.663 22.2241 149.488 21.6111ZM162.737 21.385C162.737 20.4605 162.881 19.6917 163.169 19.0787C163.457 18.4657 163.868 17.9683 164.403 17.5864C164.938 17.2045 165.575 16.9332 166.316 16.7724C167.056 16.6116 167.879 16.5312 168.783 16.5312C169.729 16.5312 170.562 16.6267 171.282 16.8176C172.002 17.0085 172.598 17.3452 173.071 17.8276V16.6217C173.071 15.8579 172.968 15.2148 172.763 14.6922C172.557 14.1697 172.259 13.7526 171.868 13.4411C171.477 13.1296 170.999 12.9035 170.434 12.7628C169.868 12.6221 169.226 12.5517 168.506 12.5517C167.786 12.5517 167.041 12.607 166.269 12.7176C165.498 12.8281 164.783 12.9637 164.126 13.1246L165.604 10.6105C165.908 10.5503 166.233 10.494 166.578 10.4414C167.37 10.3208 168.208 10.2605 169.092 10.2605C171.334 10.2605 173.035 10.7529 174.197 11.7377C175.359 12.7226 175.94 14.1897 175.94 16.1393V26.1785H173.38L173.133 24.5203C172.619 25.2439 171.945 25.7514 171.112 26.0428C170.279 26.3342 169.349 26.4799 168.321 26.4799C166.49 26.4799 165.102 26.0981 164.156 25.3343C163.21 24.5706 162.737 23.3747 162.737 21.7468V21.385ZM184.392 20.9629V12.9135H188.143L189.482 10.6223H184.392V6.24935H181.431V10.6223H179.644L178.315 12.9135H181.431V20.9026C181.431 21.9478 181.534 22.8271 181.739 23.5406C181.945 24.254 182.259 24.8268 182.68 25.259C183.102 25.6911 183.631 26.0026 184.269 26.1935C184.906 26.3845 185.657 26.4799 186.521 26.4799C186.994 26.4799 187.472 26.4448 187.955 26.3744L187.994 26.3687C188.014 26.3657 188.034 26.3626 188.055 26.3594L188.085 26.3546L189.544 23.9777C189.297 24.0179 188.999 24.0631 188.649 24.1133C188.3 24.1636 187.888 24.1887 187.415 24.1887C186.305 24.1887 185.523 23.9425 185.071 23.4501C184.619 22.9577 184.392 22.1286 184.392 20.9629ZM192.813 10.6223H195.806V26.1785H192.813V10.6223ZM202.222 10.6223H198.921L205.153 26.1785H208.268L214.53 10.6223H211.322L206.757 23.2541L202.222 10.6223ZM219.404 19.3349C219.424 20.2394 219.522 20.9981 219.697 21.6111C219.872 22.2241 220.165 22.7266 220.576 23.1185C220.987 23.5104 221.543 23.7918 222.242 23.9626C222.941 24.1335 223.836 24.2189 224.926 24.2189C225.79 24.2189 226.576 24.1686 227.286 24.0681C227.995 23.9676 228.586 23.8672 229.059 23.7667L227.626 26.209C227.315 26.2709 226.97 26.326 226.591 26.3744C225.728 26.485 224.885 26.5403 224.062 26.5403C222.623 26.5403 221.414 26.3744 220.438 26.0428C219.461 25.7112 218.679 25.2288 218.093 24.5957C217.507 23.9626 217.085 23.1788 216.828 22.2442C216.571 21.3096 216.443 20.2394 216.443 19.0335V17.7974C216.443 16.6719 216.576 15.6469 216.844 14.7224C217.111 13.7978 217.528 13.0039 218.093 12.3407C218.659 11.6774 219.389 11.1649 220.283 10.8032C221.178 10.4414 222.242 10.2605 223.476 10.2605C224.669 10.2605 225.671 10.4313 226.484 10.773C227.296 11.1147 227.954 11.5719 228.458 12.1447C228.962 12.7176 229.327 13.3858 229.553 14.1495C229.779 14.9133 229.892 15.7172 229.892 16.5614V17.6467C229.892 18.3501 229.784 18.8074 229.568 19.0184C229.352 19.2294 228.915 19.3349 228.257 19.3349H219.404ZM153.144 12.4914C151.786 12.4914 150.789 12.8582 150.151 13.5918C149.514 14.3254 149.185 15.5464 149.164 17.2547H156.845V16.4709C156.845 15.1846 156.568 14.1998 156.012 13.5164C155.457 12.8331 154.501 12.4914 153.144 12.4914ZM223.353 12.4914C221.995 12.4914 220.998 12.8582 220.361 13.5918C219.723 14.3254 219.394 15.5464 219.373 17.2547H227.054V16.4709C227.054 15.1846 226.777 14.1998 226.221 13.5164C225.666 12.8331 224.71 12.4914 223.353 12.4914ZM166.393 23.5556C165.868 23.1134 165.606 22.4401 165.606 21.5357V21.2945C165.606 20.3499 165.874 19.6615 166.408 19.2294C166.943 18.7973 167.796 18.5812 168.968 18.5812H169.493C170.747 18.5812 171.657 18.7973 172.223 19.2294C172.788 19.6615 173.071 20.2796 173.071 21.0835V21.3247C173.071 21.8674 172.968 22.3196 172.763 22.6813C172.557 23.0431 172.279 23.3396 171.93 23.5707C171.58 23.8018 171.164 23.9676 170.681 24.0681C170.197 24.1686 169.668 24.2189 169.092 24.2189C167.817 24.2189 166.917 23.9978 166.393 23.5556Z" fill="#626B77"/>
<path d="M192.812 6.25049V10.6477L195.381 6.25049H192.812Z" fill="#626B77"/>
</g>
<defs>
<clipPath id="clip0_691_406">
<rect width="230" height="33" fill="white"/>
</clipPath>
</defs>
</svg>
