<svg width="275" height="32" viewBox="0 0 275 32" fill="none" xmlns="http://www.w3.org/2000/svg">
<path fill-rule="evenodd" clip-rule="evenodd" d="M32.0158 0V16C32.0158 24.8366 24.8489 32 16.0079 32C7.16701 32 0 24.8366 0 16C0 7.16345 7.16701 0 16.0079 0H32.0158Z" fill="#BACBA9"/>
<path fill-rule="evenodd" clip-rule="evenodd" d="M32.0158 0V16C32.0158 24.8366 24.8489 32 16.0079 32C7.16701 32 0 24.8366 0 16C0 7.16345 7.16701 0 16.0079 0H32.0158ZM28.1339 3.96H15.2644C10.3157 3.96 5.97864 7.26898 4.67408 12.04H20.23V16.0661C20.23 18.2752 18.4381 20.0661 16.2277 20.0661H16.0638L15.9626 20.0647C13.9451 20.0111 12.3261 18.3598 12.3261 16.3305V16.0244H3.99376V16.0289C3.99376 22.6912 9.39771 28.0922 16.0638 28.0922L16.2634 28.0905C22.8375 27.984 28.1339 22.6246 28.1339 16.0289V3.96Z" fill="#242E20"/>
<path d="M50.2471 26.5956C48.976 26.5956 47.7995 26.349 46.718 25.856C45.6553 25.363 44.7827 24.6519 44.0996 23.7227L46.2057 21.1911C46.756 21.9496 47.3537 22.5185 47.9987 22.8978C48.6629 23.277 49.3837 23.4667 50.1617 23.4667C52.2297 23.4667 53.2639 22.2436 53.2639 19.7973V9.50044H46.1772V6.39999H56.9638V19.5982C56.9638 21.9496 56.385 23.7037 55.2277 24.8604C54.0893 26.0172 52.4289 26.5956 50.2471 26.5956Z" fill="#242E20"/>
<path d="M69.5243 26.5102C67.8359 26.5102 66.3559 26.1784 65.0844 25.5147C63.8322 24.832 62.8553 23.9028 62.153 22.7271C61.4699 21.5514 61.1284 20.2145 61.1284 18.7164C61.1284 17.1994 61.4607 15.8625 62.1245 14.7058C62.8076 13.5301 63.7375 12.6104 64.9137 11.9467C66.109 11.283 67.4659 10.9511 68.9835 10.9511C70.4635 10.9511 71.7823 11.2735 72.9395 11.9182C74.0972 12.563 75.0079 13.4732 75.6718 14.6489C76.336 15.8246 76.6679 17.2089 76.6679 18.8018C76.6679 18.9535 76.6586 19.1242 76.6394 19.3138C76.6394 19.5034 76.6302 19.6836 76.611 19.8542H63.946V17.4933H74.7326L73.338 18.2329C73.3572 17.3606 73.1768 16.5926 72.7972 15.9289C72.418 15.2652 71.8961 14.7437 71.2319 14.3644C70.5869 13.9852 69.8373 13.7956 68.9835 13.7956C68.1109 13.7956 67.3424 13.9852 66.6782 14.3644C66.0332 14.7437 65.5209 15.2747 65.1414 15.9573C64.781 16.621 64.6006 17.408 64.6006 18.3182V18.8871C64.6006 19.7973 64.8094 20.6033 65.2267 21.3049C65.6444 22.0065 66.2325 22.547 66.9913 22.9262C67.7505 23.3055 68.6232 23.4951 69.6097 23.4951C70.4635 23.4951 71.2319 23.3624 71.915 23.0969C72.598 22.8314 73.2053 22.4142 73.7364 21.8453L75.6433 24.0356C74.9602 24.832 74.0972 25.4483 73.0534 25.8844C72.0288 26.3017 70.8527 26.5102 69.5243 26.5102Z" fill="#242E20"/>
<path d="M81.1383 26.3111V10.2684C81.1383 8.67556 81.6033 7.40505 82.5329 6.45689C83.4817 5.48978 84.8286 5.00623 86.5743 5.00623C87.2004 5.00623 87.7885 5.07261 88.3388 5.20534C88.908 5.33807 89.3823 5.54667 89.7619 5.83111L88.7942 8.50489C88.5285 8.29629 88.225 8.14461 87.8835 8.04978C87.5419 7.936 87.1908 7.87911 86.8304 7.87911C86.0904 7.87911 85.5308 8.08772 85.1513 8.50489C84.7717 8.90311 84.582 9.50994 84.582 10.3253V12.032L84.6959 13.6249V26.3111H81.1383ZM78.6338 14.08V11.2356H88.7657V14.08H78.6338Z" fill="#242E20"/>
<path d="M92.297 26.3111V10.2684C92.297 8.67556 92.7616 7.40505 93.6916 6.45689C94.64 5.48978 95.9873 5.00623 97.733 5.00623C98.3591 5.00623 98.9472 5.07261 99.4975 5.20534C100.067 5.33807 100.541 5.54667 100.921 5.83111L99.9529 8.50489C99.6871 8.29629 99.3837 8.14461 99.0422 8.04978C98.7006 7.936 98.3495 7.87911 97.9891 7.87911C97.2491 7.87911 96.6892 8.08772 96.3099 8.50489C95.9303 8.90311 95.7407 9.50994 95.7407 10.3253V12.032L95.8546 13.6249V26.3111H92.297ZM89.7925 14.08V11.2356H99.9244V14.08H89.7925Z" fill="#242E20"/>
<path d="M117.84 26.5956C116.285 26.5956 114.795 26.3775 113.372 25.9413C111.949 25.4862 110.82 24.9079 109.985 24.2062L111.266 21.3333C112.063 21.9591 113.05 22.4806 114.226 22.8978C115.402 23.315 116.607 23.5236 117.84 23.5236C118.884 23.5236 119.728 23.4098 120.373 23.1822C121.019 22.9547 121.493 22.6513 121.796 22.272C122.1 21.8738 122.252 21.4282 122.252 20.9351C122.252 20.3283 122.034 19.8448 121.597 19.4844C121.161 19.1052 120.592 18.8113 119.89 18.6027C119.207 18.3751 118.438 18.1665 117.584 17.9769C116.75 17.7873 115.905 17.5692 115.051 17.3227C114.217 17.0572 113.448 16.7253 112.746 16.3271C112.063 15.9099 111.503 15.36 111.067 14.6773C110.631 13.9947 110.412 13.1224 110.412 12.0604C110.412 10.9796 110.697 9.99349 111.266 9.10222C111.854 8.192 112.737 7.47139 113.913 6.94044C115.108 6.39051 116.617 6.11555 118.438 6.11555C119.633 6.11555 120.82 6.26727 121.996 6.57067C123.172 6.8741 124.197 7.31022 125.069 7.87911L123.903 10.752C123.011 10.221 122.091 9.83228 121.142 9.58578C120.193 9.32028 119.283 9.18755 118.41 9.18755C117.385 9.18755 116.55 9.31083 115.905 9.55733C115.279 9.80387 114.814 10.1262 114.511 10.5244C114.226 10.9227 114.084 11.3778 114.084 11.8898C114.084 12.4966 114.292 12.9897 114.71 13.3689C115.146 13.7292 115.706 14.0137 116.389 14.2222C117.091 14.4308 117.869 14.6394 118.723 14.848C119.577 15.0377 120.421 15.2557 121.256 15.5022C122.11 15.7488 122.878 16.0711 123.561 16.4693C124.263 16.8676 124.823 17.408 125.24 18.0907C125.677 18.7733 125.895 19.6362 125.895 20.6791C125.895 21.741 125.601 22.7271 125.013 23.6373C124.443 24.5286 123.561 25.2492 122.366 25.7991C121.17 26.3301 119.662 26.5956 117.84 26.5956Z" fill="#242E20"/>
<path d="M139.155 26.3111V23.2391L138.956 22.5849V17.2089C138.956 16.1659 138.643 15.36 138.017 14.7911C137.39 14.2033 136.442 13.9093 135.171 13.9093C134.317 13.9093 133.472 14.0421 132.638 14.3076C131.822 14.573 131.129 14.9428 130.56 15.4169L129.165 12.8284C129.981 12.2027 130.949 11.7381 132.068 11.4347C133.207 11.1123 134.383 10.9511 135.597 10.9511C137.798 10.9511 139.497 11.4821 140.692 12.544C141.906 13.587 142.513 15.2083 142.513 17.408V26.3111H139.155ZM134.374 26.5102C133.235 26.5102 132.239 26.3206 131.385 25.9413C130.531 25.5431 129.867 25.0027 129.393 24.32C128.938 23.6184 128.71 22.8314 128.71 21.9591C128.71 21.1058 128.909 20.3378 129.308 19.6551C129.725 18.9724 130.399 18.432 131.328 18.0338C132.258 17.6356 133.491 17.4364 135.028 17.4364H139.44V19.7973H135.284C134.07 19.7973 133.254 19.9964 132.837 20.3947C132.419 20.7739 132.211 21.248 132.211 21.8169C132.211 22.4617 132.467 22.9737 132.979 23.3529C133.491 23.7322 134.203 23.9218 135.114 23.9218C135.986 23.9218 136.764 23.7227 137.447 23.3244C138.149 22.9262 138.652 22.3384 138.956 21.5609L139.553 23.6942C139.212 24.5855 138.595 25.2777 137.703 25.7707C136.831 26.2637 135.721 26.5102 134.374 26.5102Z" fill="#242E20"/>
<path d="M156.272 10.9511C157.486 10.9511 158.568 11.1882 159.516 11.6622C160.484 12.1363 161.243 12.8664 161.793 13.8524C162.343 14.8196 162.619 16.0711 162.619 17.6071V26.3111H159.061V18.0622C159.061 16.7159 158.738 15.7108 158.093 15.0471C157.467 14.3834 156.585 14.0516 155.447 14.0516C154.612 14.0516 153.872 14.2222 153.227 14.5636C152.581 14.9049 152.079 15.4169 151.718 16.0996C151.377 16.7633 151.206 17.6071 151.206 18.6311V26.3111H147.648V11.1218H151.035V15.2178L150.438 13.9662C150.969 12.9991 151.737 12.2596 152.743 11.7476C153.767 11.2166 154.944 10.9511 156.272 10.9511Z" fill="#242E20"/>
<path d="M174.16 26.5102C172.7 26.5102 171.381 26.1878 170.204 25.5431C169.047 24.8794 168.136 23.9692 167.472 22.8124C166.808 21.6557 166.476 20.2904 166.476 18.7164C166.476 17.1425 166.808 15.7772 167.472 14.6204C168.136 13.4637 169.047 12.563 170.204 11.9182C171.381 11.2735 172.7 10.9511 174.16 10.9511C175.432 10.9511 176.57 11.2356 177.576 11.8044C178.581 12.3544 179.378 13.1982 179.966 14.336C180.555 15.4738 180.849 16.9339 180.849 18.7164C180.849 20.48 180.564 21.9402 179.995 23.0969C179.426 24.2347 178.638 25.088 177.633 25.6569C176.627 26.2258 175.47 26.5102 174.16 26.5102ZM174.587 23.4667C175.441 23.4667 176.2 23.2771 176.864 22.8978C177.547 22.5185 178.088 21.9686 178.486 21.248C178.904 20.5274 179.113 19.6836 179.113 18.7164C179.113 17.7304 178.904 16.8865 178.486 16.1849C178.088 15.4643 177.547 14.9144 176.864 14.5351C176.2 14.1559 175.441 13.9662 174.587 13.9662C173.734 13.9662 172.965 14.1559 172.282 14.5351C171.618 14.9144 171.077 15.4643 170.66 16.1849C170.261 16.8865 170.062 17.7304 170.062 18.7164C170.062 19.6836 170.261 20.5274 170.66 21.248C171.077 21.9686 171.618 22.5185 172.282 22.8978C172.965 23.2771 173.734 23.4667 174.587 23.4667ZM179.198 26.3111V22.7271L179.34 18.688L179.056 14.6489V5.20534H182.585V26.3111H179.198Z" fill="#242E20"/>
<path d="M194.98 26.5102C193.291 26.5102 191.811 26.1784 190.54 25.5147C189.288 24.832 188.311 23.9028 187.609 22.7271C186.926 21.5514 186.584 20.2145 186.584 18.7164C186.584 17.1994 186.916 15.8625 187.58 14.7058C188.263 13.5301 189.193 12.6104 190.369 11.9467C191.565 11.283 192.921 10.9511 194.439 10.9511C195.919 10.9511 197.238 11.2735 198.395 11.9182C199.553 12.563 200.463 13.4732 201.127 14.6489C201.792 15.8246 202.123 17.2089 202.123 18.8018C202.123 18.9535 202.114 19.1242 202.095 19.3138C202.095 19.5034 202.086 19.6836 202.067 19.8542H189.402V17.4933H200.188L198.794 18.2329C198.813 17.3606 198.632 16.5926 198.253 15.9289C197.874 15.2652 197.352 14.7437 196.687 14.3644C196.042 13.9852 195.293 13.7956 194.439 13.7956C193.566 13.7956 192.798 13.9852 192.134 14.3644C191.489 14.7437 190.977 15.2747 190.597 15.9573C190.237 16.621 190.056 17.408 190.056 18.3182V18.8871C190.056 19.7973 190.265 20.6033 190.682 21.3049C191.1 22.0065 191.688 22.547 192.447 22.9262C193.206 23.3055 194.079 23.4951 195.065 23.4951C195.919 23.4951 196.687 23.3624 197.371 23.0969C198.054 22.8314 198.661 22.4142 199.192 21.8453L201.099 24.0356C200.416 24.832 199.553 25.4483 198.509 25.8844C197.484 26.3017 196.308 26.5102 194.98 26.5102Z" fill="#242E20"/>
<path d="M206.11 26.3111V11.1218H209.497V15.3031L209.099 14.08C209.554 13.056 210.266 12.2785 211.233 11.7476C212.22 11.2166 213.444 10.9511 214.905 10.9511V14.336C214.753 14.2981 214.61 14.2791 214.478 14.2791C214.345 14.2602 214.212 14.2507 214.079 14.2507C212.732 14.2507 211.66 14.6489 210.863 15.4453C210.066 16.2228 209.668 17.389 209.668 18.944V26.3111H206.11Z" fill="#242E20"/>
<path d="M223.327 26.5102C222.055 26.5102 220.831 26.349 219.655 26.0267C218.498 25.6853 217.578 25.2777 216.895 24.8036L218.261 22.1013C218.944 22.5375 219.759 22.8978 220.708 23.1822C221.657 23.4667 222.605 23.6089 223.554 23.6089C224.673 23.6089 225.48 23.4572 225.973 23.1538C226.486 22.8504 226.742 22.4427 226.742 21.9307C226.742 21.5135 226.571 21.2006 226.23 20.992C225.888 20.7644 225.442 20.5938 224.892 20.48C224.342 20.3662 223.725 20.2619 223.042 20.1671C222.378 20.0723 221.704 19.949 221.021 19.7973C220.357 19.6267 219.75 19.3897 219.2 19.0862C218.649 18.7639 218.204 18.3372 217.862 17.8062C217.521 17.2753 217.35 16.5736 217.35 15.7013C217.35 14.7342 217.625 13.8999 218.175 13.1982C218.725 12.4777 219.494 11.9277 220.481 11.5484C221.486 11.1502 222.672 10.9511 224.038 10.9511C225.063 10.9511 226.097 11.0649 227.14 11.2924C228.184 11.52 229.047 11.8424 229.73 12.2596L228.364 14.9618C227.643 14.5257 226.913 14.2317 226.173 14.08C225.452 13.9093 224.73 13.824 224.01 13.824C222.928 13.824 222.122 13.9852 221.591 14.3076C221.078 14.6299 220.822 15.0377 220.822 15.5307C220.822 15.9858 220.993 16.3271 221.334 16.5547C221.676 16.7822 222.122 16.9624 222.672 17.0951C223.222 17.2279 223.829 17.3417 224.493 17.4364C225.177 17.5123 225.85 17.6356 226.514 17.8062C227.178 17.9769 227.785 18.2139 228.336 18.5173C228.905 18.8018 229.36 19.2095 229.702 19.7404C230.043 20.2714 230.214 20.9636 230.214 21.8169C230.214 22.765 229.929 23.5899 229.36 24.2916C228.81 24.9932 228.023 25.5431 226.998 25.9413C225.973 26.3206 224.75 26.5102 223.327 26.5102Z" fill="#242E20"/>
<path d="M245.726 26.5956C244.454 26.5956 243.278 26.349 242.196 25.856C241.134 25.363 240.261 24.6519 239.578 23.7227L241.684 21.1911C242.235 21.9496 242.832 22.5185 243.477 22.8978C244.141 23.277 244.862 23.4667 245.64 23.4667C247.708 23.4667 248.742 22.2436 248.742 19.7973V9.50044H241.656V6.39999H252.442V19.5982C252.442 21.9496 251.863 23.7037 250.706 24.8604C249.568 26.0172 247.907 26.5956 245.726 26.5956Z" fill="#242E20"/>
<path d="M257.859 26.3111V11.1218H261.246V15.3031L260.848 14.08C261.303 13.056 262.015 12.2785 262.982 11.7476C263.969 11.2166 265.193 10.9511 266.654 10.9511V14.336C266.502 14.2981 266.36 14.2791 266.227 14.2791C266.094 14.2602 265.961 14.2507 265.828 14.2507C264.481 14.2507 263.409 14.6489 262.612 15.4453C261.815 16.2228 261.417 17.389 261.417 18.944V26.3111H257.859Z" fill="#242E20"/>
<path d="M271.241 26.5102C270.596 26.5102 270.045 26.2922 269.59 25.856C269.134 25.4009 268.907 24.832 268.907 24.1493C268.907 23.4288 269.134 22.8599 269.59 22.4427C270.045 22.0065 270.596 21.7884 271.241 21.7884C271.885 21.7884 273.574 21.7884 273.574 21.7884C273.574 21.7884 273.574 23.4288 273.574 24.1493C273.574 24.832 273.347 25.4009 272.891 25.856C272.436 26.2922 271.885 26.5102 271.241 26.5102Z" fill="#242E20"/>
</svg>
