<svg width="773" height="90" viewBox="0 0 773 90" fill="none" xmlns="http://www.w3.org/2000/svg">
<path fill-rule="evenodd" clip-rule="evenodd" d="M89.9936 0V45C89.9936 69.8528 69.8479 90 44.9968 90C20.1458 90 0 69.8528 0 45C0 20.1472 20.1458 0 44.9968 0H89.9936ZM79.0819 11.1375H42.9069C28.9964 11.1375 16.8054 20.444 13.1384 33.8625H56.8647V45.1858C56.8647 51.399 51.8279 56.4358 45.6147 56.4358H45.154L44.8695 56.4321C39.1985 56.2813 34.6475 51.6368 34.6475 45.9294V45.0687H11.2261V45.0812C11.2261 63.8191 26.4161 79.0092 45.154 79.0092L45.715 79.0046C64.1941 78.705 79.0819 63.6317 79.0819 45.0812V11.1375Z" fill="#224455"/>
<path d="M141.24 74.8C137.667 74.8 134.36 74.1067 131.32 72.72C128.333 71.3334 125.88 69.3334 123.96 66.72L129.88 59.6C131.427 61.7334 133.107 63.3334 134.92 64.4C136.787 65.4667 138.813 66 141 66C146.813 66 149.72 62.56 149.72 55.68V26.72H129.8V18H160.12V55.12C160.12 61.7334 158.493 66.6667 155.24 69.92C152.04 73.1734 147.373 74.8 141.24 74.8Z" fill="#152022"/>
<path d="M195.427 74.56C190.681 74.56 186.521 73.6267 182.947 71.76C179.427 69.84 176.681 67.2267 174.707 63.92C172.787 60.6134 171.827 56.8534 171.827 52.64C171.827 48.3734 172.761 44.6134 174.627 41.36C176.547 38.0533 179.161 35.4667 182.467 33.6C185.827 31.7333 189.641 30.8 193.907 30.8C198.067 30.8 201.774 31.7067 205.027 33.52C208.281 35.3333 210.841 37.8933 212.707 41.2C214.574 44.5067 215.507 48.4 215.507 52.88C215.507 53.3067 215.481 53.7867 215.427 54.32C215.427 54.8534 215.401 55.36 215.347 55.84H179.747V49.2H210.067L206.147 51.28C206.201 48.8267 205.694 46.6667 204.627 44.8C203.561 42.9334 202.094 41.4667 200.227 40.4C198.414 39.3333 196.307 38.8 193.907 38.8C191.454 38.8 189.294 39.3333 187.427 40.4C185.614 41.4667 184.174 42.96 183.107 44.88C182.094 46.7467 181.587 48.96 181.587 51.52V53.12C181.587 55.68 182.174 57.9467 183.347 59.92C184.521 61.8934 186.174 63.4134 188.307 64.48C190.441 65.5467 192.894 66.08 195.667 66.08C198.067 66.08 200.227 65.7067 202.147 64.96C204.067 64.2134 205.774 63.04 207.267 61.44L212.627 67.6C210.707 69.84 208.281 71.5734 205.347 72.8C202.467 73.9734 199.161 74.56 195.427 74.56Z" fill="#152022"/>
<path d="M228.073 74V28.88C228.073 24.4 229.38 20.8267 231.993 18.16C234.66 15.44 238.446 14.08 243.353 14.08C245.113 14.08 246.766 14.2667 248.313 14.64C249.913 15.0133 251.246 15.6 252.313 16.4L249.593 23.92C248.846 23.3333 247.993 22.9067 247.033 22.64C246.073 22.32 245.086 22.16 244.073 22.16C241.993 22.16 240.42 22.7467 239.353 23.92C238.286 25.04 237.753 26.7467 237.753 29.04V33.84L238.073 38.32V74H228.073ZM221.033 39.6V31.6H249.513V39.6H221.033Z" fill="#152022"/>
<path d="M259.439 74V28.88C259.439 24.4 260.745 20.8267 263.359 18.16C266.025 15.44 269.812 14.08 274.719 14.08C276.479 14.08 278.132 14.2667 279.679 14.64C281.279 15.0133 282.612 15.6 283.679 16.4L280.959 23.92C280.212 23.3333 279.359 22.9067 278.399 22.64C277.439 22.32 276.452 22.16 275.439 22.16C273.359 22.16 271.785 22.7467 270.719 23.92C269.652 25.04 269.119 26.7467 269.119 29.04V33.84L269.439 38.32V74H259.439ZM252.399 39.6V31.6H280.879V39.6H252.399Z" fill="#152022"/>
<path d="M331.239 74.8C326.866 74.8 322.679 74.1867 318.679 72.96C314.679 71.68 311.506 70.0534 309.159 68.08L312.759 60C314.999 61.76 317.773 63.2267 321.079 64.4C324.386 65.5734 327.773 66.16 331.239 66.16C334.173 66.16 336.546 65.84 338.359 65.2C340.173 64.56 341.506 63.7067 342.359 62.64C343.213 61.52 343.639 60.2667 343.639 58.88C343.639 57.1733 343.026 55.8134 341.799 54.8C340.573 53.7334 338.973 52.9067 336.999 52.32C335.079 51.68 332.919 51.0933 330.519 50.56C328.173 50.0267 325.799 49.4134 323.399 48.72C321.053 47.9733 318.893 47.04 316.919 45.92C314.999 44.7467 313.426 43.2 312.199 41.28C310.973 39.36 310.359 36.9067 310.359 33.92C310.359 30.88 311.159 28.1067 312.759 25.6C314.413 23.04 316.893 21.0133 320.199 19.52C323.559 17.9733 327.799 17.2 332.919 17.2C336.279 17.2 339.613 17.6267 342.919 18.48C346.226 19.3334 349.106 20.56 351.559 22.16L348.279 30.24C345.773 28.7467 343.186 27.6533 340.519 26.96C337.853 26.2133 335.293 25.84 332.839 25.84C329.959 25.84 327.613 26.1867 325.799 26.88C324.039 27.5734 322.733 28.48 321.879 29.6C321.079 30.72 320.679 32 320.679 33.44C320.679 35.1467 321.266 36.5334 322.439 37.6C323.666 38.6134 325.239 39.4134 327.159 40C329.133 40.5867 331.319 41.1734 333.719 41.76C336.119 42.2934 338.493 42.9067 340.839 43.6C343.239 44.2934 345.399 45.2 347.319 46.32C349.293 47.44 350.866 48.96 352.039 50.88C353.266 52.8 353.879 55.2267 353.879 58.16C353.879 61.1467 353.053 63.92 351.399 66.48C349.799 68.9867 347.319 71.0133 343.959 72.56C340.599 74.0534 336.359 74.8 331.239 74.8Z" fill="#152022"/>
<path d="M391.152 74V65.36L390.592 63.52V48.4C390.592 45.4667 389.712 43.2 387.952 41.6C386.192 39.9467 383.525 39.12 379.952 39.12C377.552 39.12 375.179 39.4934 372.832 40.24C370.539 40.9867 368.592 42.0267 366.992 43.36L363.072 36.08C365.365 34.32 368.085 33.0134 371.232 32.16C374.432 31.2534 377.739 30.8 381.152 30.8C387.339 30.8 392.112 32.2934 395.472 35.28C398.885 38.2134 400.592 42.7734 400.592 48.96V74H391.152ZM377.712 74.56C374.512 74.56 371.712 74.0267 369.312 72.96C366.912 71.84 365.045 70.32 363.712 68.4C362.432 66.4267 361.792 64.2134 361.792 61.76C361.792 59.36 362.352 57.2 363.472 55.28C364.645 53.36 366.539 51.84 369.152 50.72C371.765 49.6 375.232 49.04 379.552 49.04H391.952V55.68H380.272C376.859 55.68 374.565 56.24 373.392 57.36C372.219 58.4267 371.632 59.76 371.632 61.36C371.632 63.1734 372.352 64.6134 373.792 65.68C375.232 66.7467 377.232 67.28 379.792 67.28C382.245 67.28 384.432 66.72 386.352 65.6C388.325 64.48 389.739 62.8267 390.592 60.64L392.272 66.64C391.312 69.1467 389.579 71.0934 387.072 72.48C384.619 73.8667 381.499 74.56 377.712 74.56Z" fill="#152022"/>
<path d="M439.266 30.8C442.679 30.8 445.719 31.4667 448.386 32.8C451.106 34.1333 453.239 36.1867 454.786 38.96C456.332 41.68 457.106 45.2 457.106 49.52V74H447.106V50.8C447.106 47.0134 446.199 44.1867 444.386 42.32C442.626 40.4534 440.146 39.52 436.946 39.52C434.599 39.52 432.519 40 430.706 40.96C428.892 41.92 427.479 43.36 426.466 45.28C425.506 47.1467 425.026 49.52 425.026 52.4V74H415.026V31.28H424.546V42.8L422.866 39.28C424.359 36.56 426.519 34.48 429.346 33.04C432.226 31.5467 435.532 30.8 439.266 30.8Z" fill="#152022"/>
<path d="M489.549 74.56C485.443 74.56 481.736 73.6533 478.429 71.84C475.176 69.9733 472.616 67.4133 470.749 64.16C468.883 60.9067 467.949 57.0667 467.949 52.64C467.949 48.2134 468.883 44.3734 470.749 41.12C472.616 37.8667 475.176 35.3333 478.429 33.52C481.736 31.7067 485.443 30.8 489.549 30.8C493.123 30.8 496.323 31.6 499.149 33.2C501.976 34.7467 504.216 37.12 505.869 40.32C507.523 43.52 508.349 47.6267 508.349 52.64C508.349 57.6 507.549 61.7067 505.949 64.96C504.349 68.16 502.136 70.56 499.309 72.16C496.483 73.76 493.229 74.56 489.549 74.56ZM490.749 66C493.149 66 495.283 65.4667 497.149 64.4C499.069 63.3334 500.589 61.7867 501.709 59.76C502.883 57.7334 503.469 55.36 503.469 52.64C503.469 49.8667 502.883 47.4934 501.709 45.52C500.589 43.4934 499.069 41.9467 497.149 40.88C495.283 39.8134 493.149 39.28 490.749 39.28C488.349 39.28 486.189 39.8134 484.269 40.88C482.403 41.9467 480.883 43.4934 479.709 45.52C478.589 47.4934 478.029 49.8667 478.029 52.64C478.029 55.36 478.589 57.7334 479.709 59.76C480.883 61.7867 482.403 63.3334 484.269 64.4C486.189 65.4667 488.349 66 490.749 66ZM503.709 74V63.92L504.109 52.56L503.309 41.2V14.64H513.229V74H503.709Z" fill="#152022"/>
<path d="M548.071 74.56C543.325 74.56 539.165 73.6267 535.591 71.76C532.071 69.84 529.325 67.2267 527.351 63.92C525.431 60.6134 524.471 56.8534 524.471 52.64C524.471 48.3734 525.405 44.6134 527.271 41.36C529.191 38.0533 531.805 35.4667 535.111 33.6C538.471 31.7333 542.285 30.8 546.551 30.8C550.711 30.8 554.418 31.7067 557.671 33.52C560.925 35.3333 563.485 37.8933 565.351 41.2C567.218 44.5067 568.151 48.4 568.151 52.88C568.151 53.3067 568.125 53.7867 568.071 54.32C568.071 54.8534 568.045 55.36 567.991 55.84H532.391V49.2H562.711L558.791 51.28C558.845 48.8267 558.338 46.6667 557.271 44.8C556.205 42.9334 554.738 41.4667 552.871 40.4C551.058 39.3333 548.951 38.8 546.551 38.8C544.098 38.8 541.938 39.3333 540.071 40.4C538.258 41.4667 536.818 42.96 535.751 44.88C534.738 46.7467 534.231 48.96 534.231 51.52V53.12C534.231 55.68 534.818 57.9467 535.991 59.92C537.165 61.8934 538.818 63.4134 540.951 64.48C543.085 65.5467 545.538 66.08 548.311 66.08C550.711 66.08 552.871 65.7067 554.791 64.96C556.711 64.2134 558.418 63.04 559.911 61.44L565.271 67.6C563.351 69.84 560.925 71.5734 557.991 72.8C555.111 73.9734 551.805 74.56 548.071 74.56Z" fill="#152022"/>
<path d="M579.357 74V31.28H588.877V43.04L587.757 39.6C589.037 36.72 591.037 34.5333 593.757 33.04C596.53 31.5467 599.97 30.8 604.077 30.8V40.32C603.65 40.2133 603.25 40.16 602.877 40.16C602.504 40.1067 602.13 40.08 601.757 40.08C597.97 40.08 594.957 41.2 592.717 43.44C590.477 45.6267 589.357 48.9067 589.357 53.28V74H579.357Z" fill="#152022"/>
<path d="M627.751 74.56C624.177 74.56 620.737 74.1067 617.431 73.2C614.177 72.24 611.591 71.0934 609.671 69.76L613.511 62.16C615.431 63.3867 617.724 64.4 620.391 65.2C623.057 66 625.724 66.4 628.391 66.4C631.537 66.4 633.804 65.9734 635.191 65.12C636.631 64.2667 637.351 63.12 637.351 61.68C637.351 60.5067 636.871 59.6267 635.911 59.04C634.951 58.4 633.697 57.92 632.151 57.6C630.604 57.28 628.871 56.9867 626.951 56.72C625.084 56.4534 623.191 56.1067 621.271 55.68C619.404 55.2 617.697 54.5334 616.151 53.68C614.604 52.7734 613.351 51.5734 612.391 50.08C611.431 48.5867 610.951 46.6133 610.951 44.16C610.951 41.44 611.724 39.0934 613.271 37.12C614.817 35.0934 616.977 33.5467 619.751 32.48C622.577 31.36 625.911 30.8 629.751 30.8C632.631 30.8 635.537 31.12 638.471 31.76C641.404 32.4 643.831 33.3067 645.751 34.48L641.911 42.08C639.884 40.8534 637.831 40.0267 635.751 39.6C633.724 39.12 631.697 38.88 629.671 38.88C626.631 38.88 624.364 39.3334 622.871 40.24C621.431 41.1467 620.711 42.2934 620.711 43.68C620.711 44.96 621.191 45.92 622.151 46.56C623.111 47.2 624.364 47.7067 625.911 48.08C627.457 48.4534 629.164 48.7734 631.031 49.04C632.951 49.2534 634.844 49.6 636.711 50.08C638.577 50.56 640.284 51.2267 641.831 52.08C643.431 52.88 644.711 54.0267 645.671 55.52C646.631 57.0134 647.111 58.96 647.111 61.36C647.111 64.0267 646.311 66.3467 644.711 68.32C643.164 70.2934 640.951 71.84 638.071 72.96C635.191 74.0267 631.751 74.56 627.751 74.56Z" fill="#152022"/>
<path d="M690.712 74.8C687.138 74.8 683.832 74.1067 680.792 72.72C677.805 71.3334 675.352 69.3334 673.432 66.72L679.352 59.6C680.899 61.7334 682.578 63.3334 684.392 64.4C686.258 65.4667 688.285 66 690.472 66C696.285 66 699.192 62.56 699.192 55.68V26.72H679.272V18H709.592V55.12C709.592 61.7334 707.965 66.6667 704.712 69.92C701.512 73.1734 696.845 74.8 690.712 74.8Z" fill="#152022"/>
<path d="M724.819 74V31.28H734.339V43.04L733.219 39.6C734.499 36.72 736.499 34.5333 739.219 33.04C741.993 31.5467 745.433 30.8 749.539 30.8V40.32C749.113 40.2133 748.713 40.16 748.339 40.16C747.966 40.1067 747.593 40.08 747.219 40.08C743.433 40.08 740.419 41.2 738.179 43.44C735.939 45.6267 734.819 48.9067 734.819 53.28V74H724.819Z" fill="#152022"/>
<path d="M762.432 74.56C760.619 74.56 759.072 73.9467 757.792 72.72C756.512 71.44 755.872 69.84 755.872 67.92C755.872 65.8934 756.512 64.2934 757.792 63.12C759.072 61.8934 760.619 61.28 762.432 61.28C764.245 61.28 768.992 61.28 768.992 61.28C768.992 61.28 768.992 65.8934 768.992 67.92C768.992 69.84 768.352 71.44 767.072 72.72C765.792 73.9467 764.245 74.56 762.432 74.56Z" fill="#152022"/>
</svg>
