<svg width="136" height="22" viewBox="0 0 136 22" fill="none" xmlns="http://www.w3.org/2000/svg">
<g clip-path="url(#clip0_692_430)">
<path d="M10.19 9.51292C9.642 9.38392 9.126 9.35192 8.642 9.35192C6.675 9.35192 4.901 10.5129 4.901 13.7049V20.7029H0V4.67592H4.74V6.83692C5.579 5.03092 7.61 4.51392 8.9 4.51392C9.384 4.51392 9.867 4.57892 10.19 4.67592V9.51292Z" fill="#626B77"/>
<path d="M27.5397 16.0919C26.7657 18.8649 24.2177 21.1869 20.1547 21.1869C15.7367 21.1869 11.8027 18.0269 11.8027 12.6409C11.8027 7.48189 15.6407 4.19189 19.7997 4.19189C24.7667 4.19189 27.8297 7.2559 27.8297 12.4159C27.8297 13.0929 27.7657 13.8349 27.7337 13.9309H16.5757C16.6727 15.7369 18.3167 17.0269 20.2197 17.0269C21.9937 17.0269 22.9927 16.1879 23.4447 14.9309L27.5397 16.0919ZM23.0897 10.7709C23.0257 9.54589 22.1867 8.06289 19.8647 8.06289C17.8007 8.06289 16.7687 9.57789 16.6727 10.7709H23.0897Z" fill="#626B77"/>
<path d="M34.701 12.7049C34.701 15.2529 36.41 16.6719 38.442 16.6719C40.345 16.6719 41.409 15.4779 41.763 14.2859L46.085 15.6079C45.375 18.4129 42.731 21.1859 38.442 21.1859C33.67 21.1859 29.832 17.6719 29.832 12.7049C29.832 7.70689 33.573 4.19189 38.281 4.19189C42.699 4.19189 45.279 6.90089 45.988 9.77089L41.602 11.0929C41.247 9.8679 40.28 8.70689 38.378 8.70689C36.346 8.70689 34.701 10.1259 34.701 12.7049Z" fill="#626B77"/>
<path d="M58.3401 19.091C57.5021 20.477 55.6631 21.058 54.0511 21.058C50.1491 21.058 47.9561 18.22 47.9561 14.802V4.67603H52.8581V13.77C52.8581 15.318 53.6961 16.543 55.4381 16.543C57.0821 16.543 58.1141 15.414 58.1141 13.802V4.67603H63.0161V17.833C63.0161 19.284 63.1451 20.445 63.1771 20.703H58.4691C58.4041 20.413 58.3401 19.51 58.3401 19.091Z" fill="#626B77"/>
<path d="M75.5933 9.51292C75.0443 9.38392 74.5293 9.35192 74.0453 9.35192C72.0783 9.35192 70.3043 10.5129 70.3043 13.7049V20.7029H65.4033V4.67592H70.1433V6.83692C70.9823 5.03092 73.0133 4.51392 74.3033 4.51392C74.7873 4.51392 75.2703 4.57892 75.5933 4.67592V9.51292Z" fill="#626B77"/>
<path d="M88.107 9.51292C87.558 9.38392 87.043 9.35192 86.559 9.35192C84.592 9.35192 82.818 10.5129 82.818 13.7049V20.7029H77.917V4.67592H82.657V6.83692C83.496 5.03092 85.527 4.51392 86.817 4.51392C87.301 4.51392 87.784 4.57892 88.107 4.67592V9.51292Z" fill="#626B77"/>
<path d="M104.812 16.0919C104.038 18.8649 101.491 21.1869 97.4272 21.1869C93.0092 21.1869 89.0752 18.0269 89.0752 12.6409C89.0752 7.48189 92.9132 4.19189 97.0732 4.19189C102.039 4.19189 105.102 7.2559 105.102 12.4159C105.102 13.0929 105.038 13.8349 105.006 13.9309H93.8482C93.9452 15.7369 95.5902 17.0269 97.4922 17.0269C99.2662 17.0269 100.265 16.1879 100.717 14.9309L104.812 16.0919ZM100.362 10.7709C100.298 9.54589 99.4592 8.06289 97.1372 8.06289C95.0732 8.06289 94.0412 9.57789 93.9452 10.7709H100.362Z" fill="#626B77"/>
<path d="M112.52 20.7031H107.618V4.67608H112.359V6.51408C113.229 4.99908 115.197 4.25708 116.841 4.25708C120.872 4.25708 122.678 7.12708 122.678 10.6421V20.7031H117.776V11.4801C117.776 9.90008 116.938 8.70708 115.164 8.70708C113.552 8.70708 112.52 9.90008 112.52 11.5131V20.7031Z" fill="#626B77"/>
<path d="M132.032 4.676H135.16V8.965H132.032V14.963C132.032 16.285 132.741 16.64 133.805 16.64C134.322 16.64 134.805 16.543 135.095 16.478V20.542C134.902 20.638 134.096 20.993 132.548 20.993C129.226 20.993 127.195 19.027 127.195 15.834V8.965H124.357V4.676H125.163C126.84 4.676 127.647 3.547 127.647 2.064V0H132.032V4.676Z" fill="#626B77"/>
</g>
<defs>
<clipPath id="clip0_692_430">
<rect width="135.16" height="21.187" fill="white"/>
</clipPath>
</defs>
</svg>
