<svg width="212" height="28" viewBox="0 0 212 28" fill="none" xmlns="http://www.w3.org/2000/svg">
<path d="M0 10.0111H3.67677V11.923H3.72579C4.11798 11.1877 4.5837 10.6362 5.12296 10.2685C5.66222 9.9008 6.34011 9.71696 7.15744 9.71696C7.3696 9.71696 7.58204 9.7254 7.79475 9.74147C8.00691 9.75809 8.203 9.7905 8.38303 9.83952V13.1976C8.1213 13.1162 7.8642 13.0549 7.61091 13.0138C7.35735 12.9732 7.09208 12.9525 6.81428 12.9525C6.11133 12.9525 5.55573 13.0506 5.14747 13.2467C4.73867 13.4428 4.42438 13.7165 4.20377 14.0678C3.98316 14.4194 3.83991 14.8399 3.77481 15.3302C3.70945 15.8204 3.67677 16.3597 3.67677 16.9479V21.9238H0V10.0111Z" fill="#626B77"/>
<path d="M17.6981 14.6194C17.7141 13.9984 17.5099 13.4673 17.0853 13.0261C16.6601 12.5849 16.1127 12.3643 15.443 12.3643C15.0342 12.3643 14.6747 12.4296 14.3645 12.5604C14.0537 12.6914 13.7884 12.8586 13.5678 13.0629C13.3472 13.2674 13.1756 13.5041 13.0531 13.7737C12.9305 14.0433 12.8608 14.3252 12.8447 14.6194H17.6981ZM20.8111 19.8649C20.2228 20.6169 19.479 21.197 18.5805 21.6052C17.6815 22.0135 16.7503 22.218 15.7861 22.218C14.8708 22.218 14.009 22.0709 13.2002 21.7768C12.3913 21.4827 11.6883 21.0622 11.0921 20.5144C10.4954 19.967 10.0259 19.3096 9.68272 18.5413C9.33955 17.7732 9.16797 16.9153 9.16797 15.9675C9.16797 15.02 9.33955 14.1621 9.68272 13.3938C10.0259 12.6257 10.4954 11.9683 11.0921 11.4206C11.6883 10.8731 12.3913 10.4524 13.2002 10.1582C14.009 9.86408 14.8708 9.71701 15.7861 9.71701C16.6356 9.71701 17.4077 9.86408 18.1025 10.1582C18.7967 10.4524 19.385 10.8731 19.8674 11.4206C20.3492 11.9683 20.7209 12.6257 20.9826 13.3938C21.2438 14.1621 21.3748 15.02 21.3748 15.9675V17.1196H12.8447C12.9918 17.8222 13.3105 18.3819 13.8007 18.7986C14.2909 19.2153 14.8953 19.4237 15.6146 19.4237C16.2189 19.4237 16.7299 19.2889 17.1466 19.0192C17.5633 18.7496 17.9266 18.4026 18.2373 17.9775L20.8111 19.8649Z" fill="#626B77"/>
<path d="M27.3304 15.9674C27.3304 16.8664 27.5878 17.5936 28.1025 18.149C28.6172 18.7048 29.3403 18.9824 30.2718 18.9824C31.2032 18.9824 31.9263 18.7048 32.4411 18.149C32.9558 17.5936 33.2132 16.8664 33.2132 15.9674C33.2132 15.0689 32.9558 14.3417 32.4411 13.7859C31.9263 13.2305 31.2032 12.9525 30.2718 12.9525C29.3403 12.9525 28.6172 13.2305 28.1025 13.7859C27.5878 14.3417 27.3304 15.0689 27.3304 15.9674ZM23.9478 10.011H27.3304V11.5798H27.3794C27.5265 11.3676 27.7182 11.1508 27.9554 10.9302C28.1921 10.7096 28.4702 10.5097 28.7888 10.3297C29.1075 10.1502 29.4545 10.0031 29.8306 9.88848C30.2064 9.77437 30.6065 9.7169 31.0317 9.7169C31.9141 9.7169 32.7145 9.86805 33.4338 10.1704C34.1526 10.473 34.7697 10.8978 35.2845 11.445C35.7992 11.9927 36.1952 12.6422 36.4733 13.3937C36.7508 14.1456 36.89 14.9709 36.89 15.8694C36.89 16.7028 36.7631 17.4994 36.51 18.2593C36.2565 19.0191 35.8972 19.6932 35.4315 20.2815C34.9658 20.8698 34.3977 21.3398 33.728 21.6909C33.0577 22.0422 32.2978 22.2179 31.4484 22.2179C30.6801 22.2179 29.9654 22.0992 29.3036 21.8625C28.6418 21.6258 28.0981 21.2214 27.6735 20.6492H27.6245V27.5125H23.9478V10.011Z" fill="#626B77"/>
<path d="M47.2093 14.6194C47.2254 13.9984 47.0211 13.4673 46.5965 13.0261C46.1714 12.5849 45.6239 12.3643 44.9542 12.3643C44.5454 12.3643 44.1859 12.4296 43.8757 12.5604C43.5649 12.6914 43.2997 12.8586 43.0791 13.0629C42.8585 13.2674 42.6869 13.5041 42.5643 13.7737C42.4418 14.0433 42.372 14.3252 42.356 14.6194H47.2093ZM50.3223 19.8649C49.734 20.6169 48.9902 21.197 48.0917 21.6052C47.1927 22.0135 46.2615 22.218 45.2974 22.218C44.382 22.218 43.5203 22.0709 42.7114 21.7768C41.9025 21.4827 41.1996 21.0622 40.6034 20.5144C40.0066 19.967 39.5371 19.3096 39.1939 18.5413C38.8508 17.7732 38.6792 16.9153 38.6792 15.9675C38.6792 15.02 38.8508 14.1621 39.1939 13.3938C39.5371 12.6257 40.0066 11.9683 40.6034 11.4206C41.1996 10.8731 41.9025 10.4524 42.7114 10.1582C43.5203 9.86408 44.382 9.71701 45.2974 9.71701C46.1468 9.71701 46.919 9.86408 47.6137 10.1582C48.308 10.4524 48.8963 10.8731 49.3786 11.4206C49.8604 11.9683 50.2321 12.6257 50.4939 13.3938C50.7551 14.1621 50.8861 15.02 50.8861 15.9675V17.1196H42.356C42.503 17.8222 42.8217 18.3819 43.3119 18.7986C43.8022 19.2153 44.4065 19.4237 45.1258 19.4237C45.7301 19.4237 46.2411 19.2889 46.6578 19.0192C47.0745 18.7496 47.4378 18.4026 47.7486 17.9775L50.3223 19.8649Z" fill="#626B77"/>
<path d="M59.6858 16.7029C59.4077 16.7029 59.0607 16.7151 58.6443 16.7396C58.2273 16.7641 57.8267 16.8339 57.4432 16.948C57.0586 17.0624 56.7318 17.234 56.4622 17.4627C56.1931 17.6918 56.058 18.0104 56.058 18.4187C56.058 18.8599 56.2457 19.187 56.6218 19.3992C56.9974 19.6116 57.3898 19.7178 57.7984 19.7178C58.1576 19.7178 58.5048 19.6688 58.8401 19.5707C59.1746 19.4727 59.4731 19.3341 59.7348 19.154C59.996 18.9743 60.2043 18.7458 60.3598 18.4677C60.5151 18.1899 60.5927 17.8634 60.5927 17.4872V16.7029H59.6858ZM60.5927 20.4287H60.5437C60.1346 21.066 59.5915 21.5235 58.9134 21.8013C58.2352 22.0788 57.5203 22.218 56.7686 22.218C56.2133 22.218 55.6781 22.1401 55.1633 21.9852C54.6486 21.8299 54.1951 21.5971 53.8029 21.2866C53.4107 20.9764 53.1 20.5921 52.8715 20.1345C52.6424 19.6772 52.5283 19.1459 52.5283 18.5413C52.5283 17.8549 52.6547 17.2751 52.9083 16.8009C53.1613 16.3273 53.5044 15.9348 53.9377 15.6243C54.3705 15.3141 54.8648 15.0728 55.4207 14.9013C55.976 14.7297 56.5521 14.6033 57.1491 14.5213C57.7452 14.4396 58.3414 14.3906 58.9379 14.3742C59.5346 14.3582 60.0858 14.3497 60.5927 14.3497C60.5927 13.6964 60.3598 13.1773 59.8944 12.7932C59.4284 12.4095 58.8766 12.2172 58.2393 12.2172C57.6347 12.2172 57.0834 12.3441 56.585 12.5971C56.0861 12.8507 55.6413 13.1977 55.2491 13.6389L53.2882 11.6289C53.9745 10.9916 54.775 10.5136 55.6903 10.195C56.6052 9.87633 57.5532 9.71701 58.5337 9.71701C59.6122 9.71701 60.4985 9.85182 61.1932 10.1215C61.8875 10.3911 62.4433 10.7874 62.8598 11.3103C63.277 11.8335 63.5668 12.4746 63.7302 13.2344C63.8933 13.9943 63.9753 14.8729 63.9753 15.8695V21.9239H60.5927V20.4287Z" fill="#626B77"/>
<path d="M74.3924 12.9526H71.1569V16.9235C71.1569 17.2506 71.1732 17.5485 71.2061 17.8182C71.2386 18.0878 71.3121 18.3206 71.4265 18.5167C71.5406 18.7128 71.7165 18.8643 71.9538 18.9702C72.1902 19.0767 72.505 19.1295 72.8975 19.1295C73.0933 19.1295 73.3509 19.1091 73.6696 19.0683C73.9882 19.0277 74.229 18.9334 74.3924 18.7864V21.8503C73.9839 21.9974 73.559 22.0955 73.1178 22.1445C72.6766 22.1935 72.2435 22.218 71.8189 22.218C71.1977 22.218 70.6258 22.1524 70.1028 22.0219C69.5797 21.8912 69.1224 21.6828 68.7302 21.3969C68.3383 21.1112 68.0319 20.7391 67.811 20.2816C67.5904 19.8243 67.4801 19.2684 67.4801 18.6148V12.9526H65.127V10.0112H67.4801V6.48146H71.1569V10.0112H74.3924V12.9526Z" fill="#626B77"/>
<path d="M99.0141 20.068C97.6485 20.7805 96.2235 21.2955 94.7392 21.6117C93.2549 21.9282 91.7409 22.0867 90.1972 22.0867C88.5543 22.0867 87.0403 21.8293 85.6551 21.3148C84.2697 20.8003 83.0724 20.0634 82.0631 19.1033C81.0537 18.1435 80.2672 16.9806 79.7031 15.615C79.1391 14.2494 78.8569 12.7259 78.8569 11.0433C78.8569 9.36124 79.1391 7.83716 79.7031 6.47158C80.2672 5.106 81.0537 3.9436 82.0631 2.98355C83.0724 2.02378 84.2697 1.28679 85.6551 0.77177C87.0403 0.257295 88.5543 -7.82883e-05 90.1972 -7.82883e-05C91.8792 -7.82883e-05 93.4278 0.203097 94.8432 0.608631C96.2578 1.01444 97.5 1.71221 98.5688 2.70139L95.3032 6.26377C94.6698 5.61067 93.9573 5.11635 93.1658 4.77945C92.3741 4.44309 91.3846 4.27478 90.1972 4.27478C89.2074 4.27478 88.3122 4.44309 87.5107 4.77945C86.7091 5.11635 86.0212 5.58616 85.4473 6.18942C84.8732 6.7935 84.4328 7.5106 84.1264 8.34183C83.8192 9.17305 83.6661 10.074 83.6661 11.0433C83.6661 12.0333 83.8192 12.9386 84.1264 13.7597C84.4328 14.5812 84.8732 15.2936 85.4473 15.8972C86.0212 16.501 86.7091 16.9708 87.5107 17.3071C88.3122 17.644 89.2074 17.8118 90.1972 17.8118C91.2065 17.8118 92.0772 17.6982 92.8096 17.4706C93.5417 17.2431 94.1256 17.0103 94.5611 16.7728V13.3588H90.7909V9.08399H99.0141V20.068Z" fill="#626B77"/>
<path d="M107.712 9.2326H110.443C110.859 9.2326 111.299 9.21762 111.764 9.18793C112.229 9.15852 112.65 9.06919 113.026 8.92075C113.402 8.77259 113.713 8.54 113.961 8.22326C114.208 7.90678 114.332 7.46176 114.332 6.88736C114.332 6.35301 114.223 5.92759 114.006 5.61085C113.788 5.29464 113.511 5.0517 113.174 4.88339C112.838 4.71562 112.452 4.6015 112.017 4.54213C111.581 4.48276 111.156 4.45307 110.74 4.45307H107.712V9.2326ZM103.081 0.534457H111.215C112.284 0.534457 113.298 0.638222 114.258 0.8463C115.218 1.05383 116.059 1.40054 116.781 1.88506C117.504 2.37039 118.077 3.02349 118.503 3.84436C118.928 4.66578 119.141 5.6901 119.141 6.91705C119.141 8.40138 118.755 9.66319 117.983 10.7022C117.212 11.741 116.084 12.3992 114.599 12.6762L119.943 21.5525H114.392L109.998 13.1512H107.712V21.5525H103.081V0.534457Z" fill="#626B77"/>
<path d="M144.819 0.534457H149.866L153.221 14.0121H153.28L157.673 0.534457H161.978L166.342 14.3684H166.401L169.934 0.534457H174.625L168.48 21.5525H164.353L159.722 7.00611H159.663L155.032 21.5525H151.053L144.819 0.534457Z" fill="#626B77"/>
<path d="M180.77 4.63119H174.773V0.534457H191.398V4.63119H185.401V21.5525H180.77V4.63119Z" fill="#626B77"/>
<path d="M193.743 0.534457H198.374V8.37169H207.369V0.534457H212V21.5525H207.369V12.4684H198.374V21.5525H193.743V0.534457Z" fill="#626B77"/>
<path d="M147.031 12.1494L141.342 3.91918L135.652 12.1494H147.031Z" fill="#626B77"/>
<path d="M143.555 10.4901H138.664C138.789 11.0528 138.859 11.6408 138.859 12.2596C138.859 13.2496 138.705 14.1549 138.398 14.9761C138.091 15.7975 137.651 16.5099 137.077 17.1132C136.503 17.7173 135.816 18.1874 135.014 18.5235C134.212 18.8601 133.317 19.0284 132.327 19.0284C131.338 19.0284 130.442 18.8601 129.641 18.5235C128.839 18.1874 128.151 17.7173 127.577 17.1132C127.003 16.5099 126.563 15.7975 126.257 14.9761C125.949 14.1549 125.796 13.2496 125.796 12.2596C125.796 11.2903 125.949 10.3894 126.257 9.55813C126.563 8.72691 127.003 8.01008 127.577 7.406C128.151 6.80247 128.839 6.33238 129.641 5.99576C130.442 5.65967 131.338 5.49136 132.327 5.49136C133.317 5.49136 134.212 5.65967 135.014 5.99576C135.816 6.33238 136.503 6.80247 137.077 7.406C137.119 7.44985 137.155 7.4986 137.195 7.54381L139.865 3.68103C138.99 2.97155 137.992 2.40533 136.869 1.98808C135.484 1.47388 133.97 1.21623 132.327 1.21623C130.684 1.21623 129.17 1.47388 127.786 1.98808C126.4 2.5031 125.203 3.24009 124.193 4.19959C123.184 5.16018 122.397 6.32231 121.833 7.68789C121.269 9.05374 120.987 10.5776 120.987 12.2596C120.987 13.9422 121.269 15.466 121.833 16.8313C122.397 18.1969 123.184 19.3599 124.193 20.3196C125.203 21.2797 126.4 22.0167 127.786 22.5311C129.17 23.0456 130.684 23.303 132.327 23.303C133.97 23.303 135.484 23.0456 136.869 22.5311C138.254 22.0167 139.452 21.2797 140.462 20.3196C141.471 19.3599 142.258 18.1969 142.822 16.8313C143.386 15.466 143.668 13.9422 143.668 12.2596C143.668 11.6487 143.629 11.0593 143.555 10.4901Z" fill="#626B77"/>
</svg>
