<svg xmlns="http://www.w3.org/2000/svg" width="228" height="50" viewBox="0 0 228 50">
  <g fill="none" fill-rule="evenodd">
    <rect width="4.33" height="4.922" x="22.591" y="16.883" rx=".399"/>
    <rect width="4.33" height="4.922" x="16.327" y="16.883" rx=".399"/>
    <path fill="#626B77" fill-rule="nonzero" d="M16.3265306,27.3197279 L16.3265306,24.0786092 C16.3265306,23.8581963 16.5052106,23.6795163 16.7256236,23.6795163 L20.2690854,23.6795163 C20.4894984,23.6795163 20.6681784,23.8581963 20.6681784,24.0786092 L20.6681784,26.606198 L22.6152683,26.1950113 L22.6152683,24.0786092 C22.6152683,23.8581963 22.7939483,23.6795163 23.0143613,23.6795163 L26.606198,23.6795163 C26.826611,23.6795163 27.005291,23.8581963 27.005291,24.0786092 L27.005291,25.0823885 C30.8324439,23.8992087 34.5093474,22.2758517 37.9622071,20.244898 L21.9138322,8.40513983 L21.9138322,8.40513983 L5.21239607,20.7649282 L5.21239607,27.6099773 C6.42176871,27.6825397 7.69160998,27.7309146 8.96145125,27.7309146 C11.4224003,27.7377738 13.8816385,27.6004764 16.3265306,27.3197279 Z M22.6031746,17.2698413 C22.6317062,17.0821693 22.788482,16.9405653 22.9780801,16.9312169 L26.606198,16.9312169 C26.826611,16.9312169 27.005291,17.1098969 27.005291,17.3303099 L27.005291,21.4663643 C26.959883,21.6484375 26.7937652,21.7742843 26.606198,21.7687075 L22.9780801,21.7687075 C22.7576672,21.7687075 22.5789872,21.5900275 22.5789872,21.3696145 L22.6031746,17.2698413 Z M16.3265306,17.2698413 C16.3265306,17.0494283 16.5052106,16.8707483 16.7256236,16.8707483 L20.2690854,16.8707483 C20.4894984,16.8707483 20.6681784,17.0494283 20.6681784,17.2698413 L20.6681784,21.4058957 C20.6681784,21.6263087 20.4894984,21.8049887 20.2690854,21.8049887 L16.7135299,21.8049887 C16.4931169,21.8049887 16.3144369,21.6263087 16.3144369,21.4058957 L16.3265306,17.2698413 Z"/>
    <path fill="#626B77" fill-rule="nonzero" d="M8.96145125,29.0249433 C7.47795414,29.0249433 6.01461325,28.9725372 4.57142857,28.8677249 L4.57142857,28.8677249 C4.57142857,28.8677249 -2.86621315,27.6583522 2.40665155,23.7762661 C2.40665155,23.7762661 -4.25699169,26.3522298 4.5835223,31.6734694 L4.5835223,32.6530612 C5.05517763,42.0256992 21.8896447,49.5842782 21.8896447,49.5842782 C21.8896447,49.5842782 39.2199546,41.8442933 39.2199546,32.2902494 L39.2199546,20.7891156 C30.1087286,26.3246957 19.6213434,29.1791759 8.96145125,29.0249433 Z"/>
    <polygon fill="#626B77" fill-rule="nonzero" points="34.806 9.385 34.806 3.06 29.521 3.06 29.521 5.539 21.914 0 3.096 13.847 3.096 20.148 21.914 6.289 40.937 20.148 40.937 13.847"/>
    <path fill="#626B77" fill-rule="nonzero" d="M52.7165533 34.9266818L52.7165533 31.4436886C55.0003607 32.266379 57.4123985 32.675893 59.8397581 32.6530612 63.0647518 32.6530612 64.6772487 31.5847821 64.6772487 29.4482237 64.6772487 27.8921643 63.6895944 27.1141345 61.7142857 27.1141345L58.4126984 27.1141345C54.1395818 27.0899471 52.0030234 25.1347947 52.0030234 21.2486772 52.0030234 16.9836231 55.0546737 14.851096 61.1579743 14.851096 63.4187234 14.838103 65.6674375 15.1809197 67.8216175 15.866969L67.8216175 19.3499622C65.6902701 18.5527774 63.4335267 18.1432051 61.1579743 18.1405896 57.6427312 18.1405896 55.8851096 19.1564626 55.8851096 21.1882086 55.8851096 22.7442681 56.7357017 23.5222978 58.4368859 23.5222978L61.6780045 23.5222978C66.2413706 23.5222978 68.5230537 25.4613253 68.5230537 29.3393802 68.5230537 33.7011842 65.6205593 35.8820862 59.8155707 35.8820862 57.4139814 35.934097 55.0189423 35.6117664 52.7165533 34.9266818zM70.7362056 31.0325019C70.7362056 28.0010078 72.9654825 26.4852608 77.4240363 26.4852608 78.474809 26.4859793 79.5232983 26.5831366 80.5563114 26.7755102L80.5563114 25.5661376C80.5563114 24.1955152 79.5646259 23.5102041 77.5812547 23.5102041 75.6926171 23.5397785 73.8137099 23.7873236 71.9818594 24.2479214L71.9818594 21.2486772C73.8156143 20.8043839 75.6944943 20.5730747 77.5812547 20.5593348 82.1526833 20.5593348 84.4383976 22.2363316 84.4383976 25.590325L84.4383976 35.8337113 82.2373394 35.8337113 80.8586546 34.4671202C79.5587148 35.3666927 78.0131641 35.8438709 76.4323507 35.8337113 72.6349206 35.8095238 70.7362056 34.2091207 70.7362056 31.0325019zM77.3877551 29.0975049C75.5253212 29.0975049 74.5941043 29.7304107 74.5941043 30.9962207 74.5941043 32.2620307 75.3761653 32.9433107 76.9402872 33.0400605 78.2486483 33.0400605 79.5217163 32.6157045 80.5684051 31.8306878L80.5684051 29.4119426C79.525231 29.2025108 78.4638384 29.0971818 77.3998488 29.0975049L77.3877551 29.0975049zM88.1027967 35.7974301L88.1027967 20.5593348C88.1027967 16.3749055 90.4086672 14.2826909 95.0204082 14.2826909 96.1909724 14.2668026 97.3547025 14.4634894 98.4550265 14.8631897L98.4550265 17.9108088C97.4500079 17.5160723 96.3782632 17.3189699 95.2985639 17.3303099 93.7201357 17.091409 92.2450672 18.1720453 91.9969766 19.7490552 91.9586062 20.0177856 91.9586062 20.2906044 91.9969766 20.5593348L96.61678 20.5593348 96.61678 23.6069539 91.9848828 23.6069539 91.9848828 35.7974301 88.1027967 35.7974301zM104.441421 20.5593348C109.109599 20.5593348 111.443689 22.925674 111.443689 27.6583522 111.425294 28.2785352 111.364686 28.8967455 111.262283 29.5086924L101.103553 29.5086924C101.103553 31.6613757 102.716049 32.7377173 105.941043 32.7377173 107.503197 32.7369254 109.061907 32.5911759 110.597128 32.3023432L110.597128 35.3499622C108.963845 35.6663346 107.302124 35.8122418 105.6387 35.7853364 100.059461 35.7853364 97.2698413 33.1811539 97.2698413 27.9727891 97.2375913 23.0304863 99.6281179 20.5593348 104.441421 20.5593348zM101.103553 26.8359788L107.634165 26.8359788 107.634165 26.7150416C107.834775 25.1738673 106.754955 23.7593042 105.21542 23.5464853 104.95066 23.5092573 104.681993 23.5092573 104.417234 23.5464853 102.377425 23.5464853 101.272865 24.6429831 101.103553 26.8359788z"/>
    <polygon fill="#626B77" fill-rule="nonzero" points="114.733 35.797 114.733 14.996 118.615 14.996 118.615 23.583 128.943 23.583 128.943 14.996 132.825 14.996 132.825 35.797 128.943 35.797 128.943 26.921 118.615 26.921 118.615 35.797"/>
    <path fill="#626B77" fill-rule="nonzero" d="M136.126984 28.154195C136.126984 23.0345175 138.666667 20.4746788 143.746032 20.4746788 148.825397 20.4746788 151.365079 23.0345175 151.365079 28.154195 151.365079 33.26581 148.825397 35.8216175 143.746032 35.8216175 138.666667 35.8216175 136.126984 33.26581 136.126984 28.154195zM143.746032 32.882842C146.237339 32.882842 147.482993 31.2703452 147.482993 28.0453515 147.482993 24.8203578 146.237339 23.2642983 143.746032 23.3771731 141.254724 23.3771731 140.00907 24.9332326 140.00907 28.0453515 140.00907 31.1574704 141.254724 32.7699672 143.746032 32.882842zM154.291761 35.7974301L154.291761 20.5593348 157.291005 20.5593348 157.750567 22.7724868C159.009484 21.3508005 160.822189 20.5436837 162.721088 20.5593348 164.343957 20.394583 165.907348 21.2191762 166.687831 22.6515495 168.01146 21.3592249 169.772939 20.6123234 171.622071 20.5593348 175.161502 20.5593348 176.931217 22.4902998 176.931217 26.3522298L176.931217 35.8216175 173.049131 35.8216175 173.049131 26.1829176C173.049131 24.4897959 172.279164 23.6432351 170.739229 23.6432351 169.466857 23.7088889 168.271755 24.2738461 167.413454 25.2154195L167.413454 35.845805 163.531368 35.845805 163.531368 26.2312925C163.531368 24.5059209 162.817838 23.6432351 161.390779 23.6432351 160.146021 23.695277 158.979689 24.2652889 158.173847 25.2154195L158.173847 35.845805 154.291761 35.7974301zM187.089947 20.5593348C191.758125 20.5593348 194.092215 22.925674 194.092215 27.6583522 194.092215 28.2935826 194.04768 28.9280315 193.959184 29.5570673L183.739985 29.5570673C183.739985 31.7097506 185.352482 32.7860922 188.577475 32.7860922 190.139626 32.7852308 191.69833 32.6394819 193.23356 32.3507181L193.23356 35.3983371C191.600265 35.7146231 189.938553 35.8605295 188.275132 35.8337113 182.695893 35.8337113 179.906274 33.2295288 179.906274 28.021164 179.874024 23.0466112 182.268582 20.5593348 187.089947 20.5593348zM183.752079 26.87226L190.318972 26.87226 190.318972 26.7513228C190.519582 25.2101485 189.439763 23.7955853 187.900227 23.5827664 187.635467 23.5455385 187.366801 23.5455385 187.102041 23.5827664 185.038045 23.558579 183.921391 24.6429831 183.752079 26.8359788L183.752079 26.87226z"/>
    <polygon fill="#626B77" fill-rule="nonzero" points="199.546 33.717 199.546 35.955 197.128 35.955 197.128 33.717"/>
    <path fill="#626B77" fill-rule="nonzero" d="M201.142857 31.2139078C201.142857 27.9889141 202.755354 26.3764172 205.980348 26.3764172 209.205341 26.3764172 210.817838 27.9889141 210.817838 31.2139078 210.817838 34.4389015 209.205341 36.0513983 205.980348 36.0513983 202.755354 36.0513983 201.142857 34.4389015 201.142857 31.2139078zM205.980348 34.1768707C207.54447 34.1768707 208.326531 33.1771227 208.326531 31.1776266 208.326531 29.1781305 207.54447 28.2025699 205.980348 28.2509448 204.416226 28.2509448 203.634165 29.2265054 203.634165 31.1776266 203.634165 33.1287478 204.412195 34.1083396 205.968254 34.1164021L205.980348 34.1768707zM212.523054 35.9425548L212.523054 26.4126984 214.409675 26.4126984 214.712018 27.6220711C215.410282 26.8776229 216.376582 26.4423527 217.396825 26.4126984L217.396825 28.3356009C216.46981 28.3490537 215.591513 28.7530705 214.97808 29.4482237L214.97808 35.9425548 212.523054 35.9425548zM227.362056 35.2169312C227.362056 38.0065508 225.668934 39.4013605 222.282691 39.4013605 221.212781 39.4171869 220.147208 39.2620461 219.126228 38.9417989L219.126228 37.0430839C220.155751 37.3622702 221.229112 37.5173566 222.306878 37.5026455 224.0645 37.494583 224.943311 36.7649282 224.943311 35.313681 224.204245 35.6227434 223.410285 35.7790671 222.609221 35.7732426 219.74704 35.7732426 218.315949 34.2212144 218.315949 31.117158 218.315949 28.0131015 219.984883 26.4489796 223.322751 26.4247921 224.681676 26.4499717 226.036432 26.5834252 227.37415 26.8238851L227.362056 35.2169312zM224.943311 28.5411943C224.395016 28.3747631 223.822751 28.3011862 223.250189 28.3235072 221.56513 28.3235072 220.7226 29.2426304 220.7226 31.0808768 220.7226 32.9191232 221.448224 33.8059965 222.899471 33.7414966 223.60901 33.740616 224.308657 33.5750192 224.943311 33.2577475L224.943311 28.5411943z"/>
  </g>
</svg>
