<svg xmlns="http://www.w3.org/2000/svg" width="276" height="50" viewBox="0 0 276 50">
  <path fill="#626B77" d="M59.7842929 29.1660337C59.9848094 31.4020963 61.6618563 33.3829561 64.8093574 33.3829561 67.2398602 33.3829561 68.5219505 32.0644083 68.5219505 30.5392678 68.5219505 29.22072 67.6044357 28.1999089 65.6235759 27.7988759L61.9778217 26.9785812C57.6089929 26.0185326 55.2939389 23.168768 55.2939389 19.7660641 55.2939389 15.4458454 59.2556585 11.7940149 64.4083245 11.7940149 71.323105 11.7940149 73.5530913 16.2661401 73.9602005 18.7027191L68.983746 20.1245633C68.7832295 18.7027191 67.7138083 16.4180465 64.4083245 16.4180465 62.3302446 16.4180465 60.8537141 17.7365943 60.8537141 19.2617348 60.8537141 20.5802825 61.819839 21.5464074 63.3449795 21.8502203L67.1061826 22.6097524C71.7788242 23.6305636 74.2154033 26.4742519 74.2154033 30.1260823 74.2154033 33.8933617 71.1772748 38.0252165 64.87012 38.0252165 57.706213 38.0252165 54.9658211 33.3525748 54.6559319 30.5574966L59.7842929 29.1660337zM100.938782 30.2233024C99.6202339 34.5435212 95.7071244 38.0495215 89.764545 38.0495215 83.0806623 38.0495215 77.1198542 33.1885159 77.1198542 24.7911287 77.1198542 16.9709859 82.9105271 11.7879386 89.1569193 11.7879386 96.7765456 11.7879386 101.242595 16.8130032 101.242595 24.6392222 101.262039 25.2687832 101.210998 25.8985265 101.090688 26.5167857L83.0077472 26.5167857C83.0539268 28.2665654 83.7903691 29.9270242 85.0560535 31.1359563 86.3217378 32.3448276 88.014583 33.0040407 89.764545 32.9697706 93.3191554 32.9697706 95.1481088 31.0922072 95.9623272 28.6495519L100.938782 30.2233024zM95.3000152 22.2026432C95.2027951 19.3042686 93.2705453 16.7340118 89.2237582 16.7340118 87.7089473 16.7015039 86.2391007 17.2500076 85.1162084 18.26693 83.9927085 19.2838523 83.3018381 20.6920857 83.1839587 22.2026432L95.3000152 22.2026432zM110.235455 24.9126538C110.235455 29.8951846 113.437642 32.6902628 117.144159 32.6902628 118.543521 32.7304876 119.91554 32.2994987 121.040863 31.4665046 122.165578 30.6334498 122.977974 29.446696 123.348018 28.0966125L128.531065 29.9741759C127.358347 33.8325991 123.670059 38.0495215 117.150235 38.0495215 109.858727 38.0495215 104.347562 32.410755 104.347562 24.8883488 104.347562 17.3659426 109.883032 11.7879386 116.998329 11.7879386 123.682212 11.7879386 127.327966 15.9501747 128.324472 19.9179705L123.032052 21.8745253C122.748291 20.5167249 121.988759 19.3050585 120.890172 18.4582105 119.791584 17.6114234 118.426249 17.1852347 117.040863 17.25657 113.437642 17.2261887 110.235455 19.9179705 110.235455 24.9126538L110.235455 24.9126538zM141.667933 38.0009114C135.767887 38.0009114 132.316573 33.6320826 132.316573 28.1452225L132.316573 12.5474708 138.204466 12.5474708 138.204466 27.0758013C138.204466 30.1139298 139.632386 32.7206441 143.186997 32.7206441 146.595777 32.7206441 148.363968 30.4359714 148.363968 27.1790977L148.363968 12.5474708 154.257937 12.5474708 154.257937 32.7692541C154.257329 34.2798116 154.342397 35.7891539 154.51314 37.2899894L148.868297 37.2899894C148.732189 36.3808598 148.66535 35.4627374 148.667781 34.5435212 147.458605 36.7795838 144.560231 38.0009114 141.667933 38.0009114L141.667933 38.0009114zM174.996202 18.39283C174.35698 18.291235 173.711074 18.2384323 173.063953 18.2348473 168.488531 18.2348473 166.410451 20.8780191 166.410451 25.5263558L166.410451 37.3142944 160.510406 37.3142944 160.510406 12.5474708 166.258545 12.5474708 166.258545 16.5091903C167.425186 13.8174085 170.165578 12.2558104 173.416376 12.2558104 173.946225 12.2580586 174.475467 12.3089169 174.996202 12.4077168L174.996202 18.39283zM181.351967 0C181.858727 0 182.360626.0998013064 182.828498.293704998 183.296369.487608689 183.721707.77181832 184.080207 1.13010482 184.438706 1.48839131 184.723075 1.91374146 184.916907 2.38186845 185.11074 2.84999544 185.21039 3.35173021 185.21039 3.85842321 185.205529 4.61464986 184.977062 5.35256266 184.554155 5.97934073 184.131247 6.60610664 183.532128 7.09378703 182.832143 7.38095093 182.132766 7.66816146 181.36412 7.74200213 180.622209 7.59331612 179.880905 7.44456935 179.199757 7.07993316 178.665046 6.54516178 178.130336 6.01042686 177.76576 5.32949111 177.616892 4.58801762 177.468631 3.84654413 177.542154 3.07764849 177.829561 2.37805864 178.11636 1.67846878 178.604284 1.07942276 179.230746.656284369 179.857816.233144767 180.595473.00480921161 181.351967 0L181.351967 0zM178.453593 37.2899894L178.453593 12.5474708 184.298952 12.5474708 184.298952 37.2899894 178.453593 37.2899894zM198.085979 12.5474708L203.220416 12.5474708 203.220416 17.7791281 198.085979 17.7791281 198.085979 29.2571776C198.085979 31.4446301 199.052104 32.3621449 201.239556 32.3621449 201.920097 32.3458605 202.598208 32.2788394 203.269026 32.1616284L203.269026 37.0226341C202.115145 37.4467568 200.887741 37.6367614 199.65973 37.5816497 195.090384 37.5816497 192.246696 34.8351815 192.246696 30.2111499L192.246696 17.7791281 187.671274 17.7791281 187.671274 12.5474708 188.947288 12.5474708C191.584384 12.5474708 192.757102 10.8704238 192.757102 8.68904755L192.757102 4.98253076 198.085979 4.98253076 198.085979 12.5474708zM210.238493 47.2915084L216.187149 34.3430047 205.608385 12.5474708 212.292268 12.5474708 219.352879 28.1938326 226.036761 12.5474708 232.28923 12.5474708 216.533495 47.2915084 210.238493 47.2915084zM230.4542 33.3100038C230.726417 33.3092511 230.995595 33.3622968 231.247152 33.4662616 231.498709 33.5701656 231.727176 33.7228619 231.919186 33.9154793 232.111196 34.1081574 232.263102 34.3369285 232.366398 34.588607 232.469695 34.8403463 232.52195 35.1100106 232.520128 35.3820447 232.52195 35.6526811 232.469087 35.9208871 232.365791 36.1709251 232.262494 36.4210238 232.10998 36.6477898 231.917363 36.8380374 231.724746 37.028285 231.496278 37.1780647 231.244721 37.2786875 230.993772 37.3792496 230.724594 37.428528 230.4542 37.423667 230.184414 37.4285888 229.916451 37.3791888 229.66611 37.2783837 229.415768 37.1776394 229.188516 37.0274951 228.997721 36.8370044 228.806319 36.6465745 228.655628 36.4195655 228.554155 36.1695883 228.452681 35.9196111 228.402248 35.6518305 228.406502 35.3820447 228.401641 35.110679 228.450858 34.8410147 228.551724 34.5890324 228.65259 34.33705 228.803281 34.1077928 228.994076 33.9146894 229.18487 33.7216467 229.412122 33.5687073 229.663072 33.464864 229.914021 33.3610208 230.182592 33.3084004 230.4542 33.3100038L230.4542 33.3100038zM249.381741 30.1382348C249.381741 34.4888349 246.343612 37.7153274 242.090232 37.7153274 237.836852 37.7153274 234.798724 34.4888349 234.798724 30.1382348 234.798724 25.7876348 237.836852 22.5854474 242.090232 22.5854474 246.343612 22.5854474 249.381741 25.8180161 249.381741 30.1382348zM246.538053 30.1382348C246.538053 26.8570561 244.466049 25.0767127 242.102385 25.0767127 239.738721 25.0767127 237.654565 26.8570561 237.654565 30.1382348 237.654565 33.4194136 239.732645 35.2422907 242.102385 35.2422907 244.472125 35.2422907 246.538053 33.4558712 246.538053 30.1382348zM260.343309 25.8423211C259.940453 25.787331 259.534559 25.7589549 259.128057 25.7572535 256.788698 25.7572535 255.221024 26.9725049 255.221024 30.1382348L255.221024 37.2778369 252.432022 37.2778369 252.432022 23.0290141 255.160261 23.0290141 255.160261 25.5202795C255.509646 24.6881969 256.103296 23.9817712 256.862828 23.4945769 257.622361 23.0073827 258.511925 22.762388 259.413641 22.7920401 259.721707 22.7942883 260.028558 22.8247911 260.331156 22.883184L260.343309 25.8423211zM264.566307 37.423667C264.641045 38.3922224 265.084612 39.2950327 265.806471 39.9453744 266.527723 40.5957162 267.471973 40.9437642 268.442959 40.9175148 271.438554 40.9175148 272.799635 39.3802218 272.799635 36.2934832L272.799635 34.2579371C272.119095 35.5643324 270.581802 36.5912198 268.442959 36.5912198 264.651375 36.5912198 261.89883 33.7232265 261.89883 29.6946681 261.89883 25.8423211 264.542002 22.7677351 268.442959 22.7677351 270.636488 22.7677351 272.088713 23.594106 272.830017 25.0159502L272.830017 23.0290141 275.582561 23.0290141 275.582561 36.2084156C275.582561 39.8541698 273.808294 43.3540939 268.442959 43.3540939 264.894425 43.3540939 262.233024 41.0998025 261.874525 38.0495215L264.566307 37.423667zM272.921161 29.6946681C272.921161 26.9421237 271.262342 25.1374753 268.862221 25.1374753 266.462099 25.1374753 264.742519 26.9603524 264.742519 29.6946681 264.742519 32.4289837 266.34665 34.2579371 268.862221 34.2579371 271.262342 34.2579371 272.921161 32.4472125 272.921161 29.6946681zM16.2661401 24.9126538C16.2722101 25.2691346 16.3070617 25.6264758 16.3772748 25.979523 16.5883032 27.040316 17.10916 28.0147653 17.8739177 28.7795838 18.6387361 29.5443415 19.6131855 30.0651982 20.6739784 30.2762266 21.7347714 30.4871943 22.8343309 30.3789154 23.8336321 29.9650008 24.8328726 29.5510861 25.6869512 28.8501899 26.2878323 27.9508431 26.8887741 27.051557 27.209479 25.9942276 27.209479 24.9126538L27.2031401 25.1436538 27.2034027 43.688288C27.2034027 44.3038476 27.0994764 44.9142287 26.8967129 45.4939089L26.7871183 45.7810725C26.5122892 46.444539 26.1094942 47.0473644 25.6017014 47.555218 25.0938478 48.0630108 24.4910223 48.4658059 23.8275558 48.740635 23.1640286 49.0154641 22.4529242 49.1569193 21.7347714 49.1569193 21.0166186 49.1569193 20.3055142 49.0154641 19.6420477 48.740635 18.9785204 48.4658059 18.375695 48.0630108 17.8678414 47.555218 17.3600486 47.0473644 16.9572535 46.444539 16.6824244 45.7810725 16.4075953 45.1175452 16.2661401 44.4064408 16.2661401 43.688288L16.2661401 43.688288 16.2661401 24.9126538zM21.7408476.668394349C23.1911894.668394349 24.5821662 1.24455112 25.6077776 2.27012001 26.6333283 3.29568282 27.209479 4.6866535 27.209479 6.1370196L27.209479 6.1370196 27.209479 24.9126538 27.2027581 24.6414851C27.1357047 23.2898671 26.5692314 22.0072345 25.6077776 21.0457238 24.5821662 20.0201732 23.1911894 19.4440225 21.7408476 19.4440225 20.6592739 19.4440225 19.6019444 19.7647273 18.7026584 20.3656691 17.8033116 20.9665502 17.1024153 21.8206289 16.6885007 22.8199301 16.4123428 23.4866089 16.2722346 24.1979434 16.2722183 24.9126267L16.2722163 24.9126538 16.2722163 6.1370196C16.2722163 4.6866535 16.848367 3.29568282 17.8739177 2.27012001 18.8995291 1.24455112 20.2904451.668394349 21.7408476.668394349zM38.0009114 39.7751785C36.5505696 39.7751785 35.1595929 39.1990278 34.1339815 38.1734771 33.1084308 37.1478657 32.5322801 35.756889 32.5322801 34.3065472L32.5322801 15.5248367C32.5322801 14.0744949 33.1084308 12.6835182 34.1339815 11.6579067 35.1595929 10.6323561 36.5505696 10.0562054 38.0009114 10.0562054 39.451314 10.0562054 40.84223 10.6323561 41.8678414 11.6579067 42.8933921 12.6835182 43.4695428 14.0744949 43.4695428 15.5248367L43.4695428 34.3065472C43.4695428 35.756889 42.8933921 37.1478657 41.8678414 38.1734771 40.84223 39.1990278 39.451314 39.7751785 38.0009114 39.7751785L38.0009114 39.7751785zM5.46863132 39.7751785C4.01825915 39.7751785 2.62729455 39.1990278 1.60172566 38.1734771.576157983 37.1478657 0 35.7569497 0 34.3065472L0 15.5248367C0 14.0744949.576157983 12.6835182 1.60172566 11.6579067 2.62729455 10.6323561 4.01825915 10.0562054 5.46863132 10.0562054 6.91897311 10.0562054 8.30994987 10.6323561 9.33556129 11.6579067 10.361112 12.6835182 10.9372626 14.0744949 10.9372626 15.5248367L10.9372626 34.3065472C10.9372626 35.7569497 10.361112 37.1478657 9.33556129 38.1734771 8.30994987 39.1990278 6.91897311 39.7751785 5.46863132 39.7751785L5.46863132 39.7751785z"/>
</svg>
