<svg xmlns="http://www.w3.org/2000/svg" width="254" height="50" viewBox="0 0 254 50">
  <g fill="#626B77" fill-rule="evenodd">
    <path d="M63.65 25.7333333C63.65 23.1833333 66.1166667 21.65 69.85 21.65 72.7081045 21.6900157 75.4952743 22.5458272 77.8833333 24.1166667L79.3 21.1C76.5370693 19.2885702 73.3037887 18.3266982 70 18.3332992 63.9666667 18.3332992 60 21.3166667 60 25.9833333 60 36.65 76.3833333 32.45 76.3333333 40.3833333 76.3333333 43.3333333 73.7166667 45 69.5166667 45 65.8797238 44.878426 62.4221845 43.3906724 59.8333333 40.8333333L58.3333333 43.7833333C61.3385206 46.6590842 65.32415 48.2855069 69.4833333 48.3333333 75.7166667 48.3333333 80 45.15 80 40.2166667 80 29.4166667 63.65 33.4666667 63.65 25.7333333M86.6666667 34.4833333C86.9948815 30.4455794 90.4893705 27.4101122 94.5333333 27.65 96.4509366 27.492628 98.347705 28.1391796 99.7699557 29.435008 101.192206 30.7308364 102.012029 32.5594013 102.033333 34.4833333L86.6666667 34.4833333zM94.4833333 25C87.95 25 83.3333333 29.4333333 83.3333333 35.8333333 83.3333333 42.2333333 87.9 46.6666667 94.5166667 46.6666667 97.894877 46.788231 101.172096 45.5026919 103.566667 43.1166667L101.666667 41.2833333C99.8098082 43.0993437 97.2963593 44.0854815 94.7 44.0166667 90.6003314 44.1525788 87.0929733 41.0963747 86.6666667 37.0166667L105 37.0166667C105.316667 29.7666667 101.666667 25 94.4833333 25zM121.666667 25C117.683333 25 114.733333 26.6666667 113.2 29.8666667L113.2 25.1166667 110 25.1166667 110 46.6666667 113.233333 46.6666667 113.233333 35.1166667C113.254825 33.2011408 114.045858 31.3747585 115.428345 30.0486999 116.810831 28.7226412 118.668574 28.0083606 120.583333 28.0666667 122.259907 27.9122581 123.91865 28.5091673 125.112397 29.696479 126.306144 30.8837908 126.91201 32.5392829 126.766667 34.2166667L126.766667 46.6666667 130 46.6666667 130 33.3333333C130 28.0833333 126.933333 25 121.666667 25M136.666667 16.6666667C135.716667 16.6666667 135 17.7 135 19.1666667 135 20.6333333 135.716667 21.6666667 136.666667 21.6666667 137.616667 21.6666667 138.333333 20.5833333 138.333333 19.1666667 138.333333 17.75 137.616667 16.6666667 136.666667 16.6666667"/>
    <polygon points="136.667 46.667 140 46.667 140 25 136.667 25"/>
    <path d="M155 43.9C152.793382 44.0527207 150.625683 43.2614005 149.036414 41.7229883 147.447145 40.1845761 146.585768 38.0437502 146.666667 35.8333333 147.196316 31.6712539 150.737689 28.5519823 154.933333 28.5519823 159.128978 28.5519823 162.670351 31.6712539 163.2 35.8333333 163.275607 38.0422166 162.412567 40.1798648 160.824534 41.7170808 159.236501 43.2542968 157.071924 44.047382 154.866667 43.9M155 25C148.133333 25 143.333333 29.4333333 143.333333 35.8 143.333333 42.1666667 148.133333 46.6666667 155 46.6666667 161.866667 46.6666667 166.666667 42.1833333 166.666667 35.8 166.666667 29.4166667 161.816667 25 155 25M175 30L175 25.1166667 171.666667 25.1166667 171.666667 46.6666667 175 46.6666667 175 35.2C175.4 30.85 178.333333 28.0333333 183.333333 28.1166667L183.333333 25C179.794506 24.8059725 176.49413 26.7861983 175 30"/>
    <polygon points="191.9 18.333 185 18.333 185 48.333 205 48.333 205 42.417 191.9 42.417"/>
    <polygon points="206.667 48.333 213.333 48.333 213.333 25 206.667 25"/>
    <path d="M210 21.6666667C210.89236 21.6947199 211.756603 21.352547 212.387908 20.7212418 213.019214 20.0899366 213.361387 19.2256929 213.333333 18.3333333 213.333333 16.4923842 211.840949 15 210 15 208.159051 15 206.666667 16.4923842 206.666667 18.3333333 206.638613 19.2256929 206.980786 20.0899366 207.612092 20.7212418 208.243397 21.352547 209.10764 21.6947199 210 21.6666667M224.15 31.4833333C224.15 30.3 225.3 29.8166667 226.883333 29.8166667 229.442554 29.9811721 231.929294 30.7340381 234.15 32.0166667L236.483333 27.5666667C233.672948 25.8990242 230.467894 25.012887 227.2 25 222.016667 25 217.816667 27.4166667 217.816667 32.1166667 217.816667 40.1166667 230.166667 38.1666667 230.166667 41.8166667 230.166667 43.0333333 228.883333 43.5833333 227.15 43.5833333 224.148224 43.5111298 221.240357 42.5224553 218.816667 40.75L216.666667 45.15C219.671546 47.2973804 223.290907 48.4141784 226.983333 48.3333333 232.383333 48.3333333 236.666667 45.8833333 236.666667 41.2166667 236.666667 33.1666667 224.15 34.9 224.15 31.4833333M251.95 41.9833333C250.9748 42.4782896 249.908306 42.7676044 248.816667 42.8333333 247.383333 42.8333333 246.566667 42.1 246.566667 40.2L246.566667 30.8 252.9 30.8 252.9 26.2666667 246.566667 26.2666667 246.566667 20 239.9 20 239.9 26.2666667 236.666667 26.2666667 236.666667 30.75 240 30.75 240 41.3C240 46 243.166667 48.3333333 247.333333 48.3333333 249.460128 48.3273447 251.551547 47.7887325 253.416667 46.7666667L251.95 41.9833333z"/>
    <polygon points="61.867 10 63.117 10 63.117 2.55 66.667 2.55 66.667 1.667 58.333 1.667 58.333 2.55 61.867 2.55"/>
    <polygon points="67.817 6.317 73.85 6.317 73.85 10 75 10 75 1.667 73.85 1.667 73.85 5.433 67.817 5.433 67.817 1.667 66.667 1.667 66.667 10 67.817 10"/>
    <polygon points="83.333 9.117 77.767 9.117 77.767 6.217 82.583 6.217 82.583 5.35 77.767 5.35 77.767 2.55 83.15 2.55 83.15 1.667 76.667 1.667 76.667 10 83.333 10"/>
    <path d="M41.6666667,10 L37.1333333,10 L32.6,37.5833333 C32.6,37.5833333 14.3,36.6666667 1.66666667,45.7 L1.66666667,46.6666667 C1.66666667,46.6666667 11.6666667,39.85 34.5333333,39.85 L41.6666667,10 Z"/>
    <path d="M44.1166667 20L38.5833333 43.5666667C38.5833333 43.5666667 20.2333333 40.6 3.33333333 49.1833333L3.33333333 50C3.33333333 50 17.8 43.7333333 41.6666667 46.6666667L48.3333333 20 44.1166667 20zM34.4666667 3.2L35 0C35 0 17.2666667 1.43333333 4.85 11.4666667 4.85 11.4666667 4.18333333 14.95 3.33333333 19.8L8.56666667 25C8.56666667 25 19.5333333 9.53333333 34.4666667 3.2"/>
    <path d="M34.7166667,10.5333333 C34.8321231,9.82358598 35.0993098,9.14709199 35.5,8.55 C36.7396207,6.60248638 38.2554313,4.8452688 40,3.33333333 C17.5,15.4 10.5,33.7333333 10.5,33.7333333 L3.33333333,22.6666667 C1.9,30.4 0.2,40.5333333 0,45 C0,45 8.66666667,35 30.5,35 L34.7166667,10.5333333 Z"/>
  </g>
</svg>
