<svg width="139" height="45" viewBox="0 0 139 45" fill="none" xmlns="http://www.w3.org/2000/svg">
<path d="M28.9413 1.48003C28.0606 2.31187 27.6055 2.79712 27.6352 2.89615C27.6648 2.98527 27.8034 3.79731 27.9518 4.70838C28.1002 5.62935 28.2486 6.37207 28.2783 6.37207C28.308 6.36217 28.9314 5.7977 29.6537 5.1045L30.9796 3.84683L30.6629 2.0643C30.4947 1.08391 30.3364 0.271872 30.3265 0.252066C30.3067 0.23226 29.6834 0.786824 28.9413 1.48003Z" fill="#626B77"/>
<path d="M25.6068 4.7776L24.7559 5.56983L24.9538 6.75818L25.1516 7.94653L25.6068 7.57022C25.8542 7.35236 26.2599 6.97605 26.4973 6.72847L26.9426 6.27294L26.7645 5.1341C26.6655 4.51022 26.5567 3.99527 26.5171 3.99527C26.4775 3.99527 26.0719 4.35177 25.6068 4.7776Z" fill="#626B77"/>
<path d="M7.31152 4.9857C7.31152 5.11444 8.113 8.50124 8.15257 8.54085C8.21194 8.59037 11.5959 9.84804 11.6157 9.81833C11.6454 9.76881 10.8143 6.28299 10.7549 6.22357C10.646 6.11464 7.31152 4.91638 7.31152 4.9857Z" fill="#626B77"/>
<path d="M22.6277 6.61968C22.598 8.85773 22.6475 12.1653 22.7464 14.1954C22.9146 17.3841 23.2709 21.5335 23.3896 21.4939C23.5479 21.4443 26.8428 17.9288 28.525 16.0175C30.6325 13.6309 33.0963 10.6106 33.9473 9.36278L34.2639 8.89735L33.878 9.19443C32.3542 10.3234 29.4452 12.9278 26.7142 15.6016C25.6654 16.6315 24.7847 17.4634 24.7749 17.4436C24.7551 17.4238 24.666 16.7702 24.577 15.9779C24.1416 12.1455 23.0532 5.72841 22.7365 5.18375C22.6871 5.09463 22.6475 5.6789 22.6277 6.61968Z" fill="#626B77"/>
<path d="M30.2466 6.32268L29.3857 7.14462L29.5836 8.31316C29.6925 8.95685 29.7914 9.49161 29.8013 9.50151C29.8112 9.51142 30.2169 9.14501 30.7017 8.68947L31.5824 7.86753L31.4043 6.79802C31.3152 6.21374 31.2064 5.67899 31.1668 5.60967C31.1272 5.54034 30.7809 5.81763 30.2466 6.32268Z" fill="#626B77"/>
<path d="M16.8499 6.32254C16.8796 6.48099 16.9488 6.92662 17.0082 7.31283C17.3347 9.45186 18.0867 12.9575 18.9476 16.2651C19.2444 17.4237 19.472 18.3942 19.4522 18.414C19.4324 18.4338 18.9179 18.2258 18.2945 17.9585C14.8017 16.4136 7.6577 13.7695 7.85559 14.1062C8.0337 14.3736 12.328 16.8493 15.2865 18.3744C17.9878 19.7608 22.3514 21.8404 22.3514 21.7315C22.3514 21.6919 21.9754 20.4144 21.5202 18.8893C20.1547 14.3835 18.7992 10.5115 17.5227 7.51089C16.9587 6.17399 16.7411 5.79768 16.8499 6.32254Z" fill="#626B77"/>
<path d="M12.417 7.4813C12.4961 7.82791 12.6148 8.35276 12.6841 8.64985L12.8028 9.19451L13.9308 9.62034C14.5542 9.8481 15.0687 10.0264 15.0885 10.0165C15.138 9.95703 14.574 7.75859 14.4849 7.67936C14.3959 7.60014 12.4664 6.86732 12.3378 6.86732C12.2982 6.86732 12.3378 7.14461 12.417 7.4813Z" fill="#626B77"/>
<path d="M26.6551 8.37254C25.9427 9.02613 25.349 9.6104 25.3391 9.65992C25.2995 9.74904 25.8042 12.8685 25.9031 13.1259C25.9526 13.2646 26.2395 13.0368 27.2983 12.0267L28.6242 10.7591L28.3372 8.96671C28.1789 7.97642 28.0206 7.16438 27.9909 7.16438C27.9612 7.16438 27.3576 7.70904 26.6551 8.37254Z" fill="#626B77"/>
<path d="M8.8846 11.2839L9.15175 12.4426L10.2896 12.8585C10.913 13.0961 11.4275 13.2744 11.4374 13.2645C11.4671 13.2447 10.9031 10.9175 10.8635 10.8878C10.7745 10.8284 8.81533 10.1352 8.72628 10.1352C8.66691 10.1352 8.73618 10.6204 8.8846 11.2839Z" fill="#626B77"/>
<path d="M12.1592 10.5511C12.1691 10.8382 12.931 13.918 13.0101 13.9973C13.1289 14.1161 16.3348 15.2946 16.3941 15.2351C16.4337 15.2054 15.652 11.6998 15.5926 11.6701C15.5333 11.6305 12.2581 10.4322 12.2087 10.4322C12.179 10.4322 12.1592 10.4916 12.1592 10.5511Z" fill="#626B77"/>
<path d="M68.3613 22.2167V32.7138H69.7466H71.1319V25.4648V18.2159L71.6365 18.7507C71.9135 19.0477 74.7137 21.8998 77.8603 25.0885C81.0068 28.2773 84.1236 31.4462 84.7965 32.1493C85.4792 32.8425 86.063 33.407 86.1026 33.407C86.1421 33.407 86.1619 28.6734 86.152 22.8802L86.1224 12.3633L84.747 12.3336L83.3716 12.3039L83.431 19.6419C83.4607 23.6724 83.4508 26.9701 83.4112 26.9701C83.3716 26.9701 82.9165 26.5344 82.4118 25.9996C81.9072 25.4747 80.1756 23.6823 78.5529 22.0186C76.9401 20.3549 75.3767 18.7507 75.0897 18.4536C72.2994 15.5619 68.5097 11.7196 68.4504 11.7196C68.4009 11.7196 68.3613 16.4235 68.3613 22.2167Z" fill="#626B77"/>
<path d="M99.5796 12.2248C95.6119 12.7893 92.0696 16.0374 91.0603 20.0184C89.9719 24.3064 91.6639 28.7429 95.3249 31.1988C96.4826 31.9811 97.759 32.4961 99.2036 32.7734C100.52 33.0209 102.736 32.9219 103.933 32.5753C107.495 31.5256 110.256 28.7429 111.206 25.2372C111.483 24.2271 111.582 21.9693 111.404 20.8502C111.077 18.84 110.009 16.7901 108.475 15.2452C106.09 12.8586 102.845 11.7594 99.5796 12.2248ZM102.855 14.9481C105.685 15.5423 108.139 18.2062 108.623 21.2266C109.267 25.1976 106.862 29.0499 103.122 30.0501C102.103 30.3273 100.371 30.3471 99.3818 30.0897C96.5914 29.3866 94.375 27.1089 93.7517 24.3262C93.5538 23.4448 93.5439 21.7118 93.7319 20.8205C94.0485 19.3351 94.9192 17.7902 96.0077 16.8C97.9074 15.057 100.302 14.4134 102.855 14.9481Z" fill="#626B77"/>
<path d="M56.2407 12.3535C53.3811 12.918 51.6496 14.6807 51.4715 17.2356C51.3527 18.8498 51.7683 19.9787 52.8666 21.078C53.6681 21.8801 54.4201 22.3059 56.5277 23.1576C59.2883 24.2766 60.2679 24.95 60.7725 26.069C61.0298 26.6632 60.9803 28.01 60.6736 28.6141C60.0106 29.8817 58.2592 30.6541 56.399 30.4956C55.0929 30.3867 53.3515 29.7826 52.3125 29.0696C52.075 28.9112 51.8376 28.7527 51.7683 28.7131C51.5902 28.6141 50.4325 30.7333 50.571 30.9017C50.8085 31.1888 53.3119 32.3277 54.2618 32.5852C55.1622 32.8327 55.4096 32.8525 57.0818 32.8525C58.8134 32.8525 58.9618 32.8426 59.7039 32.5852C61.3563 32.0306 62.603 30.9908 63.2561 29.6242C63.6717 28.7329 63.8102 28.0892 63.8102 27.0395C63.8102 25.4055 63.3155 24.1875 62.227 23.0982C61.7026 22.5733 61.3464 22.3356 60.4361 21.89C59.8127 21.583 58.9717 21.2166 58.566 21.0681C57.4083 20.6719 55.6767 19.7807 55.1721 19.345C54.5685 18.8102 54.2717 18.1863 54.2816 17.4139C54.2816 16.1463 55.0435 15.2451 56.4386 14.8292C56.8839 14.7005 57.2698 14.6807 58.1603 14.7203C59.4466 14.7698 60.535 15.0471 61.8016 15.6314L62.5239 15.9681L63.0186 14.9877C63.2957 14.443 63.5133 13.9578 63.5133 13.8983C63.5133 13.631 61.1782 12.7199 59.8325 12.4624C58.655 12.2347 57.0719 12.195 56.2407 12.3535Z" fill="#626B77"/>
<path d="M113.125 13.0269C115.609 19.6024 120.932 33.4764 120.982 33.5259C121.021 33.5655 122.209 30.8819 123.623 27.5644C125.029 24.237 126.216 21.5632 126.255 21.6028C126.285 21.6424 127.354 24.336 128.62 27.5842C129.897 30.8422 130.955 33.5061 130.985 33.5061C131.035 33.5061 137.239 17.196 138.733 13.1457L139 12.4129H137.526C136.081 12.4129 136.051 12.4129 135.992 12.6308C135.794 13.2844 131.153 26.7325 131.094 26.8019C131.064 26.8415 129.768 23.623 128.215 19.642L125.405 12.4129H124.049H122.683L122.773 12.6308C122.822 12.7595 123.317 14.0172 123.861 15.4333C124.712 17.6119 124.85 18.0378 124.771 18.2556C124.712 18.3943 123.95 20.3947 123.069 22.7119C122.199 25.0292 121.447 26.9801 121.407 27.0593C121.358 27.1485 121.239 26.9405 121.061 26.4652C120.922 26.0591 119.745 22.7417 118.449 19.0974L116.094 12.4624L114.491 12.4327L112.888 12.4129L113.125 13.0269Z" fill="#626B77"/>
<path d="M37.5399 13.7597C35.2443 14.958 32.365 16.6712 29.6736 18.4339C27.5858 19.8005 23.9149 22.3357 23.9644 22.3753C24.0237 22.4347 28.5654 23.4943 30.7027 23.9498C33.8591 24.6133 39.321 25.5046 40.1422 25.4848C40.9437 25.465 34.4726 23.2764 30.0496 22.0683C29.0799 21.8009 28.2884 21.5632 28.2983 21.5335C28.2983 21.5038 28.981 20.979 29.8022 20.365C31.6328 19.0083 33.681 17.3842 35.373 15.9285C36.6494 14.8391 37.9753 13.6112 37.8862 13.6112C37.8566 13.6112 37.7081 13.6805 37.5399 13.7597Z" fill="#626B77"/>
<path d="M37.8369 16.1957C37.5103 16.473 37.1145 16.7998 36.9562 16.9384C36.7979 17.0672 36.6891 17.1959 36.7188 17.2157C36.7385 17.2454 37.2531 17.4138 37.8566 17.592L38.9451 17.9287L39.8554 17.186C40.3501 16.78 40.7558 16.4235 40.7558 16.3839C40.7558 16.3343 38.6086 15.6609 38.48 15.6807C38.4503 15.6807 38.1634 15.9184 37.8369 16.1957Z" fill="#626B77"/>
<path d="M40.9726 17.8793C40.191 18.5329 39.5676 19.0875 39.5874 19.1073C39.6467 19.1667 42.9021 20.1372 43.0307 20.1372C43.1693 20.1372 45.9299 17.8595 45.8705 17.7902C45.8408 17.7704 45.0987 17.5327 44.2082 17.2555C43.3177 16.9881 42.536 16.7504 42.4865 16.7306C42.4272 16.7108 41.7444 17.2257 40.9726 17.8793Z" fill="#626B77"/>
<path d="M33.8385 19.3054C33.0766 19.9392 32.4434 20.4838 32.4434 20.5234C32.4434 20.5829 35.5107 21.5236 35.8175 21.5533C36.0154 21.5731 38.7958 19.3252 38.6968 19.2361C38.6375 19.1865 37.2225 18.7409 35.4019 18.1962C35.3029 18.1665 34.7191 18.5825 33.8385 19.3054Z" fill="#626B77"/>
<path d="M5.62891 19.5925C5.62891 19.6123 6.19291 19.85 6.89543 20.1174C8.69627 20.8205 12.3177 21.989 15.0784 22.7615C17.7994 23.5141 17.74 23.4943 17.6906 23.5438C17.6708 23.5636 16.7605 24.2469 15.6721 25.0689C12.6146 27.3663 7.99375 31.2483 8.14217 31.3968C8.28069 31.5355 13.5051 28.4755 16.5824 26.4454C18.779 24.9995 21.8958 22.8308 21.9354 22.7219C21.9552 22.6525 17.5323 21.583 14.8508 21.0285C12.9114 20.6224 9.12174 19.9787 7.55838 19.7906C6.85585 19.7114 6.12364 19.6222 5.95543 19.5925C5.77733 19.5727 5.62891 19.5727 5.62891 19.5925Z" fill="#626B77"/>
<path d="M38.5289 21.2266L37.5889 21.999L38.5981 22.3159C39.1621 22.4842 39.6865 22.6427 39.7756 22.6724C39.8745 22.7021 40.2802 22.4248 40.8442 21.9594C41.339 21.5534 41.7447 21.1969 41.7447 21.177C41.7447 21.1572 41.2895 20.9988 40.7354 20.8304C40.1714 20.6621 39.6668 20.5037 39.5975 20.4838C39.5282 20.464 39.0533 20.7908 38.5289 21.2266Z" fill="#626B77"/>
<path d="M5.00563 23.0485C4.52079 23.4545 4.125 23.811 4.125 23.8606C4.13489 23.9002 4.62963 24.0883 5.23321 24.2666L6.34142 24.6033L7.03405 24.0289C7.41994 23.712 7.84542 23.3555 7.98394 23.2466C8.22142 23.0485 8.23131 23.0287 8.05321 22.9792C7.72668 22.8802 6.08416 22.3949 5.97531 22.3553C5.92584 22.3355 5.48058 22.6524 5.00563 23.0485Z" fill="#626B77"/>
<path d="M23.6377 23.4051C23.6377 23.7418 25.7156 30.3471 26.6556 32.9615C27.3977 35.051 29.0204 39.0518 29.1194 39.0518C29.1787 39.0518 28.7731 36.6156 28.4366 34.942C28.0507 33.0209 27.3878 30.1985 26.8139 28.0397L26.428 26.584L26.7446 26.7127C26.9128 26.782 27.8331 27.1782 28.7928 27.5941C31.7316 28.8518 36.7284 30.6937 37.9356 30.971C38.8162 31.169 33.4928 28.0991 29.4756 26.0789C27.9617 25.3164 23.7465 23.3061 23.6674 23.3061C23.6575 23.3061 23.6377 23.3457 23.6377 23.4051Z" fill="#626B77"/>
<path d="M8.41898 24.6232L6.99414 25.8215L8.71582 26.3463C9.65582 26.6335 10.4771 26.8712 10.5266 26.8613C10.5859 26.8613 11.2588 26.3364 12.0404 25.6828L13.4455 24.5143L13.1289 24.4053C12.644 24.2568 10.1506 23.5042 9.98235 23.4547C9.90319 23.4349 9.21056 23.9498 8.41898 24.6232Z" fill="#626B77"/>
<path d="M20.8867 25.2767C17.8985 28.4457 15.6128 31.06 13.5151 33.7239C12.3376 35.2193 11.7143 36.0808 11.8033 36.0808C11.8924 36.0808 14.1681 34.1795 15.4743 33.0208C16.1768 32.387 17.7698 30.9016 19.0067 29.7133C21.1142 27.6931 21.2627 27.5742 21.2627 27.8515C21.2627 29.0002 22.2917 35.8035 22.8656 38.4377C23.1229 39.6162 23.1921 39.834 23.2713 39.636C23.3801 39.3389 23.2911 31.4265 23.1526 29.4954C22.925 26.3661 22.7271 24.029 22.6578 23.7616C22.5886 23.4843 22.5589 23.514 20.8867 25.2767Z" fill="#626B77"/>
<path d="M1.29514 26.0492C0.384827 26.8018 -0.07033 27.2376 0.00882775 27.2772C0.0780908 27.3168 0.83009 27.5545 1.67114 27.8119C2.51219 28.0595 3.2543 28.2873 3.31367 28.3071C3.42251 28.3368 6.14356 26.1581 6.20292 25.9898C6.22271 25.9304 2.95746 24.8807 2.75956 24.8906C2.72988 24.8906 2.07682 25.4154 1.29514 26.0492Z" fill="#626B77"/>
<path d="M5.92557 27.8714C5.46052 28.2576 5.07462 28.6042 5.05483 28.6438C5.03504 28.7131 7.03378 29.3469 7.26136 29.3469C7.3702 29.3469 9.02262 28.0001 9.07209 27.8813C9.09188 27.8021 7.13273 27.1683 6.89525 27.1683C6.82599 27.1782 6.39062 27.4951 5.92557 27.8714Z" fill="#626B77"/>
<path d="M29.4058 29.951C29.4355 30.0797 29.6235 30.9017 29.8313 31.783L30.1974 33.3774L31.8498 33.9815C32.7502 34.3182 33.5418 34.5955 33.5913 34.5955C33.71 34.5955 32.9283 31.179 32.7799 31.0403C32.7304 30.9908 32.0279 30.7135 31.2067 30.4065C30.3953 30.1094 29.6334 29.8223 29.5344 29.7826C29.3761 29.7232 29.3563 29.743 29.4058 29.951Z" fill="#626B77"/>
<path d="M18.4522 33.0505L17.1758 34.2785L17.4627 36.0313C17.621 37.0018 17.7991 37.8138 17.8486 37.8237C17.908 37.8435 18.5215 37.2988 19.2339 36.6254L20.5202 35.3975L20.2234 33.6447C20.0551 32.6742 19.8869 31.872 19.8276 31.8621C19.7781 31.8423 19.1547 32.387 18.4522 33.0505Z" fill="#626B77"/>
<path d="M34.4229 31.9415C34.4229 32.1 34.8879 34.1103 34.9374 34.14C35.0165 34.1994 37.1439 34.9718 37.1736 34.952C37.1934 34.9223 36.6887 32.6842 36.6492 32.6347C36.6195 32.5951 34.9967 31.9811 34.6504 31.8821C34.4921 31.8326 34.4229 31.8524 34.4229 31.9415Z" fill="#626B77"/>
<path d="M30.7617 35.1796C30.7716 35.4668 31.2268 37.2791 31.3158 37.3682C31.4346 37.4771 33.4333 38.1901 33.4828 38.1505C33.5026 38.1208 33.4036 37.5959 33.2552 36.9721L32.988 35.8431L31.8699 35.4272C30.9497 35.0905 30.7617 35.041 30.7617 35.1796Z" fill="#626B77"/>
<path d="M34.2246 35.3382C34.2246 35.5263 34.9964 38.7646 35.0558 38.824C35.1745 38.9428 38.4299 40.1015 38.4596 40.0322C38.4892 39.9628 37.7174 36.5661 37.6482 36.5067C37.6383 36.4869 36.8566 36.1898 35.9265 35.8432C34.7985 35.4273 34.2246 35.259 34.2246 35.3382Z" fill="#626B77"/>
<path d="M15.0884 36.378L14.2275 37.2197L14.3859 38.21C14.6233 39.6954 14.5541 39.6657 15.5534 38.7249L16.4341 37.9129L16.2659 36.9226C16.0185 35.3778 16.0877 35.4174 15.0884 36.378Z" fill="#626B77"/>
<path d="M19.739 37.9129L18.8584 38.7249L19.0365 39.8538C19.1355 40.4777 19.2344 41.0125 19.274 41.0521C19.3037 41.0917 19.7192 40.7451 20.1942 40.2797L21.055 39.4478L20.8571 38.2892C20.7483 37.6455 20.6493 37.1206 20.6394 37.1107C20.6296 37.1008 20.2239 37.4573 19.739 37.9129Z" fill="#626B77"/>
<path d="M16.3547 39.7548C15.7116 40.3589 15.0981 40.9333 15.009 41.0224C14.8408 41.1709 14.8507 41.2799 15.1476 42.9931C15.3158 43.9834 15.484 44.7954 15.5137 44.7954C15.5434 44.7954 16.1667 44.221 16.889 43.5278L18.205 42.2702L17.8983 40.4876C17.7301 39.5073 17.5817 38.6952 17.5619 38.6853C17.552 38.6655 17.0078 39.1507 16.3547 39.7548Z" fill="#626B77"/>
</svg>
