<svg width="85" height="34" viewBox="0 0 85 34" fill="none" xmlns="http://www.w3.org/2000/svg">
<g clip-path="url(#clip0_691_386)">
<path fill-rule="evenodd" clip-rule="evenodd" d="M10.7978 28.959C11.0702 28.3091 11.8243 28.0004 12.4821 28.2697L12.5782 28.3136C13.1697 28.6131 13.4387 29.3164 13.1798 29.9338L11.8048 33.2134C11.5324 33.8633 10.7782 34.1719 10.1204 33.9027C9.46262 33.6336 9.15027 32.8885 9.42273 32.2386L10.7978 28.959ZM62.1825 10.9013C65.6269 10.9013 68.4196 13.6604 68.4196 17.0633C68.4196 20.4662 65.6269 23.2247 62.1825 23.2247C60.8185 23.2247 59.5573 22.7923 58.5308 22.0586V27.1732H55.9522V17.0633C55.9522 13.6604 58.7382 10.9013 62.1825 10.9013ZM25.2946 11.213L28.9323 20.0439L32.6348 11.213H35.2132L28.5741 27.0484H25.9956L27.7388 22.8906L22.7162 11.213H25.2946ZM4.11573 20.9787C4.77354 20.7095 5.52769 21.0181 5.80016 21.668L5.83667 21.7662C6.04053 22.3912 5.72738 23.0765 5.10247 23.3321L1.78289 24.6906C1.12509 24.9599 0.370934 24.6512 0.0984645 24.0013C-0.174005 23.3515 0.138408 22.6064 0.796211 22.3372L4.11573 20.9787ZM17.1534 10.8986C20.696 10.8986 22.2612 12.4479 22.2612 14.4214V14.6663H19.7188V14.5325C19.7188 13.6126 18.9492 12.8266 17.1534 12.8266C15.5421 12.8266 14.6341 13.3877 14.6341 14.4641C14.6341 16.9788 22.4889 14.6435 22.4889 19.4222C22.4889 21.5752 20.696 23.1016 17.2226 23.1016C13.3629 23.1016 11.9332 21.4641 11.9332 19.6244C11.9332 19.5333 11.9332 19.4222 11.9533 19.3311H14.4986V19.445C14.4986 20.3876 15.4297 21.1509 17.2226 21.1509C18.9261 21.1509 19.9465 20.6126 19.9465 19.4905C19.9465 17.067 12.0917 19.3111 12.0917 14.5552C12.0917 12.4023 13.9538 10.8986 17.1534 10.8986ZM49.1922 10.8989C52.2798 10.8989 54.1416 12.4915 54.1416 16.3047V22.7869H51.5632V16.3047C51.576 14.0617 50.6 13.0526 48.8973 13.0526C47.1945 13.0526 46.2246 14.1513 46.2246 16.4168V22.7869H43.6462V16.3047C43.6462 14.0617 42.6765 13.0526 40.974 13.0526C39.2713 13.0526 38.3076 14.1513 38.3076 16.4168V22.7869H35.7292V16.4168C35.7292 12.6036 37.6137 10.8989 40.7015 10.8989C42.6995 10.8989 44.084 11.5494 44.8559 13.0745H45.0832C45.8551 11.5945 47.217 10.8989 49.1922 10.8989ZM72.5708 6.59629V22.7715H69.9924V6.59629H72.5708ZM79.4106 10.9015C80.9067 10.9015 82.149 11.3315 83.0051 12.146C83.9246 13.0203 84.3916 14.2933 84.3916 15.9308V16.2639H81.8348V15.908C81.8348 14.1736 81.0191 13.2937 79.4106 13.2937C77.8051 13.2937 76.9878 14.1736 76.9878 15.908V22.7712H74.4094V15.908C74.4094 12.7269 76.2341 10.9015 79.4106 10.9015ZM62.1853 13.4489C60.1685 13.4489 58.5275 15.0702 58.5275 17.0633C58.5275 19.0559 60.1685 20.6771 62.1853 20.6771C64.2027 20.6771 65.8437 19.0559 65.8437 17.0633C65.8437 15.0702 64.2027 13.4489 62.1853 13.4489ZM0.0984645 9.99865C0.370934 9.34876 1.12509 9.04016 1.78289 9.30936L5.10247 10.6679C5.76027 10.937 6.07263 11.6821 5.80016 12.332L5.75575 12.4268C5.45251 13.0113 4.74065 13.277 4.11573 13.0213L0.796211 11.6628C0.138408 11.3936 -0.174005 10.6485 0.0984645 9.99865ZM10.1204 0.0972797C10.7782 -0.171911 11.5324 0.136743 11.8048 0.786631L13.1798 4.06627C13.4524 4.7161 13.14 5.46118 12.4821 5.73037L12.3828 5.76644C11.7501 5.96785 11.0566 5.65847 10.7978 5.04107L9.42273 1.76144C9.15027 1.11155 9.46262 0.366471 10.1204 0.0972797ZM22.6093 0.786592C22.8817 0.136704 23.6359 -0.171895 24.2937 0.0972964L24.3897 0.141173C24.9812 0.440757 25.2502 1.14406 24.9913 1.7614L23.6164 5.04103C23.3439 5.69092 22.5897 5.99958 21.9319 5.73038C21.2741 5.46119 20.9618 4.71612 21.2342 4.06623L22.6093 0.786592Z" fill="#626B77"/>
</g>
<defs>
<clipPath id="clip0_691_386">
<rect width="85" height="34" fill="white"/>
</clipPath>
</defs>
</svg>
