<svg xmlns="http://www.w3.org/2000/svg" width="256" height="256" viewBox="0 0 256 256">
  <path fill="#09076C" fill-rule="evenodd" d="M256,0 L256,128 C256,198.692448 198.692448,256 128,256 C57.307552,256 0,198.692448 0,128 C0,57.307552 57.307552,0 128,0 L128,0 L256,0 Z M224.96,31.68 L122.050528,31.68 C82.4825356,31.68 47.805391,58.1517433 37.3741773,96.32 L37.3741773,96.32 L161.76,96.32 L161.76,128.52858 C161.76,146.201692 147.433112,160.52858 129.76,160.52858 L129.76,160.52858 L128.447089,160.52858 L127.952851,160.524576 C111.674625,160.260649 98.56,146.982612 98.56,130.641491 L98.56,130.641491 L98.56,128.195375 L31.9341773,128.195375 L31.9341773,128.224248 C31.9341773,181.526857 75.1444796,224.737159 128.447089,224.737159 L128.447089,224.737159 L130.043106,224.724229 C182.609583,223.871944 224.96,180.993831 224.96,128.224248 L224.96,128.224248 L224.96,31.68 Z"/>
</svg>
